<svg width="238" height="120" viewBox="0 0 238 120" fill="none" xmlns="http://www.w3.org/2000/svg">
<path d="M59.9363 46.1101L43.7352 36.7656C42.966 36.3219 42.0935 36.0884 41.2053 36.0884C40.317 36.0884 39.4445 36.3219 38.6753 36.7656L22.4742 46.1101C21.7054 46.5538 21.067 47.1917 20.6231 47.9598C20.1792 48.7279 19.9455 49.5991 19.9453 50.486V61.5713C21.3669 59.8623 23.3288 58.6877 25.5078 58.2411C27.6868 57.7945 29.9531 58.1024 31.9336 59.1142C38.3943 62.4113 42.1772 58.9592 42.9426 54.2565C43.1448 52.9392 43.7511 51.7169 44.6779 50.7582C45.6048 49.7995 46.8065 49.1516 48.1174 48.9038C49.4283 48.656 50.7839 48.8205 51.9973 49.3747C53.2107 49.9289 54.2222 50.8454 54.8922 51.9979C55.5622 53.1504 55.8579 54.4822 55.7384 55.8096C55.619 57.137 55.0902 58.3947 54.2251 59.4094C53.36 60.424 52.2011 61.1456 50.9083 61.4747C49.6154 61.8037 48.2521 61.724 47.0065 61.2466C42.54 59.5415 37.6373 61.0812 37.2619 68.3268C37.1495 70.5278 36.2969 72.6264 34.842 74.2831C33.3871 75.9398 31.4152 77.0576 29.2453 77.4556L38.6816 82.9019C39.4508 83.3456 40.3233 83.5791 41.2115 83.5791C42.0998 83.5791 42.9723 83.3456 43.7415 82.9019L59.9426 73.5574C60.7122 73.114 61.3513 72.4759 61.7957 71.7073C62.24 70.9388 62.4738 70.0669 62.4736 69.1794V50.486C62.473 49.5982 62.2381 48.7262 61.7927 47.958C61.3472 47.1898 60.7069 46.5524 59.9363 46.1101Z" fill="url(#paint0_linear_860_3)"/>
<path d="M90.1162 65.9892H78.908L76.0079 73.5554H71.9775L82.6951 46.7114H86.3605L97.0361 73.5554H93.0079L90.1162 65.9892ZM80.2458 62.5266H88.7867L84.5152 51.3785L80.2458 62.5266Z" fill="#2CABCC"/>
<path d="M116.052 63.2512C116.052 72.5078 110.491 73.8757 107.146 73.8757C99.4527 73.8757 98.8467 68.8861 98.8467 67.3569V45.8252H102.514V53.7558C103.916 53.3529 105.367 53.1498 106.826 53.1526C111.015 53.1505 116.052 54.9205 116.052 63.2512ZM112.345 63.2512C112.345 57.2561 109.686 56.4099 106.826 56.4099C105.347 56.4028 103.882 56.6875 102.514 57.2477V67.5894C102.514 69.6024 104.085 70.6079 107.146 70.6079C109.564 70.6163 112.343 69.7721 112.343 63.2512H112.345Z" fill="#2CABCC"/>
<path d="M122.738 73.5551H119.03V55.1613C122.13 53.855 125.457 53.1717 128.821 53.1504V56.5313C126.768 56.5753 124.728 56.8565 122.74 57.3692L122.738 73.5551Z" fill="#2CABCC"/>
<path d="M146.266 61.5607V67.3568C146.266 68.886 145.66 73.8756 137.927 73.8756C130.03 73.8756 129.426 68.8043 129.426 67.2353C129.426 63.2553 132.97 60.8778 138.894 60.8778C140.119 60.8737 141.344 60.9542 142.559 61.1187C142.398 57.8195 140.949 56.37 137 56.37C135.104 56.396 133.226 56.7358 131.441 57.3754V54.2333C133.385 53.5034 135.446 53.1356 137.522 53.1483C143.123 53.1504 146.266 56.127 146.266 61.5607ZM142.559 64.0555C141.399 63.8807 140.228 63.7988 139.055 63.8104C137.323 63.8104 133.091 64.3341 133.091 67.1913C133.091 69.4955 134.744 70.612 137.927 70.612C140.988 70.612 142.559 69.5248 142.559 67.3128V64.0555Z" fill="#2CABCC"/>
<path d="M178.737 60.635V73.5553H175.071V60.3941C175.071 58.5089 174.547 56.5314 170.922 56.5314C169.065 56.5524 167.231 56.9352 165.522 57.6584C165.856 58.6148 166.02 59.6222 166.006 60.635V73.5553H162.299V60.4339C162.299 58.5487 161.775 56.611 157.667 56.611C156.183 56.622 154.707 56.8248 153.276 57.2143V73.5532H149.568V55.1196C152.178 53.8301 155.045 53.1429 157.956 53.1086C160.173 53.1086 161.984 53.6721 163.314 54.6378C164.805 54.0324 167.508 53.1086 170.687 53.1086C175.755 53.1107 178.737 55.9261 178.737 60.635Z" fill="#1754A3"/>
<path d="M198.155 69.2569V72.598C196.268 73.4024 193.883 73.924 191.025 73.924C186.796 73.924 181.759 72.1539 181.759 63.7834C181.759 61.1671 181.759 53.1589 190.662 53.1589C196.062 53.1589 199.526 56.9818 199.526 62.8575C199.526 63.8239 199.486 64.7498 199.407 65.6351H185.546C186.11 69.8246 188.568 70.7463 191.227 70.7463C194.206 70.7379 196.463 70.1346 198.155 69.2569ZM185.504 62.294H195.819C195.609 59.9605 194.649 56.4581 190.66 56.4581C187.278 56.4498 185.827 57.9789 185.504 62.2857V62.294Z" fill="#1754A3"/>
<path d="M210.69 53.1505C212.146 53.149 213.594 53.3528 214.993 53.7558V45.8252H218.658V67.3569C218.658 68.8861 218.052 73.8757 210.359 73.8757C207.014 73.8757 201.455 72.5078 201.455 63.2512C201.463 54.9205 206.496 53.1505 210.69 53.1505ZM210.369 70.6163C213.431 70.6163 215.001 69.6108 215.001 67.5978V57.2561C213.634 56.6957 212.168 56.4109 210.69 56.4182C207.83 56.4182 205.131 57.2561 205.131 63.2596C205.123 69.7721 207.903 70.6163 210.361 70.6163H210.369Z" fill="#1754A3"/>
<path d="M76.2322 81.2113H75.752L75.2508 79.9126H73.4496L72.9505 81.2113H72.4619L74.1248 77.0449H74.5756L76.2322 81.2113ZM75.0831 79.4811L74.3513 77.5749L73.6194 79.4811H75.0831Z" fill="#1754A3"/>
<path d="M79.3542 80.1495C79.3542 80.8428 78.8027 81.2618 77.8716 81.2618C77.4434 81.2671 77.0205 81.1664 76.6407 80.9685V80.4804C76.9978 80.7095 77.416 80.8249 77.8402 80.8114C78.3225 80.8114 78.9033 80.7004 78.9033 80.1495C78.9033 78.9324 76.5967 79.5441 76.5967 78.1511C76.5967 77.5897 76.972 76.9885 78.0352 76.9885C78.3991 76.9907 78.7578 77.0759 79.0837 77.2378V77.7007C78.7774 77.5295 78.4323 77.4393 78.0813 77.4389C77.4187 77.4389 77.0496 77.6882 77.0496 78.1511C77.0517 79.0623 79.3542 78.5575 79.3542 80.1495Z" fill="#1754A3"/>
<path d="M82.6128 80.1495C82.6128 80.8428 82.0634 81.2618 81.1303 81.2618C80.702 81.2669 80.2792 81.1661 79.8994 80.9685V80.4804C80.2573 80.7093 80.6762 80.8246 81.1009 80.8114C81.5811 80.8114 82.1641 80.7004 82.1641 80.1495C82.1641 78.9324 79.8574 79.5441 79.8574 78.1511C79.8574 77.5897 80.2328 76.9885 81.2959 76.9885C81.66 76.9901 82.0187 77.0754 82.3444 77.2378V77.7007C82.039 77.5292 81.6946 77.439 81.3442 77.4389C80.6815 77.4389 80.3125 77.6882 80.3125 78.1511C80.3125 79.0623 82.6128 78.5575 82.6128 80.1495Z" fill="#1754A3"/>
<path d="M86.9413 79.1252C86.9413 80.5433 86.2912 81.2618 85.0037 81.2618C83.7162 81.2618 83.0703 80.5433 83.0703 79.1252C83.0703 77.707 83.7225 76.9885 85.0037 76.9885C86.2849 76.9885 86.9413 77.707 86.9413 79.1252ZM86.4925 79.1252C86.4925 77.9437 86.0354 77.4138 85.0037 77.4138C83.972 77.4138 83.5212 77.9437 83.5212 79.1252C83.5212 80.3066 83.9783 80.8366 85.0037 80.8366C86.0291 80.8366 86.4925 80.3129 86.4925 79.1252Z" fill="#1754A3"/>
<path d="M89.4445 80.8366C89.8635 80.8376 90.2784 80.755 90.6649 80.5936V81.0251C90.2596 81.1816 89.8288 81.2619 89.3942 81.2618C88.1129 81.2618 87.4629 80.5433 87.4629 79.1252C87.4629 77.7071 88.1129 76.9886 89.3942 76.9886C89.8297 76.9866 90.2614 77.0699 90.6649 77.2337V77.6526C90.2788 77.4891 89.8639 77.4043 89.4445 77.4033C88.396 77.4033 87.9137 77.9333 87.9137 79.1147C87.9137 80.2961 88.3876 80.8366 89.4445 80.8366Z" fill="#1754A3"/>
<path d="M91.7409 77.0449V81.2113H91.29V77.0449H91.7409Z" fill="#1754A3"/>
<path d="M96.0184 81.2113H95.5382L95.037 79.9126H93.2357L92.7366 81.2113H92.248L93.9109 77.0449H94.3618L96.0184 81.2113ZM94.8671 79.4811L94.1374 77.5749L93.4056 79.4811H94.8671Z" fill="#1754A3"/>
<path d="M96.8097 79.1125C96.8097 80.3002 97.2836 80.8239 98.3404 80.8239C98.7595 80.8259 99.1746 80.7433 99.5609 80.5809V81.0124C99.2134 81.1501 98.8458 81.23 98.4726 81.2492L98.0846 81.9551H97.6086L98.1098 81.2492C96.946 81.18 96.3525 80.4678 96.3525 79.1188C96.3525 77.7007 97.0026 76.9822 98.2838 76.9822C98.7176 76.9811 99.1478 77.0607 99.5525 77.2168V77.6483C99.1661 77.4863 98.7511 77.4037 98.3321 77.4053C97.2836 77.4074 96.8097 77.9311 96.8097 79.1125Z" fill="#1754A3"/>
<path d="M103.62 81.2116H103.138L102.639 79.9128H100.837L100.336 81.2116H99.8496L101.512 77.0451H101.963L103.62 81.2116ZM102.697 76.5634C102.068 77.3573 101.427 75.8951 100.795 76.689V76.3141C101.424 75.5202 102.054 76.976 102.697 76.1842V76.5634ZM102.488 79.4813L101.756 77.5751L101.024 79.4813H102.488Z" fill="#1754A3"/>
<path d="M107.83 79.1252C107.83 80.5433 107.178 81.2618 105.89 81.2618C104.603 81.2618 103.959 80.5433 103.959 79.1252C103.959 77.707 104.609 76.9885 105.89 76.9885C107.172 76.9885 107.83 77.707 107.83 79.1252ZM107.379 79.1252C107.379 77.9437 106.922 77.4138 105.89 77.4138C104.859 77.4138 104.408 77.9437 104.408 79.1252C104.408 80.3066 104.865 80.8366 105.89 80.8366C106.916 80.8366 107.379 80.3129 107.379 79.1252Z" fill="#1754A3"/>
<path d="M113.553 80.032C113.553 80.8699 112.978 81.2113 112.041 81.2113H110.533V77.0449H111.923C113.006 77.0449 113.312 77.556 113.312 78.1635C113.321 78.3303 113.284 78.4964 113.206 78.6439C113.127 78.7915 113.01 78.9151 112.867 79.0014C113.076 79.0782 113.255 79.2194 113.379 79.4047C113.502 79.59 113.563 79.8097 113.553 80.032ZM111.959 77.4764H110.984V78.8506H112.016C112.42 78.8506 112.855 78.7814 112.855 78.1949C112.855 77.6084 112.515 77.4764 111.959 77.4764ZM113.104 80.0069C113.104 79.3386 112.546 79.2758 112.056 79.2758H110.982V80.7924H112.074C112.615 80.7924 113.104 80.6751 113.104 80.0069Z" fill="#1754A3"/>
<path d="M117.295 81.2113H116.764L115.676 79.5356H114.613V81.2113H114.162V77.0449H115.699C116.599 77.0449 117.113 77.4639 117.113 78.2578C117.129 78.5407 117.04 78.8197 116.864 79.0417C116.688 79.2638 116.436 79.4134 116.156 79.4622L117.295 81.2113ZM116.666 78.2787C116.666 77.8996 116.555 77.4618 115.678 77.4618H114.63V79.1019H115.678C116.538 79.1019 116.657 78.6704 116.657 78.2871L116.666 78.2787Z" fill="#1754A3"/>
<path d="M121.406 81.2113H120.924L120.423 79.9126H118.621L118.122 81.2113H117.634L119.297 77.0449H119.748L121.406 81.2113ZM120.255 79.4811L119.523 77.5749L118.791 79.4811H120.255Z" fill="#1754A3"/>
<path d="M124.526 80.1495C124.526 80.8428 123.977 81.2618 123.043 81.2618C122.615 81.2669 122.192 81.1661 121.812 80.9685V80.4804C122.17 80.7093 122.589 80.8246 123.014 80.8114C123.494 80.8114 124.077 80.7004 124.077 80.1495C124.077 78.9324 121.771 79.5441 121.771 78.1511C121.771 77.5897 122.146 76.9885 123.209 76.9885C123.573 76.9901 123.932 77.0754 124.257 77.2378V77.7007C123.952 77.5292 123.608 77.439 123.257 77.4389C122.595 77.4389 122.226 77.6882 122.226 78.1511C122.226 79.0623 124.526 78.5575 124.526 80.1495Z" fill="#1754A3"/>
<path d="M125.716 77.0449V81.2113H125.266V77.0449H125.716Z" fill="#1754A3"/>
<path d="M129.169 80.7777V81.2155H126.586V77.0449H127.037V80.7777H129.169Z" fill="#1754A3"/>
<path d="M130.168 78.9071H132.087V79.3449H130.168V80.7777H132.349V81.1967H129.715V77.0449H132.347V77.4639H130.168V78.9071Z" fill="#1754A3"/>
<path d="M133.474 77.0449V81.2113H133.023V77.0449H133.474Z" fill="#1754A3"/>
<path d="M137.476 81.2113H136.945L135.857 79.5356H134.794V81.2113H134.343V77.0449H135.876C136.775 77.0449 137.289 77.4639 137.289 78.2578C137.305 78.5407 137.217 78.8197 137.04 79.0417C136.864 79.2638 136.612 79.4134 136.333 79.4622L137.476 81.2113ZM136.847 78.2787C136.847 77.8996 136.735 77.4618 135.859 77.4618H134.81V79.1019H135.859C136.727 79.1019 136.838 78.6704 136.838 78.2871L136.847 78.2787Z" fill="#1754A3"/>
<path d="M141.585 81.2113H141.105L140.603 79.9126H138.802L138.303 81.2113H137.814L139.477 77.0449H139.928L141.585 81.2113ZM140.442 79.4811L139.71 77.5749L138.978 79.4811H140.442Z" fill="#1754A3"/>
<path d="M145.323 77.0449C146.623 77.0449 147.279 77.7446 147.279 79.125C147.279 80.5054 146.623 81.2197 145.323 81.2197H144.008V77.0449H145.323ZM146.828 79.125C146.828 77.975 146.354 77.4639 145.291 77.4639H144.465V80.7777H145.291C146.354 80.7777 146.828 80.275 146.828 79.125Z" fill="#1754A3"/>
<path d="M148.411 78.9071H150.329V79.3449H148.411V80.7777H150.591V81.1967H147.962V77.0449H150.594V77.4639H148.411V78.9071Z" fill="#1754A3"/>
<path d="M157.089 77.0449V81.2113H156.638V77.7823L155.17 79.9063L153.702 77.7823V81.2113H153.234V77.0449H153.721L155.153 79.1627L156.592 77.0449H157.089Z" fill="#1754A3"/>
<path d="M158.409 78.9071H160.328V79.3449H158.409V80.7777H160.592V81.1967H157.958V77.0449H160.592V77.4639H158.409V78.9071Z" fill="#1754A3"/>
<path d="M162.574 77.0449C163.876 77.0449 164.533 77.7446 164.533 79.125C164.533 80.5054 163.876 81.2197 162.574 81.2197H161.268V77.0449H162.574ZM164.082 79.125C164.082 77.975 163.608 77.4639 162.545 77.4639H161.718V80.7777H162.545C163.608 80.7777 164.082 80.275 164.082 79.125Z" fill="#1754A3"/>
<path d="M165.721 77.0449V81.2113H165.271V77.0449H165.721Z" fill="#1754A3"/>
<path d="M168.418 80.8366C168.837 80.8373 169.251 80.7547 169.637 80.5936V81.0251C169.232 81.1816 168.802 81.2619 168.368 81.2618C167.085 81.2618 166.435 80.5433 166.435 79.1252C166.435 77.7071 167.085 76.9886 168.368 76.9886C168.803 76.9866 169.234 77.0699 169.637 77.2337V77.6526C169.251 77.4893 168.837 77.4046 168.418 77.4033C167.37 77.4033 166.885 77.9333 166.885 79.1147C166.885 80.2961 167.361 80.8366 168.418 80.8366Z" fill="#1754A3"/>
<path d="M170.715 77.0449V81.2113H170.264V77.0449H170.715Z" fill="#1754A3"/>
<path d="M175.042 77.0449V81.2113H174.535L172.042 77.7006V81.2113H171.591V77.0449H172.107L174.596 80.5557V77.0449H175.042Z" fill="#1754A3"/>
<path d="M179.402 81.2113H178.92L178.421 79.9126H176.62L176.118 81.2113H175.632L177.295 77.0449H177.746L179.402 81.2113ZM178.251 79.4811L177.519 77.5749L176.787 79.4811H178.251Z" fill="#1754A3"/>
<path d="M183.136 77.0449C184.439 77.0449 185.095 77.7446 185.095 79.125C185.095 80.5054 184.439 81.2197 183.136 81.2197H181.83V77.0449H183.136ZM184.644 79.125C184.644 77.975 184.17 77.4639 183.107 77.4639H182.281V80.7777H183.107C184.17 80.7777 184.644 80.275 184.644 79.125Z" fill="#1754A3"/>
<path d="M186.285 77.0449V81.2113H185.834V77.0449H186.285Z" fill="#1754A3"/>
<path d="M190.56 81.2113H190.079L189.578 79.9126H187.777L187.278 81.2113H186.785L188.463 77.0449H188.914L190.56 81.2113ZM189.411 79.4811L188.679 77.5749L187.947 79.4811H189.411Z" fill="#1754A3"/>
<path d="M192.721 78.945H194.189V80.9371C193.731 81.1549 193.229 81.2659 192.721 81.2618C191.438 81.2618 190.788 80.5433 190.788 79.1252C190.788 77.707 191.438 76.9885 192.721 76.9885C193.172 76.987 193.619 77.0768 194.034 77.2525V77.6882C193.638 77.5124 193.209 77.421 192.776 77.4201C191.728 77.4201 191.245 77.95 191.245 79.1252C191.245 80.3003 191.719 80.8303 192.776 80.8303C193.101 80.831 193.425 80.7808 193.734 80.6815V79.3807H192.728L192.721 78.945Z" fill="#1754A3"/>
<path d="M198.451 77.0449V81.2113H197.943L195.45 77.7006V81.2113H194.999V77.0449H195.511L198 80.5557V77.0449H198.451Z" fill="#1754A3"/>
<path d="M203.042 79.1251C203.042 80.5432 202.392 81.2617 201.109 81.2617C199.826 81.2617 199.178 80.5432 199.178 79.1251C199.178 77.707 199.828 76.9885 201.109 76.9885C202.39 76.9885 203.042 77.707 203.042 79.1251ZM202.592 79.1251C202.592 77.9437 202.134 77.4137 201.109 77.4137C200.084 77.4137 199.626 77.9437 199.626 79.1251C199.626 80.3065 200.084 80.8365 201.109 80.8365C202.134 80.8365 202.592 80.3128 202.592 79.1251ZM201.702 75.9705L201.185 76.6889H200.891L201.241 75.9705H201.702Z" fill="#1754A3"/>
<path d="M206.371 80.1495C206.371 80.8428 205.819 81.2618 204.888 81.2618C204.46 81.2669 204.037 81.1661 203.657 80.9685V80.4804C204.014 80.7095 204.433 80.8249 204.857 80.8114C205.339 80.8114 205.92 80.7004 205.92 80.1495C205.92 78.9324 203.613 79.5441 203.613 78.1511C203.613 77.5897 203.989 76.9885 205.052 76.9885C205.416 76.9907 205.774 77.0759 206.1 77.2378V77.7007C205.795 77.5297 205.45 77.4396 205.1 77.4389C204.435 77.4389 204.066 77.6882 204.066 78.1511C204.068 79.0623 206.371 78.5575 206.371 80.1495Z" fill="#1754A3"/>
<path d="M209.998 77.0449V77.4827H208.53V81.2113H208.079V77.4827H206.611V77.0449H209.998Z" fill="#1754A3"/>
<path d="M210.944 77.0449V81.2113H210.493V77.0449H210.944Z" fill="#1754A3"/>
<path d="M213.64 80.8366C214.058 80.8373 214.473 80.7547 214.859 80.5936V81.0251C214.457 81.1803 214.031 81.2605 213.6 81.2618C212.317 81.2618 211.667 80.5433 211.667 79.1252C211.667 77.707 212.317 76.9885 213.6 76.9885C214.032 76.9879 214.459 77.0712 214.859 77.2336V77.6526C214.473 77.4893 214.059 77.4046 213.64 77.4033C212.592 77.4033 212.107 77.9333 212.107 79.1147C212.107 80.2961 212.577 80.8366 213.64 80.8366Z" fill="#1754A3"/>
<path d="M219.001 81.2113H218.521L218.019 79.9126H216.218L215.719 81.2113H215.23L216.893 77.0449H217.344L219.001 81.2113ZM217.85 79.4811L217.12 77.5749L216.388 79.4811H217.85Z" fill="#1754A3"/>
<path d="M34.4729 67.8221C34.4729 69.198 34.0644 70.5429 33.2992 71.6869C32.534 72.8309 31.4464 73.7226 30.1739 74.2491C28.9014 74.7757 27.5012 74.9134 26.1503 74.645C24.7994 74.3766 23.5586 73.714 22.5846 72.7411C21.6107 71.7682 20.9474 70.5287 20.6787 69.1792C20.41 67.8298 20.5479 66.4311 21.075 65.1599C21.6021 63.8888 22.4947 62.8023 23.6399 62.0379C24.7851 61.2735 26.1316 60.8655 27.5089 60.8655C29.3559 60.8655 31.1272 61.5984 32.4332 62.903C33.7392 64.2076 34.4729 65.9771 34.4729 67.8221Z" fill="#1754A3"/>
<defs>
<linearGradient id="paint0_linear_860_3" x1="57.2669" y1="50.9071" x2="-7.35181" y2="86.8878" gradientUnits="userSpaceOnUse">
<stop stop-color="#2CABCC"/>
<stop offset="1" stop-color="#1754A3"/>
</linearGradient>
</defs>
</svg>
