<svg width="238" height="120" viewBox="0 0 238 120" fill="none" xmlns="http://www.w3.org/2000/svg">
<path d="M117.721 19.6823C114.202 19.695 110.691 19.9993 107.222 20.5921C109.094 18.2075 111.485 16.2808 114.214 14.9584C116.943 13.636 119.939 12.9528 122.972 12.9608C127.692 12.9608 132.413 14.7386 135.588 17.3843C136.162 17.861 136.603 17.9045 137.045 17.4697C137.486 17.035 137.441 16.6033 136.956 16.0397C132.809 11.2264 126.721 7.97517 119.531 8.10404C110.133 8.27794 102.149 14.2184 99.1038 22.4569C96.3247 23.3233 93.7663 24.3651 91.5157 25.6212C90.8939 25.969 90.6779 26.3975 90.8939 26.9223C91.1146 27.399 91.5561 27.5729 92.1731 27.399C94.1145 26.8354 96.0993 26.3587 98.1728 25.9255C97.9413 27.038 97.8226 28.171 97.8184 29.3072C97.6428 36.8951 101.704 44.0933 107.965 48.0386C108.587 48.4298 109.112 48.4298 109.465 47.9516C109.818 47.4734 109.776 47.0418 109.244 46.5651C105.279 43.0064 103.075 37.7273 103.075 32.4731C103.063 29.8929 103.588 27.3383 104.619 24.9722C106.692 24.7983 108.943 24.6617 111.412 24.6617C127.472 24.6617 141.014 29.9516 141.014 36.8889C141.014 40.401 136.56 43.9131 131.266 46.2546C129.985 46.8182 129.853 47.2095 130.022 47.7731C130.198 48.2932 130.771 48.4656 131.434 48.2497C140.699 45.2143 147.713 40.2287 147.713 34.2012C147.713 26.0063 134.478 19.676 117.715 19.676" fill="#CA1525"/>
<path d="M124.202 43.1944L119.447 45.9271V62.2177H124.533C124.76 62.2177 124.977 62.1277 125.137 61.9676C125.298 61.8074 125.388 61.5902 125.388 61.3637V43.8078C125.388 43.1355 124.738 42.8901 124.202 43.1867V43.1944Z" fill="#CA1525"/>
<path d="M118.108 46.6973L114.852 48.5698C114.677 48.6604 114.533 48.7985 114.434 48.9681C114.335 49.1377 114.286 49.3317 114.294 49.5278V61.6696C114.294 61.8156 114.352 61.9554 114.456 62.0584C114.559 62.1614 114.699 62.2193 114.845 62.2193H118.11V46.6926L118.108 46.6973Z" fill="#CA1525"/>
<path d="M77.7066 76.1279C76.6823 76.1279 75.686 76.3562 75.0642 76.6683V70.3613C74.0096 70.7328 73.0211 71.2701 72.1359 71.9528C71.9361 72.0978 71.7763 72.2911 71.6717 72.5146C71.567 72.7381 71.5209 72.9845 71.5375 73.2306V88.7977C72.4701 89.1951 74.3819 89.5367 76.2004 89.5367C80.8074 89.5367 83.4513 86.7233 83.4513 82.6615C83.4513 78.6246 81.5753 76.1279 77.7081 76.1279H77.7066ZM114.733 73.2306V76.3267C114.129 76.1793 113.507 76.1125 112.885 76.1279C108.989 76.1279 106.345 78.7411 106.345 82.9177C106.345 87.1782 108.931 89.5367 112.969 89.5367C114.762 89.5536 116.546 89.2847 118.254 88.7402V70.3613C117.199 70.7328 116.211 71.2701 115.326 71.9528C115.126 72.0979 114.966 72.2913 114.862 72.5148C114.758 72.7383 114.712 72.9846 114.729 73.2306H114.733ZM98.9494 76.0782C97.6658 76.0533 96.3846 76.1964 95.1382 76.5037C94.9113 77.2986 94.9392 78.4631 95.1382 79.2876C96.1983 79.0242 97.2882 78.9 98.3805 78.9181C100.201 78.9181 101.082 79.6571 101.082 81.1617V81.3045C100.541 81.2471 99.8866 81.1912 99.4328 81.1912C96.4174 81.1912 93.8295 82.278 93.8295 85.1675C93.8295 88.4281 96.1609 89.5429 99.5462 89.5429C101.214 89.5242 102.871 89.2659 104.466 88.7759V81.4116C104.466 77.8902 102.56 76.1559 98.9494 76.072V76.0782ZM126.391 76.072C122.58 76.072 120.248 78.6277 120.248 82.8898C120.248 87.1518 122.723 89.5367 126.96 89.5367C128.41 89.5367 129.973 89.2805 130.97 88.7977C131.169 87.8997 131.169 86.9691 130.97 86.0712C129.661 86.4407 128.553 86.6674 127.33 86.6674C125.366 86.6674 124.002 85.9283 123.717 83.8555H131.738C131.851 83.545 131.879 82.4907 131.879 82.0653C131.879 78.2302 129.719 76.072 126.391 76.072ZM139.955 81.6104L138.541 81.0142C137.717 80.6726 137.234 80.3931 137.234 79.8497C137.234 79.0252 137.974 78.856 138.943 78.856C140.074 78.8567 141.197 79.0386 142.27 79.3947C142.441 78.5232 142.441 77.6268 142.27 76.7552C141.416 76.3003 139.825 76.0736 138.43 76.0736C135.701 76.0736 133.625 77.5502 133.625 79.7658C133.625 81.7548 134.478 82.7485 136.867 83.7142L137.977 84.1692C139.027 84.5946 139.341 84.8508 139.341 85.5324C139.341 86.5556 138.317 86.7249 137.464 86.7249C136.041 86.7249 134.961 86.4423 133.597 85.9594C133.37 86.8635 133.37 87.8097 133.597 88.7138C134.762 89.3349 136.355 89.5383 138.033 89.5383C140.734 89.5383 142.896 88.1176 142.896 85.5604C142.896 83.4581 141.985 82.4644 139.966 81.6119L139.955 81.6104ZM150.932 86.6364C149.169 86.6364 148.003 85.239 148.003 82.8013C148.003 80.4723 148.936 78.9662 150.957 78.9662C151.729 78.9602 152.494 79.1146 153.203 79.4196C153.461 78.5264 153.882 77.6888 154.446 76.9493C153.35 76.3888 152.269 76.0782 150.509 76.0782C146.612 76.0782 144.366 78.8327 144.366 82.8106C144.366 86.9298 146.67 89.5429 150.652 89.5429C152.102 89.5429 153.437 89.2868 154.519 88.6905C153.933 87.9507 153.48 87.1141 153.182 86.2187C152.476 86.5337 151.705 86.6768 150.932 86.6364ZM160.8 76.0782C156.848 76.0782 154.63 78.7768 154.63 82.8385C154.63 86.9578 156.961 89.5429 160.8 89.5429C164.782 89.5429 167 86.9034 167 82.8385C167 78.7473 164.782 76.0782 160.8 76.0782ZM92.4368 76.2475C90.7581 76.2475 89.7945 76.9012 88.8821 78.0656C88.8061 77.4955 88.6754 76.934 88.4919 76.3888C88.15 76.2754 87.5594 76.2459 87.0418 76.2459C86.5639 76.2423 86.0871 76.2902 85.6196 76.3888V89.2573C86.0455 89.3706 86.7573 89.3985 87.3822 89.3985C87.9732 89.4034 88.5636 89.3562 89.1463 89.2573V82.9736C89.1463 80.4738 90.4535 79.1385 92.2161 79.1385C92.6061 79.129 92.9962 79.1482 93.3834 79.196C93.5867 78.262 93.6057 77.2974 93.4393 76.3562C93.1124 76.2846 92.7792 76.2461 92.4446 76.2413L92.4368 76.2475ZM123.725 81.2704C123.982 79.7068 124.92 78.7706 126.341 78.7706C127.934 78.7706 128.561 79.8497 128.617 81.2704H123.725ZM160.808 86.6954C158.846 86.6954 158.25 85.1054 158.25 82.8323C158.25 80.6167 158.846 78.9119 160.808 78.9119C162.829 78.9119 163.396 80.5592 163.396 82.8323C163.396 85.2188 162.741 86.6954 160.808 86.6954ZM114.74 86.4687C114.25 86.6115 113.742 86.6785 113.232 86.6674C110.9 86.6674 109.99 85.1334 109.99 82.9177C109.99 80.4459 110.9 78.9398 113.204 78.9398C113.723 78.9328 114.24 78.9997 114.74 79.1385V86.4687ZM76.3978 86.6674C76.0279 86.6674 75.4652 86.6674 75.0611 86.5246V79.4522C75.5445 79.196 76.2269 79.0547 77.1082 79.0547C78.8723 79.0547 79.8096 80.2751 79.8096 82.5761C79.8096 84.9905 78.7013 86.6674 76.3978 86.6674ZM99.5742 86.7808C97.953 86.7808 97.0718 86.2979 97.0718 85.1613C97.0718 84.0248 97.953 83.5714 99.5742 83.5714C100.115 83.5714 100.74 83.6273 101.082 83.6552V86.6364C100.584 86.7222 100.08 86.7694 99.5742 86.7776" fill="#CA1525"/>
<path d="M95.3606 110.496C95.3008 110.265 95.2721 110.028 95.2751 109.79C95.2695 109.551 95.2983 109.313 95.3606 109.083C96.3199 109.479 97.3475 109.682 98.3853 109.682C99.4142 109.682 100.485 109.297 100.485 108.162C100.485 107.327 100.019 106.877 98.7925 106.341L97.9982 105.998C96.1113 105.184 95.5331 104.393 95.5331 103.022C95.5331 101.415 97.162 100.323 99.0925 100.323C100.143 100.323 101.236 100.536 101.837 100.837C101.88 101.048 101.902 101.263 101.901 101.478C101.901 101.722 101.879 101.966 101.837 102.206C101.033 101.914 100.183 101.762 99.3272 101.758C98.2563 101.758 97.291 102.079 97.291 103.063C97.291 103.857 97.849 104.15 98.878 104.627L99.9069 105.093C101.516 105.821 102.265 106.698 102.265 108.176C102.265 109.976 100.636 111.111 98.62 111.111C97.2211 111.111 96.1766 110.897 95.3559 110.49L95.3606 110.496Z" fill="#CA1525"/>
<path d="M109.727 109.532V105.998C109.129 105.912 108.525 105.875 107.921 105.889C106.078 105.889 105.134 106.425 105.134 107.752C105.134 109.038 106.034 109.745 107.707 109.745C108.386 109.738 109.062 109.666 109.727 109.53V109.532ZM111.4 104.563V110.603C110.187 110.953 108.932 111.134 107.669 111.139C105.246 111.139 103.488 110.111 103.488 107.798C103.488 105.779 105.117 104.605 107.798 104.605C108.444 104.597 109.089 104.64 109.727 104.734V104.327C109.727 102.55 108.762 101.758 107.048 101.758C106.135 101.752 105.225 101.875 104.346 102.121C104.301 101.881 104.279 101.637 104.281 101.393C104.279 101.17 104.301 100.948 104.346 100.73C105.243 100.459 106.175 100.322 107.111 100.323C109.706 100.323 111.4 101.585 111.4 104.563Z" fill="#CA1525"/>
<path d="M116.382 98.9024L118.825 96.2893C119.137 96.239 119.453 96.2105 119.769 96.2039C120.099 96.2096 120.429 96.2381 120.756 96.2893L117.947 98.9024C117.69 98.9463 117.43 98.9676 117.17 98.966C116.904 98.9665 116.639 98.9452 116.377 98.9024H116.382ZM113.337 106.335V100.494C113.641 100.44 113.95 100.411 114.259 100.408C114.547 100.411 114.834 100.44 115.117 100.494V106.278C115.117 108.607 116.167 109.683 118.162 109.683C118.901 109.686 119.638 109.599 120.356 109.425V100.494C120.653 100.44 120.954 100.411 121.256 100.408C121.551 100.411 121.846 100.44 122.136 100.494V110.518C120.81 110.895 119.44 111.097 118.062 111.117C115.017 111.117 113.345 109.512 113.345 106.341L113.337 106.335Z" fill="#CA1525"/>
<path d="M130.902 109.425V101.972C130.307 101.821 129.695 101.749 129.081 101.758C126.999 101.758 125.629 103.129 125.629 105.891C125.629 108.29 126.829 109.704 128.952 109.704C129.611 109.698 130.267 109.604 130.902 109.425ZM123.827 105.889C123.827 102.463 125.885 100.321 128.994 100.321C129.636 100.315 130.277 100.386 130.902 100.534V97.1742C130.891 97.0286 130.915 96.8825 130.971 96.7477C131.027 96.6128 131.113 96.493 131.224 96.3978C131.665 96.0527 132.157 95.7782 132.682 95.5842V110.49C131.458 110.901 130.178 111.118 128.886 111.133C125.843 111.133 123.827 109.311 123.827 105.885V105.889Z" fill="#CA1525"/>
<path d="M141.416 104.778C141.416 102.978 140.536 101.692 138.949 101.692C137.449 101.692 136.27 102.849 136.121 104.778H141.416ZM143.023 106.105H136.099C136.206 108.333 137.384 109.704 139.529 109.704C140.53 109.692 141.522 109.519 142.467 109.19C142.552 109.643 142.552 110.108 142.467 110.561C141.738 110.881 140.558 111.117 139.4 111.117C136.228 111.117 134.383 109.061 134.383 105.762C134.383 102.501 136.163 100.328 138.971 100.328C141.416 100.328 143.089 102.104 143.089 104.953C143.09 105.34 143.068 105.726 143.023 106.11V106.105Z" fill="#CA1525"/>
</svg>
