<svg width="238" height="120" viewBox="0 0 238 120" fill="none" xmlns="http://www.w3.org/2000/svg">
<path d="M58.4582 37.9053C62.1358 39.8444 65.1211 42.8724 67.0038 46.573C68.9267 50.3152 69.8882 54.7362 69.8882 59.8359C69.8882 64.9356 68.9267 69.3566 67.0038 73.0988C65.1211 76.7994 62.1358 79.8273 58.4582 81.7664C54.6885 83.8011 50.1277 84.8185 44.7758 84.8185H25.6416V34.8533H44.7758C50.1277 34.8533 54.6885 35.8706 58.4582 37.9053ZM56.0397 72.3627C58.7135 69.4843 60.0497 65.3087 60.0482 59.8359C60.0468 54.3631 58.7106 50.1875 56.0397 47.3091C53.366 44.4306 49.5674 42.9921 44.6442 42.9936H35.1515V76.6782H44.6442C49.5617 76.6782 53.3602 75.2397 56.0397 72.3627Z" fill="#111C4E"/>
<path d="M99.1886 34.8533H118.323V84.8185H99.1886C93.8454 84.8185 89.2853 83.8011 85.5084 81.7664C81.832 79.8271 78.8481 76.7991 76.9671 73.0988C75.0398 69.358 74.0762 64.937 74.0762 59.8359C74.0762 54.7348 75.0398 50.3138 76.9671 46.573C78.8498 42.8717 81.8361 39.8436 85.5148 37.9053C89.2846 35.8692 93.8425 34.8518 99.1886 34.8533ZM99.331 76.6782H108.824V42.9936H99.331C94.4049 42.9936 90.6064 44.4321 87.9355 47.3091C85.2646 50.1861 83.927 54.3617 83.9227 59.8359C83.9227 65.3087 85.2595 69.4843 87.9333 72.3627C90.6071 75.2411 94.4056 76.6796 99.3288 76.6782H99.331Z" fill="#111C4E"/>
<path d="M192.865 34.8533H212V84.8185H192.865C187.519 84.8185 182.958 83.8011 179.183 81.7664C175.505 79.8273 172.52 76.7994 170.637 73.0988C168.716 69.358 167.754 64.937 167.753 59.8359C167.751 54.7348 168.713 50.3138 170.637 46.573C172.52 42.8724 175.505 39.8444 179.183 37.9053C182.953 35.8692 187.514 34.8518 192.865 34.8533ZM193.006 76.6782H202.498V42.9936H193.006C188.082 42.9936 184.284 44.4321 181.61 47.3091C178.936 50.1861 177.6 54.3617 177.602 59.8359C177.602 65.3087 178.938 69.4843 181.61 72.3627C184.282 75.2411 188.081 76.6796 193.006 76.6782Z" fill="#111C4E"/>
<path d="M147.18 73.0988C149.103 69.3565 150.064 64.9356 150.064 59.8359C150.064 54.3631 151.4 50.1875 154.073 47.3091C156.745 44.4306 160.544 42.9921 165.468 42.9936H167.263V34.8533H165.322C159.975 34.8533 155.415 35.8706 151.639 37.9053C147.961 39.8438 144.976 42.8719 143.094 46.573C141.175 50.3166 140.216 54.7376 140.216 59.8359C140.216 65.3086 138.879 69.4843 136.207 72.3627C133.535 75.2411 129.736 76.6761 124.812 76.6674H123.017V84.8077H124.958C130.304 84.8077 134.864 83.7904 138.639 81.7557C142.313 79.8191 145.297 76.7951 147.18 73.0988Z" fill="#111C4E"/>
</svg>
