<svg width="238" height="120" viewBox="0 0 238 120" fill="none" xmlns="http://www.w3.org/2000/svg">
<path d="M78.9823 54.3244C78.0304 54.3244 77.0999 54.0421 76.3085 53.5132C75.5171 52.9844 74.9002 52.2327 74.5361 51.3532C74.1719 50.4738 74.0767 49.5061 74.2625 48.5725C74.4484 47.639 74.9069 46.7815 75.5801 46.1086C76.2533 45.4356 77.1109 44.9774 78.0445 44.792C78.9782 44.6065 79.9458 44.702 80.8251 45.0666C81.7044 45.4311 82.4559 46.0482 82.9845 46.8398C83.513 47.6314 83.795 48.562 83.7946 49.5139C83.7927 50.7894 83.285 52.0122 82.3828 52.9139C81.4807 53.8157 80.2578 54.3229 78.9823 54.3244ZM78.9823 46.8828C78.4619 46.8828 77.9532 47.0371 77.5205 47.3262C77.0878 47.6153 76.7506 48.0262 76.5515 48.507C76.3523 48.9878 76.3002 49.5168 76.4017 50.0272C76.5033 50.5376 76.7538 51.0064 77.1218 51.3743C77.4898 51.7423 77.9586 51.9929 78.469 52.0944C78.9793 52.1959 79.5084 52.1438 79.9891 51.9447C80.4699 51.7456 80.8808 51.4083 81.1699 50.9756C81.459 50.543 81.6134 50.0343 81.6134 49.5139C81.6129 48.8162 81.3355 48.1473 80.8422 47.654C80.3489 47.1606 79.6799 46.8833 78.9823 46.8828Z" fill="#7BC5E4"/>
<path d="M36.2348 82.7484C35.3685 83.1431 34.4045 83.2718 33.4649 83.1185C32.5253 82.9651 31.6523 82.5365 30.9564 81.8869C30.2604 81.2373 29.7728 80.3959 29.5552 79.4691C29.3375 78.5423 29.3997 77.5717 29.7338 76.6803C30.0678 75.7888 30.6588 75.0164 31.432 74.4609C32.2051 73.9054 33.1256 73.5916 34.0771 73.5594C35.0286 73.5272 35.9682 73.7779 36.7772 74.2798C37.5862 74.7817 38.2281 75.5123 38.6217 76.3791C39.1471 77.5406 39.1909 78.8629 38.7435 80.0567C38.2962 81.2504 37.3942 82.2182 36.2348 82.7484ZM33.1649 75.9697C32.6917 76.1853 32.293 76.5363 32.0191 76.9783C31.7452 77.4204 31.6085 77.9337 31.6262 78.4535C31.6439 78.9732 31.8152 79.476 32.1185 79.8984C32.4218 80.3209 32.8434 80.644 33.3302 80.8269C33.817 81.0098 34.3471 81.0444 34.8535 80.9263C35.36 80.8081 35.82 80.5425 36.1756 80.1631C36.5312 79.7836 36.7664 79.3073 36.8514 78.7943C36.9365 78.2812 36.8676 77.7545 36.6535 77.2806C36.5105 76.9654 36.3069 76.6815 36.0542 76.445C35.8015 76.2086 35.5047 76.0242 35.1808 75.9025C34.8568 75.7807 34.5121 75.724 34.1662 75.7355C33.8203 75.7471 33.4801 75.8266 33.1649 75.9697Z" fill="#23326A"/>
<path d="M62.8488 62.4728C62.8121 62.0395 62.7405 60.9581 60.9742 60.9581C59.711 60.9581 59.2777 61.7513 59.2777 62.2929C59.2777 63.1944 60.7575 63.8076 62.3439 64.2758C65.7351 65.2086 69.3357 66.2184 69.3357 70.5515C69.3357 74.9581 65.6213 77.5488 61.1835 77.5488C58.154 77.5488 53.573 76.1791 53.0332 70.9132H58.9839C59.2373 72.7493 61.0036 72.7493 61.257 72.7493C62.2668 72.7493 63.3482 72.1709 63.3482 71.1978C63.3482 69.8263 61.8794 69.6464 58.0457 68.1683C55.4495 67.3384 53.2847 65.6437 53.2847 62.9374C53.2847 58.7897 56.8926 56.1567 61.0403 56.1567C63.6732 56.1567 68.2175 57.2033 68.7224 62.4691L62.8488 62.4728Z" fill="#4FA9DC"/>
<path d="M90.9863 56.8396H96.5772V58.9676C97.262 57.9945 98.5252 56.1548 102.096 56.1548C108.84 56.1548 109.525 61.6373 109.525 64.3418V76.8583H103.538V65.93C103.538 63.7267 103.07 61.7823 100.4 61.7823C97.4419 61.7823 96.9738 63.9103 96.9738 65.9649V76.8583H90.9863V56.8396Z" fill="#4FA9DC"/>
<path d="M136.611 76.8583H130.624V74.6936C129.543 76.6417 127.053 77.5432 124.71 77.5432C118.361 77.5432 114.646 72.5656 114.646 66.8315C114.646 60.2657 119.371 56.1548 124.71 56.1548C127.991 56.1548 129.831 57.743 130.624 58.9676V56.8396H136.611V76.8583ZM120.638 66.9435C120.638 68.7796 122.007 71.956 125.615 71.956C127.743 71.956 129.041 70.9462 129.8 69.7197C130.283 68.9482 130.568 68.0688 130.628 67.1602C130.696 66.2533 130.522 65.3446 130.123 64.5273C129.475 63.1557 128.103 61.7493 125.578 61.7493C122.152 61.7493 120.638 64.6356 120.638 66.9068V66.9435Z" fill="#4FA9DC"/>
<path d="M142.779 56.8398H148.405V59.043C149.703 57.5283 151.688 56.1567 154.754 56.1567C161.86 56.1567 164.528 62.3994 164.528 67.0501C164.528 72.8209 160.488 77.5451 154.796 77.5451C151.19 77.5451 149.496 75.8137 148.774 75.0572V83.5326H142.779V56.8398ZM158.54 66.8317C158.54 64.487 156.809 61.7457 153.528 61.7457C152.855 61.7402 152.188 61.8717 151.568 62.1321C150.948 62.3925 150.387 62.7764 149.92 63.2605C149 64.249 148.497 65.5534 148.513 66.9033C148.505 67.5657 148.629 68.2231 148.877 68.8372C149.126 69.4513 149.495 70.0096 149.961 70.4797C150.428 70.9498 150.984 71.3221 151.596 71.575C152.209 71.8278 152.865 71.9562 153.528 71.9525C156.665 71.9525 158.54 69.393 158.54 66.8665V66.8317Z" fill="#4FA9DC"/>
<path d="M178.23 62.4727C178.193 62.0394 178.122 60.9579 176.355 60.9579C175.092 60.9579 174.659 61.7511 174.659 62.2928C174.659 63.1943 176.139 63.8075 177.725 64.2757C181.116 65.214 184.722 66.2238 184.722 70.5514C184.722 74.958 181.008 77.5487 176.57 77.5487C173.541 77.5487 168.962 76.179 168.42 70.9131H174.371C174.624 72.7492 176.39 72.7492 176.644 72.7492C177.654 72.7492 178.735 72.1708 178.735 71.1977C178.735 69.8262 177.257 69.6462 173.432 68.1682C170.836 67.3365 168.666 65.6418 168.666 62.9354C168.666 58.7877 172.274 56.1548 176.422 56.1548C179.054 56.1548 183.599 57.2013 184.104 62.4672L178.23 62.4727Z" fill="#4FA9DC"/>
<path d="M194.425 68.9228C194.677 71.0508 196.697 72.4572 199.041 72.4572C200.953 72.4572 201.962 71.6292 202.684 70.5826H208.817C207.842 72.819 206.43 74.5504 204.74 75.7034C203.079 76.8866 201.088 77.518 199.049 77.5083C196.238 77.5034 193.543 76.3845 191.556 74.3966C189.568 72.4088 188.45 69.7141 188.445 66.9031C188.445 61.3123 192.852 56.1548 198.94 56.1548C202.007 56.1548 204.632 57.3446 206.514 59.3293C209.041 62.0339 209.797 65.2452 209.329 68.9228H194.425ZM203.442 64.3785C203.297 63.4403 202.071 61.204 198.97 61.204C195.869 61.204 194.64 63.4403 194.497 64.3785H203.442Z" fill="#4FA9DC"/>
<path d="M49.9757 91.0438C45.696 89.8231 41.6778 87.8246 38.1221 85.1482L41.3554 80.8481C44.3842 83.1291 47.8075 84.832 51.4538 85.8716L49.9757 91.0438Z" fill="#23326A"/>
<path d="M59.9106 92.4337C56.5504 92.4351 53.2064 91.9672 49.9756 91.0438L51.4536 85.8716C58.4864 87.8779 66.0031 87.3215 72.6639 84.3017C74.2218 83.596 75.7189 82.7632 77.1402 81.812L80.1349 86.281C78.4679 87.396 76.7122 88.3724 74.8856 89.2004C70.1809 91.3316 65.0754 92.4339 59.9106 92.4337Z" fill="#40478E"/>
<path d="M53.5099 28.4101C54.1829 27.7369 55.0403 27.2784 55.9739 27.0926C56.9074 26.9068 57.8751 27.002 58.7546 27.3662C59.634 27.7303 60.3857 28.3472 60.9146 29.1386C61.4434 29.93 61.7257 30.8605 61.7257 31.8123C61.7257 32.7642 61.4434 33.6947 60.9146 34.4861C60.3857 35.2775 59.634 35.8943 58.7546 36.2585C57.8751 36.6227 56.9074 36.7179 55.9739 36.5321C55.0403 36.3463 54.1829 35.8878 53.5099 35.2146C52.6087 34.3117 52.1025 33.0881 52.1025 31.8123C52.1025 30.5366 52.6087 29.313 53.5099 28.4101ZM58.7721 33.6723C59.1402 33.3044 59.3909 32.8356 59.4926 32.3251C59.5942 31.8147 59.5422 31.2856 59.3431 30.8048C59.144 30.3239 58.8068 29.9129 58.3741 29.6237C57.9414 29.3346 57.4326 29.1802 56.9122 29.1802C56.3917 29.1802 55.883 29.3346 55.4503 29.6237C55.0175 29.9129 54.6803 30.3239 54.4812 30.8048C54.2821 31.2856 54.2301 31.8147 54.3317 32.3251C54.4334 32.8356 54.6841 33.3044 55.0522 33.6723C55.5461 34.1645 56.2149 34.4409 56.9122 34.4409C57.6094 34.4409 58.2782 34.1645 58.7721 33.6723Z" fill="#52B8AB"/>
<path d="M38.1829 47.118L33.7764 44.0444C37.5301 38.6293 42.8551 34.4964 49.0323 32.2036L50.9069 37.2455C45.7546 39.1556 41.3131 42.6018 38.1829 47.118Z" fill="#52B8AB"/>
<path d="M33.3797 62.4621H28.0001C27.9871 55.8765 30.0005 49.4465 33.7672 44.0444L38.1737 47.118C35.0388 51.6195 33.3651 56.9766 33.3797 62.4621Z" fill="#02AA95"/>
<path d="M75.9893 56.8398H81.9767V76.9081H75.9893V56.8398Z" fill="#4FA9DC"/>
<path d="M64.2133 39.6856C57.9269 39.6813 51.8595 41.994 47.1709 46.1816L50.8779 50.3348C53.644 47.8698 57.0389 46.2192 60.6859 45.5662C64.333 44.9131 68.0896 45.2831 71.5392 46.6351L73.5773 41.4555C70.5952 40.2814 67.4182 39.6809 64.2133 39.6856Z" fill="#7BC5E4"/>
<path d="M44.1811 65.2855H38.6123C38.6147 61.6783 39.3782 58.1122 40.8528 54.8202C42.3275 51.5282 44.4802 48.5844 47.1702 46.1812L50.8773 50.3343C48.7721 52.2151 47.0875 54.519 45.9336 57.0953C44.7798 59.6717 44.1826 62.4625 44.1811 65.2855Z" fill="#4FA9DC"/>
</svg>
