<svg width="321" height="150" viewBox="0 0 321 150" fill="none" xmlns="http://www.w3.org/2000/svg">
<path fill-rule="evenodd" clip-rule="evenodd" d="M222.422 85.6448L211.77 77.9088H219.167C221.914 77.8506 224.061 76.065 224.061 73.8022C224.061 72.5218 223.361 71.3578 222.18 70.5849L163.491 28.8716C162.506 28.2217 161.35 27.8752 160.169 27.8752C158.988 27.8752 157.833 28.2217 156.847 28.8716L98.0025 70.6919C96.3012 71.9002 95.7955 73.9092 96.779 75.5808C97.6109 77.0125 99.3565 77.9088 101.316 77.9088H108.562L97.7554 85.7612C96.0542 86.9973 95.5485 89.0646 96.5319 90.7873C97.3639 92.2516 99.1164 93.1642 101.093 93.1642H219.39C222.161 93.1014 224.303 91.2762 224.303 88.9482C224.303 87.6399 223.615 86.4409 222.422 85.6448ZM101.316 73.8022C101.175 73.8027 101.034 73.7855 100.897 73.7509L159.392 32.1843C159.624 32.0407 159.893 31.9701 160.166 31.9818C160.439 31.9712 160.709 32.0417 160.942 32.1843L219.437 73.7509C219.309 73.7825 219.177 73.7997 219.045 73.8022H101.316Z" fill="#ED7D22"/>
<path fill-rule="evenodd" clip-rule="evenodd" d="M163.498 42.863C162.517 42.1896 161.355 41.8291 160.165 41.8291C158.974 41.8291 157.812 42.1896 156.831 42.863L114.23 73.8022H206.109L163.498 42.863Z" fill="#034557"/>
<path fill-rule="evenodd" clip-rule="evenodd" d="M275.979 114.668H280.936L278.445 105.866L275.979 114.668ZM270.036 120.488C270.044 120.385 270.063 120.283 270.092 120.183L275.629 102.174C275.702 101.981 275.815 101.806 275.961 101.662C276.108 101.517 276.284 101.406 276.478 101.336C276.964 101.131 277.487 101.031 278.014 101.04C278.546 101.03 279.073 101.143 279.554 101.371C279.758 101.452 279.941 101.578 280.09 101.739C280.239 101.9 280.351 102.092 280.416 102.302L285.942 120.3C285.972 120.391 285.991 120.485 286 120.581C286 121.003 285.746 121.363 285.226 121.673C284.756 121.969 284.212 122.131 283.656 122.139C282.956 122.139 282.525 121.892 282.388 121.394L281.302 117.59H275.159L274.094 121.394C273.942 121.892 273.471 122.139 272.677 122.139C272.05 122.14 271.433 121.98 270.887 121.673C270.316 121.347 270.034 120.949 270.034 120.488H270.036ZM255.951 118.859C255.967 118.372 256.142 117.904 256.45 117.527C256.782 117.08 257.159 116.856 257.58 116.856C257.893 116.879 258.19 117.003 258.426 117.21C258.749 117.452 259.056 117.715 259.344 117.997C259.718 118.335 260.15 118.602 260.619 118.786C261.199 119.029 261.822 119.149 262.451 119.14C263.262 119.171 264.063 118.951 264.746 118.512C265.048 118.308 265.291 118.029 265.452 117.702C265.613 117.375 265.686 117.013 265.664 116.649C265.671 116.098 265.496 115.559 265.166 115.117C264.809 114.655 264.357 114.276 263.84 114.005C263.259 113.687 262.663 113.4 262.052 113.146C261.403 112.868 260.749 112.557 260.092 112.214C259.454 111.883 258.848 111.493 258.281 111.05C257.714 110.587 257.263 109.997 256.965 109.328C256.617 108.508 256.448 107.624 256.468 106.735C256.488 105.845 256.697 104.969 257.081 104.166C257.456 103.42 258.025 102.787 258.729 102.337C259.412 101.906 260.157 101.582 260.938 101.375C261.752 101.169 262.589 101.068 263.429 101.073C263.956 101.075 264.483 101.112 265.005 101.182C265.598 101.256 266.185 101.366 266.764 101.513C267.32 101.636 267.84 101.886 268.284 102.244C268.464 102.383 268.61 102.562 268.711 102.766C268.813 102.97 268.868 103.194 268.871 103.421C268.86 103.889 268.722 104.344 268.473 104.739C268.374 104.946 268.219 105.121 268.026 105.244C267.833 105.368 267.609 105.435 267.38 105.438C267.214 105.438 266.743 105.256 265.981 104.895C265.185 104.52 264.314 104.332 263.434 104.346C262.397 104.346 261.6 104.539 261.038 104.937C260.793 105.104 260.589 105.326 260.444 105.584C260.298 105.843 260.215 106.132 260.2 106.428C260.185 106.725 260.239 107.02 260.358 107.292C260.477 107.564 260.657 107.805 260.884 107.996C261.384 108.434 261.961 108.775 262.586 109.002C263.338 109.286 264.074 109.609 264.793 109.97C265.558 110.343 266.295 110.77 267 111.248C267.725 111.76 268.312 112.444 268.708 113.239C269.188 114.18 269.428 115.225 269.407 116.281C269.407 118.242 268.78 119.752 267.526 120.814C266.273 121.876 264.619 122.403 262.565 122.395C260.747 122.395 259.193 122.021 257.904 121.273C256.592 120.532 255.949 119.72 255.949 118.847L255.951 118.859ZM244.543 114.668H249.502L247.002 105.866L244.543 114.668ZM238.593 120.488C238.606 120.385 238.626 120.283 238.652 120.183L244.196 102.174C244.266 101.981 244.378 101.806 244.523 101.661C244.668 101.516 244.844 101.405 245.037 101.336C245.522 101.132 246.045 101.031 246.571 101.04C247.106 101.03 247.636 101.143 248.12 101.371C248.323 101.454 248.505 101.58 248.654 101.741C248.802 101.902 248.914 102.093 248.98 102.302L254.508 120.3C254.534 120.392 254.554 120.486 254.567 120.581C254.567 121.003 254.306 121.363 253.79 121.673C253.318 121.969 252.773 122.13 252.215 122.139C251.516 122.139 251.092 121.892 250.954 121.394L249.878 117.587H243.725L242.653 121.391C242.502 121.89 242.024 122.136 241.227 122.136C240.601 122.136 239.986 121.976 239.439 121.671C238.88 121.347 238.591 120.949 238.591 120.488H238.593ZM224.538 115.753V107.77C224.538 105.515 225.15 103.859 226.375 102.802C227.601 101.738 229.192 101.212 231.159 101.212C233.166 101.212 234.802 101.703 236.077 102.702C236.688 103.161 237.18 103.76 237.511 104.449C237.842 105.138 238.002 105.896 237.978 106.66C237.978 107.358 237.834 107.842 237.552 108.105C237.27 108.369 236.785 108.487 236.118 108.487C234.896 108.487 234.274 108.099 234.254 107.323C234.24 107.076 234.21 106.858 234.189 106.681C234.139 106.433 234.061 106.193 233.956 105.964C233.847 105.69 233.689 105.438 233.49 105.221C233.247 104.985 232.954 104.808 232.632 104.702C232.2 104.549 231.743 104.476 231.285 104.485C229.281 104.485 228.277 105.584 228.274 107.782V115.765C228.274 117.962 229.297 119.054 231.343 119.054C231.866 119.07 232.387 118.974 232.87 118.772C233.252 118.608 233.566 118.319 233.762 117.953C233.922 117.653 234.048 117.336 234.138 117.008C234.212 116.675 234.253 116.336 234.261 115.995C234.319 115.215 234.935 114.831 236.1 114.831C236.764 114.831 237.251 114.952 237.547 115.213C237.843 115.474 237.987 115.951 237.987 116.659C237.987 118.375 237.354 119.749 236.086 120.781C234.811 121.815 233.168 122.33 231.141 122.33C229.172 122.33 227.583 121.799 226.372 120.737C225.162 119.676 224.55 118.014 224.536 115.753H224.538ZM205.132 120.965V102.355C205.129 102.175 205.179 101.997 205.275 101.844C205.371 101.691 205.509 101.57 205.673 101.494C206.088 101.308 206.537 101.212 206.991 101.212C207.445 101.212 207.894 101.308 208.309 101.494C208.473 101.569 208.612 101.691 208.709 101.844C208.805 101.997 208.855 102.175 208.852 102.355V118.884H215.843C216.012 118.88 216.179 118.923 216.325 119.009C216.471 119.094 216.59 119.219 216.668 119.368C216.866 119.718 216.97 120.113 216.97 120.515C216.97 120.917 216.866 121.312 216.668 121.661C216.591 121.809 216.474 121.932 216.331 122.017C216.188 122.103 216.024 122.147 215.857 122.146H206.764C206.36 122.155 205.962 122.047 205.619 121.834C205.468 121.746 205.342 121.619 205.257 121.466C205.171 121.313 205.128 121.14 205.132 120.965ZM192.69 114.668H197.647L195.165 105.866L192.69 114.668ZM186.747 120.488C186.759 120.385 186.778 120.283 186.805 120.183L192.34 102.174C192.413 101.981 192.526 101.807 192.673 101.662C192.819 101.517 192.995 101.406 193.189 101.336C193.674 101.132 194.196 101.032 194.722 101.04C195.257 101.03 195.787 101.143 196.272 101.371C196.475 101.452 196.657 101.578 196.804 101.739C196.952 101.901 197.061 102.093 197.125 102.302L202.671 120.3C202.696 120.392 202.715 120.486 202.727 120.581C202.727 121.003 202.466 121.363 201.954 121.673C201.48 121.968 200.934 122.129 200.376 122.139C199.665 122.139 199.248 121.892 199.117 121.394L198.024 117.59H191.886L190.814 121.394C190.662 121.892 190.192 122.139 189.395 122.139C188.769 122.14 188.154 121.979 187.609 121.673C187.036 121.347 186.754 120.949 186.754 120.488H186.747ZM173.806 102.823C173.798 102.427 173.903 102.036 174.109 101.696C174.196 101.543 174.324 101.416 174.479 101.331C174.633 101.245 174.809 101.204 174.985 101.212H187.104C187.28 101.205 187.455 101.246 187.61 101.332C187.764 101.417 187.892 101.543 187.98 101.696C188.181 102.045 188.285 102.441 188.283 102.844C188.28 103.246 188.171 103.641 187.966 103.987C187.879 104.138 187.753 104.262 187.601 104.347C187.449 104.433 187.278 104.477 187.104 104.474H182.925V120.958C182.924 121.141 182.87 121.319 182.771 121.472C182.672 121.626 182.532 121.748 182.366 121.824C181.96 122.03 181.511 122.136 181.056 122.136C180.601 122.136 180.152 122.03 179.746 121.824C179.585 121.744 179.449 121.62 179.353 121.468C179.257 121.315 179.205 121.139 179.203 120.958V104.469H174.992C174.82 104.473 174.651 104.432 174.499 104.35C174.348 104.269 174.221 104.149 174.13 104.003C173.909 103.65 173.799 103.239 173.813 102.823H173.806ZM168.015 120.965V102.355C168.012 102.174 168.063 101.996 168.161 101.843C168.259 101.689 168.399 101.568 168.565 101.494C168.979 101.308 169.428 101.212 169.883 101.212C170.337 101.212 170.786 101.308 171.201 101.494C171.365 101.569 171.504 101.691 171.6 101.844C171.697 101.997 171.747 102.175 171.744 102.355V120.965C171.74 121.146 171.685 121.323 171.587 121.475C171.488 121.626 171.348 121.748 171.184 121.824C170.784 122.039 170.335 122.147 169.882 122.136C169.423 122.152 168.968 122.044 168.565 121.824C168.404 121.745 168.268 121.623 168.173 121.471C168.077 121.32 168.025 121.145 168.022 120.965H168.015ZM155.784 111.4H158.989C159.944 111.4 160.685 111.125 161.21 110.575C161.741 110.019 162 109.195 162 108.11V107.77C162 106.676 161.741 105.861 161.21 105.305C160.678 104.748 159.951 104.469 158.989 104.469H155.791L155.784 111.4ZM152.056 120.965V102.355C152.058 102.202 152.093 102.051 152.159 101.912C152.225 101.773 152.32 101.651 152.438 101.552C152.726 101.318 153.09 101.197 153.461 101.212H159.222C161.193 101.212 162.762 101.734 163.95 102.774C165.139 103.815 165.731 105.435 165.731 107.663V107.831C165.731 110.066 165.109 111.707 163.867 112.754C162.636 113.809 161.007 114.328 158.973 114.328H155.791V120.975C155.788 121.156 155.733 121.332 155.634 121.484C155.536 121.636 155.396 121.757 155.232 121.834C154.83 122.049 154.379 122.157 153.922 122.146C153.464 122.16 153.009 122.052 152.606 121.834C152.443 121.754 152.306 121.631 152.21 121.477C152.114 121.324 152.063 121.146 152.063 120.965H152.056ZM136.066 118.847C136.083 118.36 136.259 117.893 136.567 117.515C136.898 117.068 137.266 116.845 137.695 116.845C138.009 116.866 138.306 116.991 138.541 117.199C138.865 117.44 139.173 117.703 139.462 117.986C139.836 118.322 140.268 118.59 140.737 118.775C141.318 119.018 141.943 119.138 142.573 119.129C143.382 119.158 144.181 118.939 144.861 118.5C145.163 118.296 145.407 118.017 145.568 117.69C145.729 117.364 145.802 117.001 145.78 116.638C145.785 116.086 145.61 115.548 145.281 115.106C144.928 114.643 144.479 114.264 143.964 113.993C143.38 113.676 142.781 113.39 142.167 113.134C141.516 112.856 140.862 112.546 140.205 112.203C139.568 111.87 138.963 111.48 138.397 111.039C137.829 110.575 137.378 109.985 137.08 109.316C136.736 108.549 136.564 107.715 136.579 106.874C136.56 105.931 136.772 104.998 137.194 104.155C137.572 103.409 138.142 102.777 138.846 102.325C139.53 101.895 140.275 101.57 141.056 101.364C141.868 101.157 142.704 101.056 143.542 101.061C144.071 101.063 144.599 101.1 145.122 101.17C145.715 101.244 146.301 101.354 146.88 101.501C147.435 101.625 147.955 101.875 148.399 102.232C148.579 102.372 148.725 102.55 148.827 102.754C148.928 102.958 148.983 103.182 148.986 103.41C148.976 103.877 148.838 104.332 148.588 104.727C148.49 104.934 148.337 105.108 148.145 105.232C147.953 105.355 147.73 105.422 147.502 105.426C147.329 105.426 146.859 105.244 146.104 104.883C145.302 104.507 144.425 104.319 143.54 104.334C142.515 104.334 141.711 104.527 141.151 104.925C140.905 105.091 140.7 105.312 140.554 105.571C140.407 105.83 140.323 106.119 140.308 106.415C140.292 106.712 140.346 107.008 140.465 107.281C140.584 107.553 140.765 107.794 140.993 107.984C141.494 108.42 142.07 108.761 142.694 108.99C143.447 109.274 144.184 109.597 144.903 109.959C145.668 110.332 146.406 110.759 147.11 111.237C147.835 111.749 148.422 112.433 148.819 113.227C149.297 114.169 149.537 115.214 149.518 116.27C149.518 118.23 148.886 119.741 147.635 120.802C146.383 121.864 144.738 122.395 142.689 122.395C140.881 122.395 139.327 122.021 138.028 121.273C136.726 120.532 136.073 119.72 136.073 118.847H136.066ZM124.204 115.753C124.204 117.951 125.195 119.042 127.178 119.042C129.161 119.042 130.189 117.951 130.189 115.753V107.77C130.189 105.573 129.185 104.474 127.178 104.474C125.195 104.474 124.204 105.573 124.204 107.77V115.753ZM120.475 115.753V107.77C120.475 105.493 121.081 103.833 122.293 102.788C123.51 101.734 125.139 101.212 127.187 101.212C129.236 101.212 130.865 101.734 132.081 102.788C133.298 103.843 133.92 105.493 133.92 107.77V115.753C133.92 118.024 133.307 119.683 132.081 120.733C130.858 121.782 129.231 122.311 127.187 122.311C125.143 122.311 123.519 121.782 122.293 120.733C121.067 119.683 120.482 118.023 120.482 115.753H120.475ZM103.367 120.965V102.355C103.364 102.175 103.414 101.997 103.511 101.844C103.607 101.691 103.746 101.569 103.91 101.494C104.326 101.308 104.775 101.212 105.23 101.212C105.685 101.212 106.135 101.308 106.551 101.494C106.715 101.569 106.854 101.691 106.95 101.844C107.047 101.997 107.097 102.175 107.094 102.355V109.824H113.544V102.355C113.542 102.175 113.591 101.997 113.688 101.844C113.784 101.691 113.923 101.569 114.087 101.494C114.502 101.308 114.951 101.212 115.405 101.212C115.86 101.212 116.309 101.308 116.723 101.494C116.888 101.569 117.027 101.691 117.123 101.844C117.219 101.997 117.269 102.175 117.266 102.355V120.965C117.264 121.147 117.211 121.324 117.112 121.476C117.013 121.628 116.872 121.749 116.707 121.824C116.301 122.03 115.852 122.136 115.397 122.136C114.942 122.136 114.493 122.03 114.087 121.824C113.926 121.746 113.79 121.624 113.694 121.472C113.598 121.32 113.546 121.145 113.544 120.965V112.745H107.101V120.965C107.097 121.146 107.044 121.323 106.945 121.474C106.847 121.626 106.708 121.747 106.544 121.824C106.141 122.04 105.69 122.147 105.234 122.136C104.775 122.15 104.321 122.043 103.917 121.824C103.756 121.746 103.619 121.624 103.523 121.472C103.427 121.32 103.376 121.145 103.374 120.965H103.367ZM82.4489 120.965V102.374C82.4458 102.2 82.4891 102.029 82.5743 101.878C82.6595 101.726 82.7835 101.6 82.9336 101.513C83.2781 101.299 83.6775 101.192 84.0825 101.203H94.2807C94.4572 101.196 94.6323 101.237 94.7868 101.322C94.9414 101.408 95.0695 101.534 95.157 101.687C95.3619 102.025 95.4654 102.414 95.4553 102.809C95.4675 103.219 95.3589 103.624 95.143 103.973C95.0557 104.124 94.9298 104.248 94.7782 104.334C94.6266 104.419 94.4548 104.463 94.2807 104.46H86.1823V110.187H90.5333C90.7027 110.18 90.8708 110.218 91.0218 110.295C91.1727 110.372 91.3014 110.486 91.3956 110.627C91.6077 110.934 91.7185 111.301 91.7125 111.674C91.7157 112.028 91.61 112.374 91.4096 112.666C91.3128 112.808 91.1817 112.922 91.0284 112.999C90.8751 113.076 90.7047 113.113 90.5333 113.106H86.1823V118.861H94.2877C94.4616 118.857 94.6333 118.9 94.7849 118.985C94.9366 119.071 95.0626 119.195 95.15 119.345C95.3644 119.695 95.4729 120.099 95.4623 120.509C95.4712 120.903 95.3677 121.291 95.164 121.629C95.0764 121.782 94.9484 121.908 94.7938 121.994C94.6393 122.079 94.4642 122.12 94.2877 122.113H84.0895C83.6842 122.123 83.2848 122.015 82.9406 121.801C82.7943 121.716 82.6727 121.594 82.5877 121.447C82.5027 121.301 82.4573 121.135 82.4558 120.965H82.4489ZM69.552 118.87H72.5327C74.5369 118.87 75.5405 117.771 75.5436 115.574V107.77C75.553 105.569 74.5516 104.469 72.5396 104.469H69.559L69.552 118.87ZM65.8232 120.989V102.355C65.8304 102.194 65.8765 102.036 65.9577 101.897C66.0388 101.757 66.1526 101.639 66.2893 101.552C66.6308 101.316 67.0396 101.197 67.4545 101.212H72.528C74.5695 101.212 76.2032 101.734 77.422 102.788C78.6408 103.843 79.2514 105.493 79.2514 107.77V115.578C79.2514 117.85 78.6455 119.513 77.422 120.56C76.1985 121.608 74.5625 122.136 72.528 122.136H67.4662C67.0512 122.152 66.6425 122.032 66.3009 121.796C66.1641 121.711 66.0499 121.594 65.968 121.455C65.8861 121.316 65.8388 121.159 65.8302 120.998L65.8232 120.989ZM50.6378 120.961V102.374C50.6352 102.2 50.6787 102.029 50.7639 101.878C50.849 101.727 50.9728 101.601 51.1225 101.513C51.4698 101.301 51.8718 101.195 52.2784 101.21H62.479C62.6553 101.203 62.8303 101.245 62.9847 101.33C63.1392 101.415 63.2673 101.541 63.3552 101.694C63.5601 102.032 63.6651 102.421 63.6582 102.816C63.6675 103.227 63.5566 103.632 63.3389 103.98C63.252 104.131 63.1265 104.255 62.9753 104.341C62.8241 104.426 62.6527 104.47 62.479 104.467H54.3712V110.194H58.7292C58.8975 110.188 59.0643 110.226 59.2139 110.303C59.3636 110.38 59.4911 110.494 59.5845 110.634C59.7966 110.941 59.9074 111.308 59.9014 111.681C59.9047 112.035 59.7989 112.381 59.5985 112.673C59.5035 112.815 59.3737 112.93 59.2215 113.007C59.0692 113.084 58.8997 113.12 58.7292 113.113H54.3712V118.868H62.479C62.6525 118.864 62.8238 118.908 62.9751 118.993C63.1263 119.078 63.2519 119.202 63.3389 119.352C63.5557 119.701 63.6666 120.105 63.6582 120.516C63.6647 120.91 63.5597 121.298 63.3552 121.636C63.2673 121.789 63.1392 121.915 62.9847 122C62.8303 122.085 62.6553 122.127 62.479 122.12H52.2784C51.8732 122.13 51.4737 122.022 51.1295 121.808C50.9825 121.722 50.8605 121.599 50.7755 121.451C50.6905 121.303 50.6455 121.136 50.6448 120.965L50.6378 120.961ZM38.0369 110.575H41.1854C43.2338 110.575 44.2523 109.563 44.2523 107.537C44.2523 105.512 43.2338 104.469 41.1854 104.469H38.0369V110.575ZM34.3081 120.965V102.355C34.3081 102.205 34.3389 102.056 34.3986 101.918C34.4584 101.78 34.5457 101.655 34.6553 101.552C34.7671 101.44 34.9006 101.352 35.0477 101.293C35.1947 101.234 35.3523 101.206 35.5106 101.21H41.1854C45.7143 101.21 47.9795 103.203 47.981 107.191C47.981 108.757 47.6408 110.017 46.9603 110.971C46.3007 111.916 45.3339 112.603 44.2243 112.915L47.981 119.871C48.0825 120.005 48.1337 120.169 48.1255 120.337C48.1255 120.814 47.8738 121.268 47.3798 121.668C46.9423 122.052 46.3838 122.269 45.802 122.283C45.2451 122.283 44.8186 121.987 44.5133 121.394L40.4466 113.478H38.0369V120.956C38.0352 121.135 37.9834 121.311 37.8875 121.463C37.7916 121.614 37.6553 121.736 37.4939 121.815C37.0899 122.038 36.6337 122.149 36.1725 122.136C35.7163 122.147 35.2651 122.04 34.8628 121.824C34.6993 121.747 34.5607 121.626 34.4627 121.474C34.3647 121.322 34.3112 121.146 34.3081 120.965V120.965Z" fill="#034557"/>
</svg>
