<svg width="238" height="120" viewBox="0 0 238 120" fill="none" xmlns="http://www.w3.org/2000/svg">
<path d="M173.056 58.2249C172.634 58.263 172.195 58.2828 171.757 58.2828C169.279 58.2828 167.49 56.7756 165.904 55.3766C170.357 53.4752 173.309 49.17 173.309 43.8966C173.309 36.6852 167.922 31.3037 160.703 31.3037C153.555 31.3037 148.168 36.6852 148.168 43.8966C148.168 51.0364 153.519 56.3798 160.631 56.4179C162.46 57.4226 165.695 62.5164 171.405 62.5164C171.959 62.5159 172.512 62.486 173.062 62.4266L173.056 58.2249ZM153.081 43.8966C153.081 39.4117 156.282 36.0747 160.701 36.0747C165.191 36.0747 168.321 39.4117 168.321 43.8966C168.321 48.3114 165.197 51.6819 160.701 51.6819C156.278 51.6819 153.081 48.3099 153.081 43.8966Z" fill="#185A7D"/>
<path d="M141.002 45.1523L137.41 44.2541C136.009 43.8964 135.363 43.6452 135.363 42.712C135.363 41.6007 136.655 41.1698 138.236 41.1698C140.176 41.1698 142.503 41.8153 144.197 42.677L144.217 42.613V37.8435C142.404 37.2976 140.524 37.0041 138.63 36.9712C133.495 36.9712 130.299 39.4831 130.299 43.1063C130.299 46.0124 131.879 47.7357 134.932 48.5243L138.204 49.354C139.641 49.7132 140.575 50.071 140.575 50.8246C140.575 51.9374 139.497 52.2601 137.701 52.2601C135.511 52.2601 133.213 51.3985 131.559 50.5384V55.2257C133.583 56.0233 135.741 56.4294 137.917 56.4222C142.765 56.4222 145.567 54.125 145.567 50.4668C145.574 47.7357 144.31 45.9774 141.002 45.1523Z" fill="#185A7D"/>
<path d="M119.029 31.6614H114.082C113.943 31.6615 113.808 31.7031 113.694 31.7807C113.579 31.8583 113.49 31.9684 113.439 32.0968L104.143 55.3887H109.236L110.883 51.1809H121.981L123.591 55.3902H128.689L119.673 32.1044C119.623 31.9742 119.535 31.8622 119.42 31.7831C119.305 31.704 119.168 31.6616 119.029 31.6614ZM112.171 47.4481L115.895 38.2684C115.948 38.1401 116.037 38.0304 116.152 37.9536C116.268 37.8767 116.404 37.8362 116.542 37.8374C116.681 37.8385 116.816 37.8813 116.93 37.96C117.044 38.0387 117.132 38.1499 117.182 38.279L120.719 47.4481H112.171Z" fill="#185A7D"/>
<path d="M80.1091 35.0883C83.4618 35.0883 86.3269 37.1861 87.543 40.1121C87.9544 38.4944 88.1627 36.8319 88.1632 35.1629C88.1541 30.7801 84.6337 27.1219 80.263 27.0366H79.9491C78.5488 27.0637 77.1797 27.4552 75.9772 28.1725C74.7747 28.8898 73.7803 29.908 73.0922 31.1266C72.4042 32.3453 72.0463 33.7221 72.0538 35.1212C72.0614 36.5203 72.4342 37.8932 73.1354 39.1043C73.8426 37.8823 74.8594 36.8678 76.0835 36.1628C77.3077 35.4578 78.6961 35.0873 80.1091 35.0883Z" fill="#185A7D"/>
<path d="M80.11 43.1322C78.6964 43.1326 77.3076 42.7611 76.0834 42.055C74.8592 41.349 73.8427 40.3333 73.1363 39.1101C72.4339 40.3212 72.0601 41.6945 72.0519 43.0942C72.0437 44.4939 72.4014 45.8715 73.0897 47.0907C73.7779 48.31 74.7728 49.3286 75.976 50.046C77.1792 50.7633 78.549 51.1545 79.9499 51.1808H80.11V43.1322Z" fill="#A5E5D9"/>
<path d="M79.95 27.0426H80.11H80.2624C87.8822 27.1156 94.228 32.5398 95.8297 39.7009C96.0894 38.2134 96.2199 36.7062 96.2198 35.1963C96.2198 26.3088 89.0069 19 80.11 19C77.6526 19.0026 75.2283 19.5662 73.0223 20.6478C70.8163 21.7293 68.887 23.3003 67.3816 25.2405C65.8763 27.1808 64.8348 29.4391 64.3367 31.8429C63.8386 34.2467 63.897 36.7324 64.5076 39.1102C65.3952 35.6825 67.3891 32.6426 70.1807 30.4611C72.9722 28.2796 76.4058 27.0781 79.95 27.0426Z" fill="#A5E5D9"/>
<path d="M88.1655 43.2359C88.1651 42.166 87.9538 41.1066 87.5437 40.1182C86.4133 44.5498 83.7885 48.4568 80.1113 51.1811V59.2252H80.122C82.6257 57.3785 84.6587 54.9685 86.0561 52.1905C87.4536 49.4126 88.1762 46.3449 88.1655 43.2359Z" fill="#A5E5D9"/>
<path d="M79.9492 51.1809C78.5489 51.1541 77.1798 50.7629 75.9773 50.0458C74.7747 49.3287 73.7802 48.3106 73.0921 47.092C72.404 45.8735 72.0461 44.4967 72.0537 43.0976C72.0613 41.6986 72.4342 40.3258 73.1355 39.1148C72.4343 37.9037 72.0615 36.5308 72.0539 35.1317C72.0464 33.7326 72.4043 32.3557 73.0923 31.1371C73.7804 29.9185 74.7748 28.9003 75.9773 28.183C77.1798 27.4657 78.5489 27.0742 79.9492 27.0471C76.4051 27.0826 72.9715 28.2841 70.1799 30.4656C67.3883 32.6472 65.3944 35.687 64.5068 39.1148C65.3945 42.5423 67.3884 45.582 70.18 47.7633C72.9716 49.9446 76.4052 51.1458 79.9492 51.1809Z" fill="#FFAB4D"/>
<path d="M80.2634 27.0425C84.6341 27.1277 88.1545 30.7859 88.1636 35.1688C88.1631 36.8378 87.9547 38.5003 87.5433 40.1179C87.9535 41.1063 88.1648 42.1657 88.1651 43.2357C88.175 46.344 87.4518 49.4109 86.0541 52.188C84.6564 54.9651 82.6235 57.3743 80.1201 59.2203C88.2352 55.8407 94.2793 48.5639 95.8307 39.7008C94.229 32.5397 87.8771 27.1156 80.2634 27.0425Z" fill="#FFAB4D"/>
<path d="M80.1205 59.2205L80.1113 59.2281V67.2722C89.5721 63.3354 96.2211 54.113 96.2211 43.2358V35.1963C96.2218 36.7098 96.0912 38.2205 95.831 39.7116C94.2781 48.5701 88.2341 55.8409 80.1205 59.2205Z" fill="#185A7D"/>
<path d="M79.9498 51.1808C76.4066 51.1459 72.9738 49.9453 70.1825 47.7649C67.3912 45.5845 65.3972 42.5459 64.509 39.1193C64.1701 37.8028 63.9991 36.4489 64 35.0896V43.1383C64.0012 47.4057 65.699 51.4979 68.72 54.5151C71.741 57.5324 75.8379 59.2275 80.1098 59.228V51.1808H79.9498Z" fill="#185A7D"/>
<path d="M83.852 78.2788H85.2815L88.497 86.3701H87.2474L86.5326 84.5859H82.4941L81.755 86.3701H80.4932L83.852 78.2788ZM82.8157 83.6451H86.2111L84.5667 79.5165L82.8157 83.6451Z" fill="#155A7E"/>
<path d="M96.566 78.2788H100.08C101.616 78.2788 103.128 78.9684 103.128 80.8668C103.128 82.3298 101.971 83.3026 100.579 83.3893C101.365 84.1992 102.282 85.4004 103.282 85.4004C103.62 85.3962 103.954 85.3188 104.259 85.1735L104.39 86.1737C103.986 86.3715 103.542 86.4756 103.092 86.4782C101.306 86.4782 99.9827 84.0744 99.0302 83.3848H97.8034V86.3594H96.5645L96.566 78.2788ZM97.805 79.3612V82.4059H100.211C101.117 82.4059 101.831 81.8472 101.831 80.8957C101.831 79.8605 101.117 79.3597 100.211 79.3597L97.805 79.3612Z" fill="#155A7E"/>
<path d="M107.523 86.364V78.2788H113.801V79.3734H108.703V81.6462H112.932V82.7408H108.703V85.2755H113.801V86.3701L107.523 86.364Z" fill="#155A7E"/>
<path d="M118.911 82.5811C117.731 82.2766 117.082 81.5809 117.082 80.5213C117.082 79.2608 118.083 78.1663 120.282 78.1663C121.402 78.1663 122.51 78.4707 123.117 78.8087L122.748 79.9748C122.177 79.6171 121.14 79.308 120.235 79.308C118.937 79.308 118.365 79.8195 118.365 80.4269C118.365 80.9735 118.758 81.2597 119.461 81.4378L121.069 81.8671C122.498 82.2583 123.26 82.8657 123.26 84.0075C123.26 85.507 121.937 86.4828 120.02 86.4828C119.044 86.4746 118.085 86.234 117.221 85.781L117.526 84.6027C118.287 85.0683 119.158 85.3232 120.051 85.3411C121.229 85.3411 121.98 84.8524 121.98 84.1034C121.98 83.5325 121.468 83.2235 120.563 82.9967L118.911 82.5811Z" fill="#155A7E"/>
<path d="M127.011 78.2788H130.679C132.227 78.2788 133.561 79.1922 133.561 81.1713C133.561 82.957 132.227 84.015 130.679 84.015H128.248V86.3716H127.011V78.2788ZM128.248 79.3612V82.9311H130.485C131.474 82.9311 132.271 82.2643 132.271 81.1697C132.271 79.9686 131.474 79.3612 130.485 79.3612H128.248Z" fill="#155A7E"/>
<path d="M140.768 78.1541C143.162 78.1541 144.948 79.9382 144.948 82.3299C144.948 84.6986 143.162 86.4828 140.768 86.4828C138.374 86.4828 136.61 84.6986 136.61 82.3299C136.61 79.9382 138.396 78.1541 140.768 78.1541ZM140.778 85.3167C142.507 85.3167 143.733 84.0318 143.733 82.3299C143.733 80.605 142.514 79.3323 140.778 79.3323C139.076 79.3323 137.837 80.605 137.837 82.3299C137.837 84.0318 139.076 85.3167 140.778 85.3167Z" fill="#155A7E"/>
<path d="M150.046 82.5811C148.866 82.2766 148.217 81.5809 148.217 80.5213C148.217 79.2608 149.218 78.1663 151.417 78.1663C152.537 78.1663 153.645 78.4707 154.252 78.8087L153.883 79.9748C153.311 79.6171 152.275 79.308 151.37 79.308C150.071 79.308 149.498 79.8195 149.498 80.4269C149.498 80.9735 149.892 81.2597 150.596 81.4378L152.203 81.8671C153.633 82.2583 154.395 82.8657 154.395 84.0075C154.395 85.507 153.072 86.4828 151.155 86.4828C150.179 86.4746 149.22 86.234 148.355 85.781L148.66 84.6027C149.422 85.0683 150.293 85.3232 151.185 85.3411C152.364 85.3411 153.115 84.8524 153.115 84.1034C153.115 83.5325 152.603 83.2235 151.698 82.9967L150.046 82.5811Z" fill="#155A7E"/>
<path d="M161.337 79.3673V86.3701H160.098V79.3673H157.191V78.2788H164.1V79.3734L161.337 79.3673Z" fill="#155A7E"/>
<path d="M169.161 78.2788H170.591L173.806 86.3701H172.557L171.842 84.5859H167.803L167.06 86.364H165.798L169.161 78.2788ZM168.126 83.639H171.522L169.878 79.5104L168.126 83.639Z" fill="#155A7E"/>
<path d="M81.5664 101.507V93.4156H87.8436V94.5102H82.7383V96.783H86.9673V97.8776H82.7383V100.412H87.836V101.507H81.5664ZM85.0929 92.5479H84.0261L84.9907 90.8215H86.2419L85.0929 92.5479Z" fill="#155A7E"/>
<path d="M97.734 97.7239C96.5545 97.4194 95.9053 96.7237 95.9053 95.6642C95.9053 94.4037 96.9065 93.3091 99.098 93.3091C100.218 93.3091 101.326 93.6136 101.933 93.9515L101.564 95.1176C100.992 94.7599 99.956 94.4508 99.0507 94.4508C97.7523 94.4508 97.1808 94.9624 97.1808 95.5698C97.1808 96.1163 97.574 96.4025 98.2766 96.5806L99.8782 97.0038C101.308 97.3951 102.07 98.0025 102.07 99.1442C102.07 100.644 100.747 101.62 98.8298 101.62C97.8541 101.611 96.8946 101.37 96.0302 100.918L96.335 99.7395C97.0963 100.205 97.9678 100.46 98.8602 100.478C100.038 100.478 100.79 99.9891 100.79 99.2402C100.79 98.6693 100.278 98.3602 99.3723 98.1334L97.734 97.7239Z" fill="#155A7E"/>
<path d="M108.121 93.4155H109.55L112.767 101.507H111.516L110.801 99.7226H106.763L106.025 101.507H104.762L108.121 93.4155ZM107.084 98.7818H110.48L108.835 94.6532L107.084 98.7818Z" fill="#155A7E"/>
<path d="M117.016 98.0801C117.016 99.5324 117.755 100.484 119.34 100.484C120.925 100.484 121.697 99.4609 121.697 98.0679V93.4156H122.936V98.1638C122.936 100.032 121.71 101.638 119.34 101.638C116.97 101.638 115.778 100.185 115.778 98.1638V93.4156H117.016V98.0801ZM119.84 92.5479H118.773L119.739 90.8215H120.989L119.84 92.5479Z" fill="#155A7E"/>
<path d="M127.142 93.4155H130.429C132.823 93.4277 134.609 94.8435 134.609 97.4726C134.609 100.079 132.823 101.507 130.429 101.507H127.142V93.4155ZM128.381 94.4979V100.424H130.382C132.108 100.424 133.335 99.377 133.335 97.4726C133.335 95.5453 132.108 94.5101 130.382 94.4979H128.381Z" fill="#155A7E"/>
<path d="M138.421 101.507V93.4155H144.698V94.5101H139.6V96.783H143.829V97.8775H139.6V100.412H144.698V101.507H138.421Z" fill="#155A7E"/>
</svg>
