<svg width="238" height="120" viewBox="0 0 238 120" fill="none" xmlns="http://www.w3.org/2000/svg">
<path d="M64.8953 77.8481C66.0695 78.5018 67.3448 79.207 67.3448 81.0299C67.3448 83.4408 65.4307 84.2796 63.2654 84.2796C62.3658 84.2623 61.4709 84.1444 60.5975 83.9282V82.588C61.4895 82.9669 62.4464 83.1705 63.4157 83.1878C64.8413 83.1878 65.9145 82.4849 65.9145 81.215C65.9145 79.9076 64.9399 79.4226 63.9841 78.886L62.9601 78.3167C61.8869 77.7122 60.459 77.0772 60.459 75.32C60.459 73.3261 62.0536 72.3538 64.186 72.3538C65.0003 72.3655 65.8107 72.4669 66.6026 72.656V73.9447C65.7968 73.6209 64.9373 73.4508 64.0686 73.4433C62.7394 73.4433 61.8869 74.1274 61.8869 75.2005C61.8869 76.2244 62.9108 76.7609 63.815 77.26L64.8953 77.8481Z" fill="#00A88E"/>
<path d="M70.8213 72.5388H72.1317V77.5482H76.9156V72.5388H78.2237V84.0945H76.9156V78.6494H72.1317V84.1062H70.8213V72.5388Z" fill="#00A88E"/>
<path d="M85.7944 73.7292H85.8273L87.5229 79.4414H84.0988L85.7944 73.7292ZM81.3135 84.097H82.6216L83.7465 80.5239H87.8752L89.033 84.0923H90.3411L86.5999 72.5366H85.0124L81.3135 84.097Z" fill="#00A88E"/>
<path d="M94.7431 73.6283H95.7177C97.1104 73.6283 98.6885 73.6283 98.6885 75.5871C98.6885 77.5458 97.0446 77.8645 95.4664 77.8645H94.7431V73.6283ZM93.4326 84.0945H94.7431V78.9539H95.9502C97.7304 78.9539 98.0826 79.7553 98.4349 81.4305L99.0056 84.0945H100.316L99.6444 80.9291C99.3931 79.6568 99.2404 78.804 97.6458 78.3846V78.3518C98.7214 78.0847 99.9943 77.5271 99.9943 75.4535C99.9943 72.6419 97.0892 72.5388 96.3025 72.5388H93.4326V84.0945Z" fill="#00A88E"/>
<path d="M104.035 72.5388H105.346V84.0945H104.035V72.5388Z" fill="#00A88E"/>
<path d="M109.815 72.5388H111.497L116.262 82.3021H116.297V72.5388H117.54V84.0945H115.86L111.093 74.3617H111.058V84.0945H109.815V72.5388Z" fill="#00A88E"/>
<path d="M129.305 83.1739C128.347 83.9011 127.172 84.2879 125.968 84.2728C122.307 84.2728 121.332 81.2737 121.332 77.9256C121.332 74.9758 122.473 72.3469 125.646 72.3469C127.945 72.3469 129.373 73.7527 129.373 75.681H127.896C127.896 74.6431 127.325 73.4364 125.663 73.4364C123.314 73.4364 122.758 75.8286 122.758 77.9256C122.758 80.1702 123.147 83.181 125.865 83.181C127.039 83.181 127.795 82.7311 127.999 82.546V78.6496H125.343V77.5601H129.305V83.1739Z" fill="#00A88E"/>
<path d="M139.229 72.5388H144.834V73.6283H140.539V77.4966H144.635V78.5838H140.539V83.0073H144.987V84.0945H139.229V72.5388Z" fill="#00A88E"/>
<path d="M150.727 78.0308L147.439 72.5388H148.862L151.445 76.8593L153.998 72.5388H155.424L152.15 78.0308L155.792 84.0945H154.364L151.445 79.2375L148.505 84.0945H147.084L150.727 78.0308Z" fill="#00A88E"/>
<path d="M160.043 73.6284H161.135C162.074 73.6284 163.786 73.6284 163.786 75.7535C163.786 77.0773 163.098 77.8482 161.454 77.8482H160.045L160.043 73.6284ZM158.732 84.0946H160.043V78.94H161.421C163.552 78.94 165.094 78.0684 165.094 75.7395C165.094 72.5741 162.328 72.5413 161.421 72.5413H158.732V84.0946Z" fill="#00A88E"/>
<path d="M168.32 72.5388H173.924V73.6283H169.626V77.4966H173.724V78.5838H169.626V83.0073H174.088V84.0945H168.32V72.5388Z" fill="#00A88E"/>
<path d="M178.912 73.6283H179.891C181.284 73.6283 182.865 73.6283 182.865 75.5871C182.865 77.5458 181.221 77.8645 179.64 77.8645H178.919L178.912 73.6283ZM177.602 84.0945H178.912V78.9539H180.126C181.906 78.9539 182.259 79.7553 182.611 81.4305L183.179 84.0945H184.492L183.816 80.9291C183.567 79.6568 183.412 78.804 181.819 78.3846V78.3518C182.895 78.0847 184.168 77.5271 184.168 75.4535C184.168 72.6419 181.265 72.5388 180.476 72.5388H177.602V84.0945Z" fill="#00A88E"/>
<path d="M189.472 73.6283H186.703V72.5388H193.551V73.6283H190.78V84.0945H189.474L189.472 73.6283Z" fill="#00A88E"/>
<path d="M196.566 72.5388H197.872V84.0945H196.566V72.5388Z" fill="#00A88E"/>
<path d="M205.991 77.8481C207.165 78.5018 208.44 79.207 208.44 81.0299C208.44 83.4408 206.526 84.2796 204.361 84.2796C203.461 84.2628 202.566 84.1449 201.693 83.9282V82.588C202.585 82.967 203.542 83.1707 204.511 83.1878C205.937 83.1878 207.01 82.4849 207.01 81.215C207.01 79.9076 206.038 79.4226 205.082 78.886L204.056 78.3167C202.98 77.7122 201.555 77.0772 201.555 75.32C201.555 73.3261 203.149 72.3538 205.282 72.3538C206.096 72.3653 206.906 72.4666 207.698 72.656V73.9447C206.893 73.6203 206.033 73.4502 205.164 73.4433C203.837 73.4433 202.98 74.1274 202.98 75.2005C202.98 76.2244 204.007 76.7609 204.913 77.26L205.991 77.8481Z" fill="#00A88E"/>
<path d="M211.914 72.5388H217.522V73.6283H213.225V77.4966H217.318V78.5838H213.225V83.0073H217.673V84.0945H211.914V72.5388Z" fill="#00A88E"/>
<path d="M75.2056 39.4792C81.0933 39.4792 81.3422 44.5308 81.3422 44.5308C81.3422 49.8306 76.812 49.7884 76.812 49.7884C83.3572 49.7884 83.1929 55.9458 83.1929 55.9458C83.1929 63.1365 74.5034 62.8038 74.5034 62.8038H58.8037C60.0766 62.8038 60.5134 60.7279 60.5134 60.7279V41.7192C60.5134 40.0345 58.8037 39.4792 58.8037 39.4792H75.2056ZM67.9582 43.5233V58.6942H72.3428C72.3428 58.6942 76.0064 58.6942 76.0064 55.4327C76.0064 55.4327 75.6166 52.5274 68.9022 49.6643H71.7204C71.7204 49.6643 74.8087 49.8189 74.8087 46.5246C74.8087 43.1203 71.4715 43.5397 71.4715 43.5397L67.9582 43.5233Z" fill="#00A88E"/>
<path d="M37.4019 39.4792C43.2872 39.4792 43.5362 44.5308 43.5362 44.5308C43.5362 49.8306 39.0083 49.7884 39.0083 49.7884C45.5535 49.7884 45.3891 55.9458 45.3891 55.9458C45.3891 63.1365 36.6997 62.8038 36.6997 62.8038H21C22.2752 62.8038 22.7097 60.7279 22.7097 60.7279V41.7192C22.7097 40.0345 21 39.4792 21 39.4792H37.4019ZM30.1544 43.5233V58.6942H34.5414C34.5414 58.6942 38.2027 58.6942 38.2027 55.4327C38.2027 55.4327 37.8129 52.5274 31.0985 49.6643H33.9167C33.9167 49.6643 37.0027 49.8189 37.0027 46.5246C37.0027 43.1203 33.6701 43.5397 33.6701 43.5397L30.1544 43.5233Z" fill="#00A88E"/>
<path d="M84.5879 39.4816C84.5879 39.4816 86.671 39.8377 86.671 41.6629V60.7279C86.671 60.7279 86.2647 62.8038 84.5879 62.8038H94.1416V43.5912H98.0049C98.0049 43.5912 101.41 43.6427 101.41 47.2439C101.41 50.8451 98.3078 50.8943 98.3078 50.8943H94.9048C94.9048 50.8943 96.3773 52.1103 98.2585 56.2668C100.14 60.4233 100.137 60.4233 100.189 60.4842C100.241 60.5451 101.459 62.8272 102.986 62.8272H110.403C110.403 62.8272 108.78 62.375 107.819 60.1445C106.859 57.914 105.736 55.2757 105.736 55.2757C105.736 55.2757 104.719 52.0799 102.079 52.0799H101.922C101.922 52.0799 108.477 52.3868 108.477 45.489C108.477 38.5912 98.8691 39.4816 98.8691 39.4816H84.5879Z" fill="#00A88E"/>
<path d="M131.107 62.8039H140.358C140.358 62.8039 139.038 62.5017 138.021 59.8142C137.004 57.1268 131.563 41.9161 131.563 41.9161C131.563 41.9161 131.055 39.4817 128.979 39.4817H118.362C118.362 39.4817 120.748 39.9901 120.139 41.7638C119.797 42.7619 117.911 47.7642 116.328 51.9558H113.928C112.354 51.9558 112.101 53.1273 111.492 54.5331C110.884 55.9389 109.508 57.1713 109.508 57.1713C110.626 56.5106 113.115 56.766 113.115 56.766L114.489 56.7824C114.202 57.5298 114.033 57.9844 114.033 57.9844C114.033 57.9844 112.202 62.0893 111.389 62.7969H118.505L120.724 56.8035C121.328 56.8035 121.814 56.7824 122.11 56.766C123.737 56.6629 124.247 55.7515 124.651 54.6362C125.055 53.5209 126.581 51.8035 126.581 51.8035C125.36 52.1573 122.868 51.9558 122.868 51.9558H122.521L124.851 45.6695L131.107 62.8039Z" fill="#00A88E"/>
<path d="M137.529 39.4816C137.529 39.4816 140.016 39.6854 140.016 41.6629V54.2823C140.016 54.2823 139.547 63.1552 151.097 63.1552C162.646 63.1552 162.278 54.8446 162.278 54.8446V41.8644C162.278 41.8644 161.766 39.4792 159.786 39.4792H154.293C154.293 39.4792 156.479 39.9877 156.479 41.8644V54.5869C156.479 54.5869 156.681 58.5442 152.003 58.5442C152.003 58.5442 147.938 58.6473 147.938 54.3268V41.8644C147.938 41.8644 147.788 39.4792 145.552 39.4792L137.529 39.4816Z" fill="#00A88E"/>
<path d="M164.891 39.4817C164.891 39.4817 167.023 40.2947 167.023 41.9676V60.4211C167.023 60.4211 166.72 62.8039 164.891 62.8039H172.669V50.6367L182.063 60.9811C182.063 60.9811 182.979 62.8039 186.027 62.8039H189.583V42.1199C189.583 42.1199 189.43 39.4817 186.891 39.4817H181.711C181.711 39.4817 183.744 40.0393 183.744 41.813V51.7051L172.972 39.4864L164.891 39.4817Z" fill="#00A88E"/>
<path d="M52.1664 36H51.2129V65.6483H52.1664V36Z" fill="#00A88E"/>
</svg>
