<svg width="238" height="120" viewBox="0 0 238 120" fill="none" xmlns="http://www.w3.org/2000/svg">
<path d="M140.05 85.8554C116.563 85.8554 112.13 98.1335 84.2021 98.1335V91.9961C110.676 91.9961 114.92 79.7229 140.05 79.7229V85.8554ZM140.05 67.4464C114.92 67.4464 110.676 79.7229 84.2021 79.7229V85.8554C112.137 85.8554 116.563 73.5871 140.05 73.5871V67.4464ZM140.05 55.1748C114.92 55.1748 110.676 67.4529 84.2021 67.4529V73.5936C112.137 73.5936 116.563 61.3204 140.05 61.3204V55.1748Z" fill="#FF8300"/>
<path d="M149.697 48.5403C148.518 48.0387 147.451 47.3071 146.559 46.3884L149.06 43.2958C149.655 43.9612 150.371 44.5072 151.171 44.9045C151.833 45.2437 152.563 45.4295 153.307 45.4478C153.709 45.4598 154.109 45.3905 154.484 45.2443C154.753 45.1419 154.983 44.9576 155.141 44.7173C155.272 44.4924 155.339 44.2357 155.333 43.9754C155.34 43.7532 155.293 43.5327 155.196 43.3326C155.099 43.1325 154.955 42.9589 154.776 42.8264C154.405 42.5408 153.693 42.2251 152.64 41.8793C152.203 41.7315 151.818 41.5887 151.47 41.4525C151.122 41.3162 150.757 41.1472 150.361 40.9453C150.001 40.7652 149.656 40.5583 149.327 40.3264C149.017 40.1012 148.726 39.8491 148.46 39.573C148.187 39.2951 147.953 38.9808 147.766 38.639C147.577 38.2779 147.431 37.8955 147.333 37.4998C147.22 37.0468 147.165 36.5813 147.168 36.1144C147.161 35.16 147.435 34.2244 147.955 33.4241C148.484 32.6069 149.222 31.9452 150.091 31.5069C151.014 31.0362 152.033 30.7882 153.069 30.783C155.323 30.7501 157.413 31.5337 159.336 33.1335L156.935 36.2655C155.499 35.1121 154.261 34.5348 153.22 34.5337C152.79 34.5105 152.366 34.6421 152.026 34.9047C151.878 35.0325 151.761 35.1915 151.683 35.37C151.605 35.5486 151.568 35.7424 151.574 35.9372C151.571 36.1353 151.62 36.3308 151.714 36.5051C151.808 36.6795 151.945 36.8269 152.113 36.9335C152.48 37.2005 153.175 37.5321 154.199 37.9283C155.718 38.5148 156.742 38.9564 157.271 39.2529C158.377 39.8701 159.108 40.6449 159.463 41.5772C159.679 42.1906 159.783 42.8377 159.772 43.4879C159.782 44.2494 159.643 45.0055 159.362 45.7137C159.124 46.329 158.759 46.888 158.293 47.3552C157.838 47.7936 157.32 48.161 156.756 48.4451C156.201 48.7327 155.61 48.9447 154.998 49.0754C154.41 49.1994 153.81 49.2616 153.209 49.2609C152.002 49.2577 150.808 49.0127 149.697 48.5403Z" fill="#FF8300"/>
<path d="M162.027 31.0125H173.793V34.7977H166.188V38.2447H172.194V41.9676H166.188V45.2341H174.325V49.0094H162.027V31.0125Z" fill="#FF8300"/>
<path d="M178.779 48.5403C177.6 48.0383 176.533 47.3068 175.641 46.3884L178.142 43.2958C178.737 43.9612 179.453 44.5072 180.253 44.9045C180.915 45.2437 181.645 45.4295 182.389 45.4478C182.791 45.4598 183.191 45.3905 183.566 45.2443C183.835 45.1419 184.065 44.9576 184.223 44.7173C184.354 44.4924 184.421 44.2357 184.415 43.9754C184.422 43.7532 184.375 43.5327 184.278 43.3326C184.181 43.1325 184.037 42.9589 183.858 42.8264C183.487 42.5408 182.775 42.2251 181.722 41.8793C181.285 41.7315 180.901 41.5887 180.552 41.4525C180.204 41.3162 179.839 41.1472 179.443 40.9453C179.083 40.7652 178.738 40.5583 178.409 40.3264C178.099 40.1016 177.809 39.8494 177.543 39.573C177.269 39.2956 177.035 38.9812 176.848 38.639C176.659 38.2782 176.514 37.8956 176.416 37.4998C176.303 37.0469 176.247 36.5813 176.252 36.1144C176.244 35.1599 176.518 34.2241 177.039 33.4241C177.568 32.6068 178.305 31.945 179.175 31.5069C180.098 31.036 181.118 30.788 182.154 30.783C184.408 30.7501 186.496 31.5337 188.42 33.1335L186.017 36.2655C184.581 35.1121 183.343 34.5348 182.302 34.5337C181.872 34.5105 181.448 34.6421 181.108 34.9047C180.961 35.032 180.844 35.1901 180.766 35.3678C180.688 35.5455 180.65 35.7382 180.656 35.9322C180.653 36.1304 180.702 36.3259 180.796 36.5002C180.89 36.6746 181.027 36.822 181.195 36.9286C181.562 37.1956 182.257 37.5272 183.282 37.9233C184.8 38.5099 185.824 38.9514 186.353 39.248C187.459 39.8652 188.19 40.64 188.545 41.5723C188.762 42.1871 188.867 42.836 188.854 43.4879C188.864 44.2494 188.725 45.0055 188.444 45.7137C188.206 46.329 187.841 46.888 187.375 47.3552C186.92 47.7936 186.402 48.161 185.838 48.4451C185.283 48.7327 184.692 48.9447 184.08 49.0754C183.492 49.1995 182.892 49.2616 182.291 49.2609C181.084 49.2574 179.89 49.0123 178.779 48.5403Z" fill="#FF8300"/>
<path d="M191.234 31.0125H195.518V49.0111H191.234V31.0125Z" fill="#FF8300"/>
<path d="M104.93 49.3576C103.748 49.3667 102.576 49.132 101.489 48.6682C100.459 48.2346 99.5327 47.5878 98.7711 46.7706C97.9905 45.9101 97.3924 44.9005 97.0129 43.8029C96.1671 41.3248 96.1671 38.6367 97.0129 36.1586C97.3931 35.0568 97.9841 34.0394 98.753 33.1629C99.4953 32.333 100.405 31.6698 101.423 31.2171C102.441 30.7643 103.543 30.5324 104.657 30.5366C106.7 30.5366 108.367 31.2906 109.659 32.7985H109.721V30.8747H115.537V42.081C115.537 43.6371 115.933 44.269 116.991 44.269C117.265 44.269 117.615 44.2296 117.977 44.1935V49.0424C117.348 49.2378 116.485 49.3576 115.348 49.3576C114.055 49.3576 112.957 49.1196 112.134 48.6534C111.241 48.0625 110.645 47.3616 110.367 46.5392H110.297C110.297 46.5392 109.007 49.3576 104.93 49.3576ZM62.6863 30.8796H68.4375V42.1959C68.4375 43.6207 68.7859 44.2379 69.7521 44.2379C69.9889 44.2481 70.2258 44.2204 70.4537 44.1558V49.0687C69.9509 49.2624 69.0603 49.3773 67.7835 49.3773C64.3837 49.3773 62.6896 47.5618 62.6896 43.8948L62.6863 30.8796ZM87.7698 30.8796H93.5539V49.6974C93.5539 54.3591 91.2649 56.6867 86.7215 56.6867C85.8781 56.7028 85.0349 56.6479 84.2008 56.5226V51.4866C84.7841 51.526 85.1686 51.5571 85.4398 51.5571C87.0353 51.5571 87.7698 50.8628 87.7698 48.9997V30.8796ZM42 22.6805H59.8255V28.2221H48.1012V34.1314H57.7797V39.6336H48.1012V49.0079H42V22.6805ZM63.13 27.6542C62.8075 27.3632 62.5524 27.0056 62.3821 26.6062C62.2119 26.2068 62.1306 25.7752 62.1441 25.3413C62.1357 24.755 62.2972 24.1786 62.6091 23.6818C62.9161 23.1998 63.3468 22.8087 63.8563 22.5492C64.3914 22.2776 64.9847 22.1402 65.5849 22.1487C66.488 22.1216 67.3665 22.4445 68.0366 23.0499C68.3492 23.3469 68.598 23.7042 68.7681 24.1003C68.9381 24.4963 69.0258 24.9227 69.0258 25.3537C69.0258 25.7846 68.9381 26.211 68.7681 26.6071C68.598 27.0031 68.3492 27.3604 68.0366 27.6574C67.3525 28.2406 66.4826 28.561 65.5833 28.561C64.6839 28.561 63.8141 28.2406 63.13 27.6574V27.6542ZM88.1691 27.5081C87.8555 27.2118 87.6058 26.8548 87.435 26.4588C87.2643 26.0628 87.1763 25.6362 87.1763 25.2051C87.1763 24.774 87.2643 24.3474 87.435 23.9514C87.6058 23.5554 87.8555 23.1984 88.1691 22.9021C88.853 22.3198 89.7222 22 90.6208 22C91.5194 22 92.3886 22.3198 93.0725 22.9021C93.3854 23.1987 93.6346 23.5559 93.8049 23.9518C93.9752 24.3477 94.0631 24.7742 94.0631 25.2051C94.0631 25.636 93.9752 26.0625 93.8049 26.4584C93.6346 26.8543 93.3854 27.2115 93.0725 27.5081C92.3886 28.0904 91.5194 28.4102 90.6208 28.4102C89.7222 28.4102 88.853 28.0904 88.1691 27.5081ZM72.4864 49.0112V30.8747H78.2853V33.5503C79.1742 31.5805 81.2742 30.4446 83.9576 30.4446C84.4643 30.4561 84.9701 30.495 85.4726 30.5612V36.0026C84.8323 35.8725 84.1805 35.807 83.5271 35.8073C80.2226 35.8073 78.2853 37.672 78.2853 40.8958V49.0178L72.4864 49.0112ZM108.801 43.2201C109.575 42.3907 109.961 41.3111 109.96 39.9815C109.973 39.1749 109.794 38.3767 109.439 37.6523C109.116 36.9908 108.615 36.4321 107.993 36.0388C107.381 35.6529 106.672 35.4517 105.949 35.4593C105.399 35.4452 104.852 35.5498 104.347 35.766C103.841 35.9821 103.388 36.3047 103.019 36.7118C102.252 37.5489 101.865 38.6388 101.859 39.9815C101.852 41.3243 102.232 42.4038 102.999 43.2201C103.373 43.6133 103.823 43.9263 104.322 44.1402C104.82 44.3541 105.357 44.4644 105.9 44.4644C106.443 44.4644 106.98 44.3541 107.479 44.1402C107.977 43.9263 108.427 43.6133 108.801 43.2201ZM138.16 42.0711C138.16 43.5846 138.464 44.1246 139.434 44.1246H139.823L140.057 44.0885V48.9751C139.592 49.1688 138.742 49.2476 137.531 49.2476C134.08 49.2476 132.371 47.3878 132.371 43.6666V39.4317C132.371 36.8611 131.339 35.4429 129.54 35.4429C127.741 35.4429 126.153 36.7462 126.153 39.9093V49.0129H120.348V30.8796H126.153V33.0693H126.188C126.872 32.2716 127.719 31.6296 128.672 31.1866C129.615 30.7506 130.641 30.5265 131.68 30.53C132.571 30.5149 133.46 30.6464 134.309 30.919C135.073 31.1821 135.769 31.6122 136.346 32.178C136.942 32.7558 137.398 33.5459 137.713 34.5483C138.049 35.7118 138.208 36.9193 138.183 38.13L138.16 42.0711Z" fill="#382F2D"/>
</svg>
