<svg width="238" height="120" viewBox="0 0 238 120" fill="none" xmlns="http://www.w3.org/2000/svg">
<path d="M99.4876 51.0288C97.3274 50.2051 96.5471 49.0429 96.5471 47.4182C96.5471 45.1999 98.282 43.8911 100.951 43.8911C102.015 43.8995 103.072 44.0708 104.084 44.3988L105.079 44.7148C105.102 44.7176 105.125 44.7262 105.144 44.7397C105.163 44.7532 105.179 44.7713 105.189 44.7923C105.2 44.8133 105.205 44.8366 105.204 44.8601C105.204 44.8836 105.197 44.9065 105.185 44.9269L105.016 45.4121C105.013 45.4353 105.005 45.4576 104.992 45.4769C104.978 45.4961 104.96 45.5117 104.939 45.5223C104.918 45.5328 104.895 45.538 104.872 45.5372C104.848 45.5365 104.826 45.5299 104.805 45.5181L103.851 45.1999C102.914 44.8997 101.935 44.7474 100.951 44.7486C98.8542 44.7486 97.4767 45.7821 97.4767 47.4092C97.4767 48.4246 97.8386 49.4807 99.8495 50.2186L103.048 51.4237C104.805 52.0781 106.054 53.0281 106.054 54.8672C106.054 57.2953 103.894 58.7328 101.078 58.7328C99.7292 58.7469 98.3911 58.4962 97.1397 57.9949L96.4408 57.7399C96.4208 57.7321 96.4027 57.7202 96.3875 57.7051C96.3724 57.69 96.3605 57.6719 96.3526 57.652C96.3448 57.6321 96.3411 57.6108 96.3419 57.5894C96.3427 57.5681 96.3478 57.5471 96.3571 57.5278L96.5245 57.0223C96.5309 56.9995 96.5421 56.9784 96.5574 56.9603C96.5727 56.9422 96.5918 56.9277 96.6132 56.9176C96.6347 56.9076 96.6581 56.9022 96.6818 56.902C96.7055 56.9017 96.729 56.9066 96.7507 56.9162L97.4292 57.1915C98.5889 57.644 99.8259 57.8662 101.071 57.8459C103.274 57.8459 105.115 56.747 105.115 54.8672C105.115 53.4727 103.95 52.6919 102.742 52.227L99.4876 51.0288Z" fill="#1D70B6"/>
<path d="M109.354 54.4095L107.703 58.4014C107.685 58.4424 107.655 58.4769 107.617 58.5C107.579 58.523 107.535 58.5336 107.49 58.53H106.877C106.751 58.53 106.708 58.4443 106.751 58.3382L111.43 47.2267C111.839 46.2568 112.185 45.2618 112.466 44.248C112.469 44.2257 112.476 44.2041 112.488 44.1846C112.499 44.1651 112.514 44.1481 112.532 44.1344C112.55 44.1208 112.57 44.1108 112.592 44.1051C112.614 44.0994 112.636 44.0981 112.659 44.1013H113.251C113.273 44.0981 113.296 44.0995 113.318 44.1052C113.339 44.1109 113.36 44.1209 113.377 44.1345C113.395 44.1482 113.41 44.1653 113.421 44.1848C113.432 44.2043 113.439 44.2258 113.441 44.248C113.697 45.1506 114.097 46.2541 114.479 47.2267L119.18 58.3382C119.223 58.4443 119.18 58.53 119.053 58.53H118.438C118.394 58.5334 118.349 58.5228 118.312 58.4997C118.274 58.4766 118.244 58.4422 118.227 58.4014L116.576 54.4095H109.354ZM116.194 53.5429L113.821 47.924C113.507 47.186 113.257 46.4228 113.073 45.6426C113.03 45.4936 112.86 45.4936 112.846 45.6426C112.648 46.4203 112.393 47.1828 112.084 47.924L109.711 53.5429H116.194Z" fill="#1D70B6"/>
<path d="M130.762 52.9312C130.762 56.5846 128.835 58.7397 125.51 58.7397C122.185 58.7397 120.26 56.5846 120.26 52.9312V44.2681C120.258 44.2454 120.261 44.2226 120.269 44.2012C120.277 44.1798 120.289 44.1604 120.306 44.1444C120.322 44.1284 120.341 44.1163 120.363 44.1088C120.384 44.1013 120.407 44.0986 120.43 44.1011H121C121.023 44.0991 121.045 44.102 121.067 44.1096C121.088 44.1172 121.108 44.1294 121.124 44.1453C121.14 44.1612 121.152 44.1804 121.16 44.2016C121.168 44.2228 121.171 44.2455 121.17 44.2681V52.9312C121.17 56.0363 122.737 57.8528 125.51 57.8528C128.283 57.8528 129.874 56.0363 129.874 52.9312V44.2681C129.871 44.2456 129.874 44.223 129.882 44.2018C129.89 44.1806 129.902 44.1613 129.918 44.1454C129.934 44.1294 129.953 44.1172 129.974 44.1095C129.996 44.1019 130.018 44.099 130.041 44.1011H130.593C130.615 44.0991 130.638 44.102 130.66 44.1096C130.681 44.1172 130.7 44.1294 130.716 44.1453C130.733 44.1612 130.745 44.1804 130.753 44.2016C130.761 44.2228 130.764 44.2455 130.762 44.2681V52.9312ZM127.713 40.3213C127.883 40.3213 127.924 40.4273 127.797 40.5311L125.807 42.3071C125.779 42.3356 125.746 42.3578 125.71 42.3722C125.673 42.3867 125.633 42.3929 125.594 42.3906H125.024C124.875 42.3906 124.834 42.2845 124.918 42.1807L126.632 40.4048C126.659 40.3763 126.693 40.354 126.729 40.3396C126.766 40.3252 126.805 40.3189 126.845 40.3213H127.713Z" fill="#1D70B6"/>
<path d="M137.983 44.1012C141.668 44.1012 143.932 46.8249 143.932 51.3043C143.932 55.7837 141.67 58.5254 137.983 58.5254H133.41C133.387 58.5275 133.364 58.5246 133.342 58.5168C133.321 58.509 133.301 58.4966 133.285 58.4805C133.269 58.4643 133.256 58.4448 133.249 58.4233C133.241 58.4019 133.238 58.3789 133.24 58.3562V44.2682C133.238 44.2456 133.241 44.223 133.249 44.2018C133.257 44.1806 133.27 44.1614 133.286 44.1455C133.302 44.1296 133.321 44.1174 133.343 44.1097C133.364 44.1021 133.387 44.0992 133.41 44.1012H137.983ZM134.138 57.6837H137.983C141.15 57.6837 143.002 55.2962 143.002 51.3043C143.002 47.3124 141.159 44.9249 137.983 44.9249H134.138V57.6837Z" fill="#1D70B6"/>
<path d="M153.717 50.7016C153.739 50.6999 153.762 50.7031 153.783 50.711C153.805 50.7189 153.824 50.7314 153.84 50.7475C153.856 50.7636 153.868 50.783 153.876 50.8043C153.883 50.8256 153.886 50.8483 153.884 50.8709V51.3786C153.886 51.4011 153.883 51.4239 153.876 51.4452C153.868 51.4665 153.856 51.4858 153.84 51.502C153.824 51.5181 153.805 51.5305 153.783 51.5384C153.762 51.5464 153.739 51.5496 153.717 51.5478H146.791V57.6948H155.219C155.241 57.6928 155.264 57.6957 155.286 57.7035C155.307 57.7112 155.327 57.7236 155.343 57.7398C155.359 57.7559 155.372 57.7755 155.38 57.7969C155.387 57.8184 155.39 57.8413 155.388 57.8641V58.3718C155.39 58.3946 155.387 58.4175 155.38 58.439C155.372 58.4605 155.359 58.48 155.343 58.4961C155.327 58.5123 155.307 58.5247 155.286 58.5324C155.264 58.5402 155.241 58.5431 155.219 58.5411H146.051C146.028 58.5431 146.005 58.5402 145.984 58.5324C145.962 58.5247 145.943 58.5123 145.927 58.4961C145.91 58.48 145.898 58.4605 145.89 58.439C145.882 58.4175 145.879 58.3946 145.882 58.3718V44.268C145.879 44.2453 145.882 44.2224 145.89 44.2009C145.898 44.1794 145.91 44.1599 145.927 44.1438C145.943 44.1276 145.962 44.1152 145.984 44.1074C146.005 44.0997 146.028 44.0967 146.051 44.0988H155.099C155.205 44.0988 155.268 44.1642 155.225 44.2906L155.099 44.7758C155.096 44.7981 155.089 44.8196 155.078 44.8392C155.067 44.8588 155.053 44.876 155.035 44.8899C155.017 44.9038 154.997 44.914 154.975 44.92C154.954 44.9259 154.931 44.9275 154.909 44.9247H146.791V50.7016H153.717Z" fill="#1D70B6"/>
<path d="M102.493 61.082C105.861 61.082 107.829 62.7948 107.829 65.6674C107.834 66.4723 107.6 67.2606 107.158 67.9335C106.715 68.6064 106.083 69.1338 105.341 69.4495C105.045 69.5962 105.065 69.7022 105.318 69.8489C106.25 70.4198 106.78 71.3495 107.162 72.1732L108.643 75.7431C108.707 75.9327 108.623 76.0591 108.431 76.0591H105.382C105.313 76.0662 105.243 76.0492 105.186 76.0109C105.128 75.9726 105.085 75.9154 105.065 75.8492L104.133 73.5926C103.371 71.7557 102.695 70.7403 100.342 70.7403H99.7495V75.7905C99.7523 75.8273 99.747 75.8642 99.7341 75.8987C99.7211 75.9332 99.7009 75.9646 99.6746 75.9905C99.6484 76.0165 99.6168 76.0364 99.5821 76.049C99.5474 76.0617 99.5104 76.0666 99.4736 76.0636H96.5851C96.5484 76.0667 96.5115 76.0617 96.4768 76.0491C96.4422 76.0365 96.4108 76.0165 96.3847 75.9905C96.3587 75.9645 96.3386 75.9331 96.326 75.8986C96.3133 75.864 96.3083 75.8272 96.3114 75.7905V61.3483C96.3084 61.3115 96.3134 61.2746 96.326 61.24C96.3387 61.2053 96.3587 61.1739 96.3847 61.1477C96.4107 61.1215 96.4421 61.1013 96.4767 61.0884C96.5113 61.0755 96.5483 61.0702 96.5851 61.073L102.493 61.082ZM102.041 67.757C103.624 67.757 104.368 67.1658 104.368 65.9202C104.368 64.7918 103.606 64.081 102.484 64.081H99.7405V67.757H102.041Z" fill="#1D70B6"/>
<path d="M119.39 66.8613C119.427 66.8583 119.464 66.8633 119.499 66.876C119.534 66.8888 119.566 66.9089 119.592 66.9351C119.618 66.9613 119.639 66.993 119.651 67.0278C119.664 67.0626 119.669 67.0997 119.666 67.1366V69.5648C119.669 69.6017 119.664 69.6388 119.651 69.6736C119.639 69.7084 119.618 69.74 119.592 69.7662C119.566 69.7924 119.534 69.8126 119.499 69.8254C119.464 69.8381 119.427 69.8431 119.39 69.8401H114.204V73.0738H121.127C121.164 73.0707 121.201 73.0757 121.236 73.0883C121.271 73.1009 121.302 73.1209 121.328 73.1469C121.355 73.1728 121.375 73.2041 121.388 73.2386C121.401 73.2732 121.406 73.3101 121.403 73.3468V75.7772C121.406 75.8139 121.401 75.8508 121.388 75.8854C121.375 75.9199 121.355 75.9512 121.328 75.9772C121.302 76.0031 121.271 76.0231 121.236 76.0357C121.201 76.0483 121.164 76.0533 121.127 76.0502H111.048C111.012 76.0533 110.974 76.0483 110.94 76.0357C110.905 76.0231 110.874 76.0031 110.847 75.9772C110.821 75.9512 110.801 75.9199 110.788 75.8854C110.775 75.8508 110.77 75.8139 110.772 75.7772V61.3484C110.769 61.3115 110.774 61.2744 110.787 61.2396C110.8 61.2048 110.82 61.1732 110.846 61.1469C110.873 61.1207 110.904 61.1006 110.939 61.0878C110.974 61.0751 111.011 61.0701 111.048 61.0731H121.227C121.417 61.0731 121.503 61.1995 121.453 61.3891L120.774 63.842C120.758 63.9082 120.72 63.9667 120.665 64.0079C120.611 64.049 120.544 64.0701 120.476 64.0677H114.204V66.8568L119.39 66.8613Z" fill="#1D70B6"/>
<path d="M127.395 69.6077C124.495 68.5313 123.437 67.4752 123.437 65.1712C123.437 62.4046 125.531 60.8408 128.879 60.8408C130.032 60.8411 131.177 61.0262 132.272 61.3892L133.669 61.8563C133.707 61.8612 133.742 61.8747 133.773 61.8956C133.804 61.9166 133.83 61.9445 133.849 61.9771C133.867 62.0097 133.878 62.0461 133.879 62.0835C133.881 62.1209 133.875 62.1582 133.859 62.1925L132.977 64.5597C132.912 64.7289 132.808 64.7854 132.638 64.7289L131.394 64.3476C130.581 64.0738 129.732 63.9217 128.874 63.8963C127.687 63.8963 126.884 64.4017 126.884 65.1622C126.884 65.9227 127.54 66.2409 128.745 66.6832L130.525 67.3398C133.466 68.4365 134.527 69.5355 134.527 71.8395C134.527 74.7325 132.559 76.276 128.958 76.276C127.538 76.2848 126.127 76.0489 124.787 75.5787L123.389 75.1274C123.352 75.122 123.316 75.1082 123.285 75.0871C123.254 75.0659 123.228 75.0379 123.21 75.0052C123.191 74.9725 123.18 74.936 123.178 74.8985C123.176 74.861 123.182 74.8235 123.197 74.7889L124.045 72.4443C124.108 72.275 124.215 72.2186 124.384 72.275L125.866 72.7263C126.864 73.053 127.907 73.2236 128.958 73.2318C130.089 73.2318 131.075 72.9588 131.075 71.8395C131.075 71.2054 130.335 70.7112 129.168 70.2757L127.395 69.6077Z" fill="#1D70B6"/>
<path d="M140.215 75.7769C140.218 75.8137 140.212 75.8506 140.199 75.8851C140.186 75.9197 140.166 75.951 140.14 75.9769C140.114 76.0029 140.082 76.0228 140.047 76.0355C140.013 76.0481 139.976 76.053 139.939 76.05H137.048C137.011 76.053 136.974 76.0481 136.94 76.0355C136.905 76.0228 136.873 76.0029 136.847 75.9769C136.821 75.951 136.801 75.9197 136.788 75.8851C136.775 75.8506 136.769 75.8137 136.772 75.7769V61.3482C136.77 61.312 136.776 61.2759 136.79 61.2422C136.803 61.2085 136.824 61.178 136.85 61.1528C136.876 61.1276 136.907 61.1083 136.941 61.096C136.976 61.0838 137.012 61.079 137.048 61.0819H139.928C139.965 61.0789 140.002 61.0839 140.037 61.0966C140.072 61.1094 140.103 61.1295 140.129 61.1557C140.156 61.182 140.176 61.2135 140.189 61.2483C140.202 61.2831 140.207 61.3203 140.203 61.3572L140.215 75.7769Z" fill="#1D70B6"/>
<path d="M147.639 61.0819C151.873 61.0819 154.414 63.9974 154.414 68.5806C154.414 73.0599 151.787 76.059 147.639 76.059H142.387C142.35 76.062 142.313 76.057 142.278 76.0444C142.244 76.0318 142.212 76.0118 142.186 75.9859C142.16 75.9599 142.139 75.9286 142.127 75.8941C142.114 75.8596 142.108 75.8227 142.111 75.7859V61.3482C142.109 61.312 142.115 61.2758 142.129 61.2421C142.142 61.2084 142.163 61.178 142.189 61.1528C142.215 61.1276 142.246 61.1082 142.28 61.096C142.314 61.0838 142.351 61.079 142.387 61.0819H147.639ZM145.542 73.0825H147.639C149.693 73.0825 150.962 71.4555 150.962 68.5806C150.962 65.7057 149.693 64.0809 147.639 64.0809H145.542V73.0825Z" fill="#1D70B6"/>
<path d="M167.099 73.0733C167.136 73.0703 167.173 73.0752 167.208 73.0878C167.242 73.1005 167.274 73.1204 167.3 73.1464C167.326 73.1723 167.347 73.2036 167.36 73.2382C167.372 73.2727 167.378 73.3096 167.375 73.3463V75.7767C167.378 75.8135 167.372 75.8504 167.36 75.8849C167.347 75.9194 167.326 75.9507 167.3 75.9767C167.274 76.0026 167.242 76.0226 167.208 76.0352C167.173 76.0478 167.136 76.0528 167.099 76.0498H157.02C156.983 76.0528 156.946 76.0478 156.911 76.0352C156.877 76.0226 156.845 76.0026 156.819 75.9767C156.793 75.9507 156.772 75.9194 156.76 75.8849C156.747 75.8504 156.741 75.8135 156.744 75.7767V61.348C156.741 61.3111 156.746 61.2739 156.759 61.2391C156.772 61.2043 156.792 61.1727 156.818 61.1465C156.844 61.1203 156.876 61.1001 156.911 61.0874C156.946 61.0746 156.983 61.0696 157.02 61.0727H167.199C167.389 61.0727 167.472 61.199 167.425 61.3909L166.746 63.8415C166.731 63.9075 166.692 63.9661 166.638 64.0072C166.584 64.0483 166.518 64.0695 166.45 64.0672H160.173V66.8564H165.362C165.399 66.8533 165.436 66.8583 165.471 66.871C165.506 66.8838 165.538 66.904 165.564 66.9302C165.59 66.9564 165.61 66.988 165.623 67.0228C165.636 67.0576 165.641 67.0947 165.638 67.1317V69.5598C165.641 69.5967 165.636 69.6339 165.623 69.6687C165.61 69.7035 165.59 69.7351 165.564 69.7613C165.538 69.7875 165.506 69.8077 165.471 69.8204C165.436 69.8331 165.399 69.8382 165.362 69.8351H160.173V73.0688L167.099 73.0733ZM160.915 59.3419C160.821 59.423 160.7 59.4678 160.576 59.4682H158.185C157.959 59.4682 157.866 59.3193 158.015 59.1297L160.121 56.6159C160.161 56.5655 160.213 56.5256 160.272 56.4996C160.331 56.4737 160.396 56.4625 160.46 56.4669H163.869C163.933 56.4621 163.998 56.4731 164.057 56.4991C164.117 56.5251 164.168 56.5652 164.208 56.6159L166.328 59.1297C166.475 59.3193 166.391 59.4682 166.158 59.4682H163.754C163.629 59.4678 163.509 59.423 163.414 59.3419L162.157 58.2835L160.915 59.3419Z" fill="#1D70B6"/>
<path d="M182.048 75.7772C182.05 75.814 182.045 75.8509 182.032 75.8854C182.019 75.92 181.999 75.9513 181.973 75.9772C181.946 76.0032 181.915 76.0231 181.88 76.0358C181.845 76.0484 181.808 76.0533 181.772 76.0503H178.003C177.934 76.0571 177.865 76.04 177.807 76.0018C177.748 75.9636 177.705 75.9066 177.684 75.8404C177.368 75.1003 176.965 74.2969 176.626 73.6019L173.62 67.509C173.344 66.9584 173.111 66.4733 172.857 65.9294C172.688 65.6135 172.475 65.7399 172.498 66.0152C172.673 67.2861 172.749 68.5687 172.724 69.8514V75.766C172.727 75.8027 172.722 75.8396 172.709 75.8741C172.696 75.9087 172.675 75.94 172.649 75.9659C172.623 75.9919 172.591 76.0119 172.557 76.0245C172.522 76.0371 172.485 76.0421 172.448 76.039H169.575C169.539 76.0421 169.502 76.0371 169.467 76.0245C169.432 76.0119 169.401 75.9919 169.374 75.9659C169.348 75.94 169.328 75.9087 169.315 75.8741C169.302 75.8396 169.297 75.8027 169.3 75.766V61.3485C169.298 61.3123 169.304 61.2762 169.317 61.2425C169.331 61.2088 169.351 61.1783 169.377 61.1531C169.403 61.1279 169.434 61.1086 169.469 61.0963C169.503 61.0841 169.539 61.0793 169.575 61.0822H173.344C173.413 61.0751 173.483 61.0924 173.542 61.1311C173.6 61.1698 173.643 61.2275 173.663 61.2944C174.002 62.0323 174.402 62.8356 174.742 63.5329L177.764 69.6573C178.017 70.2057 178.25 70.6931 178.526 71.1986C178.675 71.5371 178.906 71.4107 178.865 71.1151C178.677 69.8568 178.602 68.5844 178.639 67.3127V61.3553C178.636 61.3186 178.641 61.2816 178.653 61.247C178.666 61.2124 178.686 61.1809 178.712 61.1547C178.738 61.1286 178.77 61.1083 178.804 61.0954C178.839 61.0825 178.876 61.0772 178.913 61.08H181.772C181.809 61.0769 181.846 61.0819 181.881 61.0947C181.916 61.1074 181.947 61.1276 181.974 61.1538C182 61.18 182.02 61.2116 182.033 61.2464C182.046 61.2812 182.051 61.3184 182.048 61.3553V75.7772Z" fill="#1D70B6"/>
<path d="M193.143 75.7774C192.126 76.1307 191.054 76.3025 189.977 76.2851C185.72 76.2851 183.116 73.3064 183.116 68.5517C183.116 63.7971 185.72 60.8409 189.977 60.8409C191.046 60.8141 192.113 60.9666 193.132 61.2922L194.105 61.6082C194.274 61.6713 194.331 61.7774 194.274 61.9467L193.512 64.3341C193.449 64.5034 193.342 64.5598 193.173 64.5034L192.18 64.1852C191.464 63.978 190.721 63.8859 189.977 63.9121C187.859 63.9121 186.568 65.6227 186.568 68.5585C186.568 71.5372 187.859 73.2477 189.977 73.2477C190.716 73.2684 191.454 73.1615 192.157 72.9318L193.152 72.6362C193.185 72.6171 193.222 72.6065 193.259 72.6052C193.297 72.604 193.334 72.6121 193.368 72.6289C193.402 72.6458 193.431 72.6707 193.452 72.7015C193.474 72.7323 193.487 72.7681 193.492 72.8054L194.34 75.1072C194.401 75.2764 194.36 75.3825 194.17 75.4457L193.143 75.7774Z" fill="#1D70B6"/>
<path d="M195.871 61.082H198.753C198.789 61.082 198.825 61.0892 198.859 61.103C198.892 61.1168 198.923 61.1371 198.948 61.1627C198.974 61.1882 198.994 61.2186 199.008 61.252C199.022 61.2854 199.029 61.3212 199.029 61.3573V75.7861C199.029 75.8591 199 75.9291 198.948 75.9807C198.896 76.0324 198.826 76.0614 198.753 76.0614H195.874C195.8 76.0614 195.73 76.0324 195.678 75.9807C195.627 75.9291 195.598 75.8591 195.598 75.7861V61.3483C195.599 61.2771 195.629 61.2094 195.68 61.1596C195.731 61.1099 195.8 61.082 195.871 61.082Z" fill="#1D70B6"/>
<path d="M203.939 74.0644L203.304 75.8403C203.281 75.9048 203.238 75.9601 203.181 75.9979C203.123 76.0358 203.056 76.0541 202.987 76.0502H200.001C199.789 76.0502 199.705 75.9238 199.775 75.7343L202.761 67.6646C203.541 65.5824 204.21 63.4605 204.765 61.3078C204.783 61.2387 204.825 61.1781 204.883 61.1368C204.941 61.0955 205.013 61.0761 205.084 61.0821H209.022C209.093 61.0761 209.164 61.0955 209.223 61.1368C209.281 61.1781 209.323 61.2387 209.341 61.3078C209.896 63.4619 210.568 65.5847 211.352 67.6669L214.337 75.7365C214.401 75.9261 214.317 76.0524 214.111 76.0524H211.125C211.057 76.0565 210.988 76.0382 210.931 76.0004C210.874 75.9626 210.83 75.9072 210.807 75.8426L210.173 74.0666L203.939 74.0644ZM208.789 70.2417C208.174 68.5741 207.497 66.5882 207.244 65.214C207.178 64.9612 206.925 64.9612 206.862 65.214C206.586 66.5882 205.93 68.5515 205.317 70.2417L205.021 71.0879H209.092L208.789 70.2417Z" fill="#1D70B6"/>
<path d="M99.5998 79.1915C99.6009 79.1994 99.6002 79.2075 99.5976 79.2152C99.5951 79.2228 99.5908 79.2297 99.5851 79.2354C99.5794 79.2411 99.5724 79.2454 99.5648 79.248C99.5571 79.2505 99.549 79.2513 99.541 79.2501H98.0775V83.2285C98.0775 83.2669 98.0594 83.2872 98.021 83.2872H97.7043C97.6659 83.2872 97.6478 83.2669 97.6478 83.2285V79.2501H96.1843C96.1763 79.2513 96.1682 79.2505 96.1605 79.248C96.1529 79.2454 96.1459 79.2411 96.1402 79.2354C96.1345 79.2297 96.1302 79.2228 96.1277 79.2152C96.1251 79.2075 96.1244 79.1994 96.1255 79.1915V78.9207C96.1248 78.9129 96.1258 78.905 96.1285 78.8977C96.1312 78.8903 96.1356 78.8837 96.1412 78.8783C96.1469 78.8728 96.1537 78.8688 96.1612 78.8663C96.1686 78.8639 96.1765 78.8632 96.1843 78.8642H99.541C99.5488 78.8632 99.5567 78.8639 99.5641 78.8663C99.5716 78.8688 99.5784 78.8728 99.5841 78.8783C99.5897 78.8837 99.5941 78.8903 99.5968 78.8977C99.5995 78.905 99.6006 78.9129 99.5998 78.9207V79.1915Z" fill="#009DE1"/>
<path d="M102.19 78.8643C103.048 78.8643 103.548 79.3156 103.548 80.0603C103.548 80.6515 103.186 81.0306 102.6 81.2224C102.523 81.2495 102.516 81.2879 102.6 81.3262C102.91 81.5006 103.146 81.7812 103.265 82.116L103.733 83.215C103.753 83.2601 103.733 83.2872 103.697 83.2872H103.36C103.346 83.2878 103.332 83.2837 103.32 83.2755C103.309 83.2673 103.3 83.2556 103.296 83.2421L102.878 82.2762C102.627 81.6737 102.247 81.3962 101.607 81.3962H100.867V83.2285C100.868 83.2365 100.868 83.2446 100.865 83.2523C100.862 83.2599 100.858 83.2668 100.852 83.2725C100.847 83.2782 100.84 83.2825 100.832 83.285C100.824 83.2876 100.816 83.2883 100.808 83.2872H100.501C100.493 83.2883 100.485 83.2876 100.477 83.285C100.469 83.2825 100.462 83.2782 100.457 83.2725C100.451 83.2668 100.447 83.2599 100.444 83.2523C100.442 83.2446 100.441 83.2365 100.442 83.2285V78.9207C100.442 78.8823 100.46 78.8643 100.501 78.8643H102.19ZM101.797 81.0103C102.64 81.0103 103.125 80.6695 103.125 80.0783C103.125 79.557 102.769 79.2501 102.19 79.2501H100.869V81.0103H101.797Z" fill="#009DE1"/>
<path d="M105.283 82.1609L104.846 83.2418C104.841 83.2565 104.831 83.269 104.818 83.2772C104.805 83.2854 104.789 83.2889 104.774 83.287H104.439C104.431 83.2879 104.423 83.2866 104.415 83.2832C104.408 83.2798 104.401 83.2745 104.397 83.2677C104.392 83.261 104.389 83.2532 104.389 83.2451C104.388 83.2369 104.39 83.2288 104.394 83.2215L105.721 80.0217C105.866 79.6601 105.99 79.291 106.095 78.9159C106.095 78.9081 106.097 78.9004 106.101 78.8935C106.105 78.8865 106.11 78.8804 106.116 78.8755C106.122 78.8706 106.129 78.8671 106.137 78.8651C106.144 78.8631 106.152 78.8628 106.16 78.864H106.54C106.548 78.8631 106.556 78.8637 106.563 78.8658C106.57 78.868 106.577 78.8716 106.583 78.8764C106.589 78.8813 106.594 78.8873 106.597 78.8941C106.601 78.9009 106.603 78.9083 106.604 78.9159C106.701 79.268 106.843 79.6606 106.984 80.0217L108.304 83.2215C108.308 83.2288 108.31 83.2369 108.309 83.2451C108.309 83.2532 108.306 83.261 108.301 83.2677C108.297 83.2745 108.29 83.2798 108.283 83.2832C108.276 83.2866 108.267 83.2879 108.259 83.287H107.931C107.916 83.2892 107.901 83.2859 107.888 83.2776C107.875 83.2693 107.865 83.2566 107.861 83.2418L107.418 82.1609H105.283ZM107.262 81.7683L106.667 80.3489C106.556 80.07 106.464 79.7844 106.391 79.4936C106.391 79.435 106.321 79.435 106.307 79.4936C106.24 79.7861 106.148 80.0723 106.031 80.3489L105.445 81.7683H107.262Z" fill="#009DE1"/>
<path d="M112.557 83.2284C112.558 83.2363 112.557 83.2444 112.555 83.2521C112.552 83.2597 112.548 83.2666 112.542 83.2723C112.536 83.278 112.529 83.2823 112.522 83.2849C112.514 83.2874 112.506 83.2882 112.498 83.287H112.1C112.086 83.288 112.072 83.2841 112.06 83.2758C112.049 83.2676 112.04 83.2556 112.037 83.2419C111.928 83.0246 111.807 82.8137 111.675 82.6101L109.838 79.9247C109.761 79.802 109.69 79.6755 109.625 79.5456C109.598 79.4869 109.535 79.5072 109.548 79.5704C109.579 79.7728 109.594 79.9773 109.594 80.1819V83.2284C109.595 83.2363 109.594 83.2444 109.592 83.2521C109.589 83.2597 109.585 83.2666 109.579 83.2723C109.573 83.278 109.566 83.2823 109.559 83.2849C109.551 83.2874 109.543 83.2882 109.535 83.287H109.227C109.219 83.2882 109.211 83.2874 109.204 83.2849C109.196 83.2823 109.189 83.278 109.183 83.2723C109.178 83.2666 109.173 83.2597 109.171 83.2521C109.168 83.2444 109.167 83.2363 109.168 83.2284V78.9205C109.168 78.8821 109.187 78.8641 109.227 78.8641H109.632C109.646 78.8626 109.661 78.8664 109.672 78.8747C109.684 78.883 109.692 78.8953 109.696 78.9092C109.793 79.0943 109.935 79.3447 110.057 79.532L111.894 82.2196C111.976 82.3421 112.047 82.4712 112.107 82.6055C112.132 82.6642 112.197 82.6371 112.184 82.5785C112.15 82.3771 112.135 82.1732 112.138 81.9692V78.9205C112.138 78.8821 112.159 78.8641 112.197 78.8641H112.505C112.546 78.8641 112.564 78.8821 112.564 78.9205L112.557 83.2284Z" fill="#009DE1"/>
<path d="M117.144 84.3726C117.111 84.3997 117.086 84.3997 117.059 84.3726L116.783 84.0138C116.621 83.7924 116.406 83.6158 116.157 83.5009C115.908 83.3859 115.633 83.3365 115.36 83.3572C114.197 83.3572 113.489 82.4884 113.489 81.0825C113.489 79.6766 114.197 78.7988 115.36 78.7988C116.522 78.7988 117.221 79.6812 117.221 81.0825C117.221 82.1431 116.789 82.8314 116.28 83.0616C116.197 83.0999 116.197 83.1338 116.28 83.1518C116.616 83.2685 116.908 83.4841 117.117 83.7701L117.389 84.1222C117.407 84.156 117.407 84.1808 117.375 84.2011L117.144 84.3726ZM115.36 82.9532C116.265 82.9532 116.783 82.2514 116.783 81.0757C116.783 79.9 116.26 79.1983 115.36 79.1983C114.46 79.1983 113.928 79.9 113.928 81.0757C113.928 82.2514 114.457 82.9532 115.36 82.9532Z" fill="#009DE1"/>
<path d="M121.372 81.5519C121.372 82.6802 120.765 83.3572 119.727 83.3572C118.689 83.3572 118.085 82.6802 118.085 81.5519V78.9207C118.085 78.8824 118.105 78.8643 118.144 78.8643H118.454C118.461 78.8632 118.469 78.8638 118.477 78.8663C118.484 78.8687 118.491 78.8728 118.496 78.8783C118.502 78.8838 118.506 78.8905 118.508 78.8979C118.511 78.9052 118.511 78.9131 118.51 78.9207V81.5519C118.51 82.4388 118.963 82.9533 119.727 82.9533C120.492 82.9533 120.946 82.4388 120.946 81.5519V78.9207C120.946 78.8824 120.964 78.8643 121.005 78.8643H121.313C121.351 78.8643 121.372 78.8824 121.372 78.9207V81.5519Z" fill="#009DE1"/>
<path d="M122.808 78.8643H122.5C122.468 78.8643 122.441 78.8905 122.441 78.9229V83.2285C122.441 83.2609 122.468 83.2872 122.5 83.2872H122.808C122.84 83.2872 122.867 83.2609 122.867 83.2285V78.9229C122.867 78.8905 122.84 78.8643 122.808 78.8643Z" fill="#009DE1"/>
<path d="M126.628 82.9013C126.669 82.9013 126.687 82.9194 126.687 82.96V83.2285C126.688 83.2365 126.687 83.2446 126.685 83.2522C126.682 83.2599 126.678 83.2668 126.672 83.2725C126.666 83.2782 126.659 83.2825 126.652 83.285C126.644 83.2876 126.636 83.2883 126.628 83.2872H124.058C124.05 83.2883 124.042 83.2876 124.035 83.285C124.027 83.2825 124.02 83.2782 124.014 83.2725C124.009 83.2668 124.004 83.2599 124.002 83.2522C123.999 83.2446 123.998 83.2365 124 83.2285V78.9207C124 78.8846 124.018 78.8642 124.058 78.8642H124.366C124.374 78.8632 124.382 78.8639 124.389 78.8663C124.397 78.8688 124.403 78.8728 124.409 78.8783C124.415 78.8837 124.419 78.8903 124.422 78.8977C124.425 78.905 124.426 78.9129 124.425 78.9207V82.9013H126.628Z" fill="#009DE1"/>
<path d="M127.988 78.8643H127.68C127.647 78.8643 127.621 78.8905 127.621 78.9229V83.2285C127.621 83.2609 127.647 83.2872 127.68 83.2872H127.988C128.02 83.2872 128.046 83.2609 128.046 83.2285V78.9229C128.046 78.8905 128.02 78.8643 127.988 78.8643Z" fill="#009DE1"/>
<path d="M130.661 78.8642C131.821 78.8642 132.525 79.706 132.525 81.0757C132.525 82.4455 131.814 83.2872 130.661 83.2872H129.238C129.23 83.2883 129.222 83.2876 129.214 83.285C129.207 83.2825 129.2 83.2782 129.194 83.2725C129.188 83.2668 129.184 83.2599 129.181 83.2522C129.179 83.2446 129.178 83.2365 129.179 83.2285V78.9207C129.178 78.9129 129.179 78.905 129.182 78.8977C129.185 78.8903 129.189 78.8837 129.195 78.8783C129.201 78.8728 129.207 78.8688 129.215 78.8663C129.222 78.8639 129.23 78.8632 129.238 78.8642H130.661ZM129.604 82.9013H130.661C131.566 82.9013 132.093 82.2243 132.093 81.0757C132.093 79.9271 131.563 79.2501 130.661 79.2501H129.604V82.9013Z" fill="#009DE1"/>
<path d="M133.902 82.1611L133.465 83.242C133.46 83.2567 133.45 83.2691 133.437 83.2774C133.424 83.2856 133.408 83.289 133.393 83.2872H133.058C133.05 83.2881 133.042 83.2867 133.034 83.2833C133.027 83.28 133.02 83.2746 133.016 83.2679C133.011 83.2612 133.008 83.2534 133.008 83.2452C133.007 83.2371 133.009 83.229 133.013 83.2217L134.334 80.0218C134.478 79.6602 134.603 79.2911 134.707 78.9161C134.708 78.9084 134.71 78.9009 134.714 78.8941C134.718 78.8873 134.723 78.8813 134.729 78.8765C134.735 78.8716 134.742 78.8681 134.749 78.866C134.757 78.8639 134.765 78.8633 134.773 78.8642H135.153C135.16 78.8633 135.168 78.8639 135.175 78.866C135.183 78.8681 135.189 78.8717 135.195 78.8766C135.201 78.8815 135.206 78.8875 135.21 78.8943C135.213 78.901 135.215 78.9085 135.216 78.9161C135.324 79.2909 135.452 79.66 135.598 80.0218L136.917 83.2217C136.93 83.2601 136.917 83.2872 136.872 83.2872H136.55C136.535 83.2894 136.52 83.286 136.507 83.2777C136.494 83.2694 136.485 83.2567 136.48 83.242L136.041 82.1611H133.902ZM135.881 81.7685L135.288 80.3491C135.175 80.071 135.082 79.7852 135.01 79.4938C134.996 79.4351 134.94 79.4351 134.926 79.4938C134.859 79.7863 134.767 80.0725 134.65 80.3491L134.062 81.7685H135.881Z" fill="#009DE1"/>
<path d="M139.263 78.864C140.424 78.864 141.125 79.7057 141.125 81.0755C141.125 82.4452 140.417 83.2869 139.263 83.2869H137.838C137.83 83.2877 137.823 83.2867 137.815 83.284C137.808 83.2812 137.801 83.2769 137.796 83.2713C137.79 83.2656 137.786 83.2588 137.784 83.2514C137.781 83.2439 137.781 83.236 137.782 83.2283V78.9204C137.781 78.9128 137.782 78.9052 137.785 78.898C137.787 78.8909 137.791 78.8844 137.797 78.879C137.802 78.8736 137.809 78.8695 137.816 78.8669C137.823 78.8643 137.831 78.8633 137.838 78.864H139.263ZM138.207 82.9011H139.263C140.168 82.9011 140.695 82.2241 140.695 81.0755C140.695 79.9268 140.166 79.2499 139.263 79.2499H138.207V82.9011Z" fill="#009DE1"/>
<path d="M144.487 80.8252C144.528 80.8252 144.546 80.8433 144.546 80.8817V81.1524C144.546 81.1908 144.528 81.2089 144.487 81.2089H142.477V82.9013H144.965C145.005 82.9013 145.023 82.9194 145.023 82.9577V83.2285C145.025 83.2365 145.024 83.2446 145.021 83.2522C145.019 83.2599 145.014 83.2668 145.009 83.2725C145.003 83.2782 144.996 83.2825 144.988 83.285C144.981 83.2876 144.973 83.2883 144.965 83.2872H142.117C142.109 83.2883 142.101 83.2876 142.093 83.285C142.086 83.2825 142.079 83.2782 142.073 83.2725C142.067 83.2668 142.063 83.2599 142.06 83.2522C142.058 83.2446 142.057 83.2365 142.058 83.2285V78.9207C142.057 78.9129 142.058 78.905 142.061 78.8977C142.064 78.8903 142.068 78.8837 142.074 78.8783C142.08 78.8728 142.086 78.8688 142.094 78.8663C142.101 78.8639 142.109 78.8632 142.117 78.8642H144.933C144.978 78.8642 144.999 78.8891 144.985 78.9274L144.901 79.1982C144.9 79.206 144.898 79.2134 144.894 79.2202C144.891 79.227 144.886 79.233 144.879 79.2379C144.873 79.2427 144.866 79.2463 144.859 79.2484C144.851 79.2505 144.843 79.2511 144.836 79.2501H142.477V80.8298L144.487 80.8252Z" fill="#009DE1"/>
<path d="M149.74 80.8251C149.779 80.8251 149.799 80.8432 149.799 80.8815V81.1523C149.8 81.1603 149.8 81.1684 149.797 81.1761C149.794 81.1837 149.79 81.1906 149.784 81.1963C149.779 81.202 149.772 81.2063 149.764 81.2089C149.756 81.2114 149.748 81.2121 149.74 81.211H147.736V82.9012H150.211C150.219 82.9001 150.226 82.9007 150.234 82.9032C150.241 82.9056 150.248 82.9097 150.253 82.9152C150.259 82.9207 150.263 82.9274 150.265 82.9347C150.268 82.9421 150.269 82.95 150.267 82.9576V83.2284C150.267 83.2668 150.249 83.2871 150.211 83.2871H147.37C147.362 83.2882 147.354 83.2875 147.346 83.2849C147.338 83.2824 147.331 83.2781 147.326 83.2724C147.32 83.2667 147.316 83.2598 147.313 83.2521C147.311 83.2445 147.31 83.2364 147.311 83.2284V78.9206C147.311 78.8822 147.329 78.8641 147.37 78.8641H150.186C150.231 78.8641 150.249 78.889 150.236 78.9273L150.154 79.1981C150.152 79.2135 150.144 79.2274 150.132 79.2371C150.12 79.2467 150.104 79.2513 150.089 79.25H147.736V80.8296L149.74 80.8251ZM149.548 77.6659C149.598 77.6659 149.611 77.6975 149.573 77.7358L148.949 78.3271C148.929 78.3446 148.903 78.3543 148.876 78.3541H148.569C148.523 78.3541 148.503 78.3226 148.535 78.2842L149.037 77.6975C149.045 77.6865 149.056 77.6779 149.069 77.6723C149.082 77.6668 149.096 77.6646 149.109 77.6659H149.548Z" fill="#009DE1"/>
<path d="M155.784 81.5519C155.784 82.6802 155.177 83.3572 154.139 83.3572C153.101 83.3572 152.497 82.6802 152.497 81.5519V78.9207C152.497 78.8824 152.517 78.8643 152.556 78.8643H152.866C152.873 78.8632 152.881 78.8638 152.889 78.8663C152.896 78.8687 152.903 78.8728 152.908 78.8783C152.914 78.8838 152.918 78.8905 152.92 78.8979C152.923 78.9052 152.923 78.9131 152.922 78.9207V81.5519C152.922 82.4388 153.375 82.9533 154.139 82.9533C154.904 82.9533 155.358 82.4388 155.358 81.5519V78.9207C155.357 78.9131 155.358 78.9052 155.36 78.8979C155.363 78.8905 155.367 78.8838 155.372 78.8783C155.378 78.8728 155.385 78.8687 155.392 78.8663C155.399 78.8638 155.407 78.8632 155.415 78.8643H155.725C155.763 78.8643 155.784 78.8824 155.784 78.9207V81.5519Z" fill="#009DE1"/>
<path d="M160.894 83.2283C160.895 83.2363 160.894 83.2444 160.892 83.252C160.889 83.2597 160.885 83.2666 160.879 83.2723C160.874 83.278 160.867 83.2823 160.859 83.2848C160.851 83.2874 160.843 83.2881 160.835 83.287H160.521C160.513 83.2881 160.505 83.2874 160.497 83.2848C160.489 83.2823 160.483 83.278 160.477 83.2723C160.471 83.2666 160.467 83.2597 160.464 83.252C160.462 83.2444 160.461 83.2363 160.462 83.2283V80.4256C160.461 80.1399 160.476 79.8543 160.507 79.5703C160.507 79.4936 160.449 79.4688 160.424 79.5523C160.358 79.7238 160.288 79.893 160.211 80.0645L159.333 81.9691C159.256 82.1474 159.159 82.4001 159.089 82.6055C159.086 82.6194 159.078 82.6317 159.066 82.64C159.054 82.6483 159.04 82.6521 159.026 82.6506H158.723C158.708 82.6522 158.694 82.6485 158.681 82.6402C158.669 82.6319 158.661 82.6196 158.657 82.6055C158.585 82.3891 158.501 82.1767 158.406 81.9691L157.542 80.0713C157.461 79.893 157.388 79.7238 157.316 79.5523C157.289 79.4688 157.232 79.4936 157.239 79.5703C157.264 79.8276 157.277 80.1367 157.277 80.4256V83.2283C157.278 83.2363 157.278 83.2444 157.275 83.252C157.273 83.2597 157.268 83.2666 157.263 83.2723C157.257 83.278 157.25 83.2823 157.242 83.2848C157.235 83.2874 157.227 83.2881 157.219 83.287H156.909C156.87 83.287 156.852 83.2667 156.852 83.2283V78.9204C156.851 78.9128 156.852 78.9049 156.854 78.8976C156.857 78.8902 156.861 78.8835 156.866 78.878C156.872 78.8726 156.878 78.8684 156.886 78.866C156.893 78.8636 156.901 78.8629 156.909 78.864H157.418C157.425 78.8628 157.433 78.8631 157.441 78.8651C157.449 78.8671 157.456 78.8706 157.462 78.8755C157.468 78.8804 157.473 78.8865 157.477 78.8935C157.48 78.9004 157.483 78.9081 157.483 78.9159C157.54 79.0888 157.606 79.2583 157.682 79.4237L158.637 81.5246C158.707 81.6973 158.769 81.8736 158.822 82.0526C158.843 82.1158 158.895 82.1158 158.913 82.0526C158.965 81.8924 159.03 81.7051 159.1 81.5313L160.059 79.4237C160.137 79.2595 160.202 79.0898 160.254 78.9159C160.256 78.901 160.264 78.8874 160.276 78.8778C160.287 78.8682 160.302 78.8633 160.317 78.864H160.833C160.871 78.864 160.892 78.8821 160.892 78.9204L160.894 83.2283Z" fill="#009DE1"/>
<path d="M162.633 82.1609L162.194 83.2418C162.19 83.2563 162.18 83.2687 162.167 83.277C162.155 83.2852 162.139 83.2887 162.124 83.287H161.789C161.781 83.2879 161.773 83.2866 161.766 83.2832C161.758 83.2798 161.752 83.2745 161.747 83.2677C161.743 83.261 161.74 83.2532 161.739 83.2451C161.739 83.2369 161.741 83.2288 161.744 83.2215L163.072 80.0217C163.215 79.6597 163.34 79.2906 163.445 78.9159C163.446 78.9083 163.448 78.9009 163.451 78.8941C163.455 78.8873 163.46 78.8813 163.466 78.8764C163.472 78.8716 163.478 78.868 163.486 78.8658C163.493 78.8637 163.501 78.8631 163.509 78.864H163.889C163.896 78.8628 163.904 78.8631 163.912 78.8651C163.92 78.8671 163.927 78.8706 163.933 78.8755C163.939 78.8804 163.944 78.8865 163.948 78.8935C163.951 78.9004 163.954 78.9081 163.954 78.9159C164.061 79.291 164.188 79.6602 164.334 80.0217L165.655 83.2215C165.655 83.2599 165.655 83.287 165.61 83.287H165.282C165.266 83.2889 165.251 83.2854 165.238 83.2772C165.224 83.269 165.215 83.2565 165.209 83.2418L164.773 82.1609H162.633ZM164.61 81.7683L164.017 80.3489C163.906 80.0704 163.814 79.7847 163.741 79.4936C163.728 79.435 163.669 79.435 163.658 79.4936C163.59 79.7862 163.497 80.0723 163.38 80.3489L162.794 81.7683H164.61Z" fill="#009DE1"/>
<path d="M170.326 80.8252C170.365 80.8252 170.385 80.8433 170.385 80.8817V81.1525C170.385 81.1908 170.365 81.2089 170.326 81.2089H168.322V82.9013H170.797C170.804 82.9002 170.812 82.9009 170.82 82.9033C170.827 82.9057 170.834 82.9098 170.839 82.9153C170.845 82.9208 170.849 82.9275 170.851 82.9349C170.854 82.9422 170.854 82.9501 170.853 82.9577V83.2285C170.853 83.2669 170.835 83.2872 170.797 83.2872H167.956C167.948 83.2883 167.94 83.2876 167.932 83.285C167.924 83.2825 167.917 83.2782 167.912 83.2725C167.906 83.2668 167.902 83.2599 167.899 83.2523C167.897 83.2446 167.896 83.2365 167.897 83.2285V78.9207C167.897 78.8846 167.915 78.8643 167.956 78.8643H170.772C170.815 78.8643 170.835 78.8891 170.822 78.9274L170.738 79.1982C170.737 79.2059 170.735 79.2133 170.732 79.2201C170.728 79.2269 170.723 79.2329 170.717 79.2377C170.712 79.2426 170.705 79.2462 170.697 79.2483C170.69 79.2505 170.682 79.2511 170.675 79.2501H168.322V80.8298L170.326 80.8252Z" fill="#009DE1"/>
<path d="M172.543 81.0692C171.832 80.8052 171.581 80.4577 171.581 79.9183C171.581 79.2098 172.129 78.79 172.981 78.79C173.312 78.7932 173.64 78.848 173.954 78.9525L174.275 79.0541C174.284 79.0556 174.292 79.059 174.298 79.0642C174.305 79.0693 174.311 79.076 174.315 79.0838C174.318 79.0915 174.32 79.0999 174.32 79.1085C174.32 79.1171 174.318 79.1255 174.314 79.133L174.223 79.3948C174.221 79.4019 174.218 79.4085 174.213 79.4141C174.208 79.4197 174.202 79.4241 174.196 79.4272C174.189 79.4302 174.182 79.4317 174.174 79.4316C174.167 79.4314 174.16 79.4297 174.153 79.4264L173.843 79.3316C173.565 79.2408 173.274 79.1951 172.981 79.1962C172.4 79.1962 172.013 79.4715 172.013 79.9161C172.013 80.2117 172.149 80.4893 172.71 80.6946L173.599 81.0286C174.205 81.2543 174.571 81.5544 174.571 82.1411C174.571 82.9061 173.92 83.3484 173.02 83.3484C172.605 83.35 172.194 83.2734 171.807 83.1227L171.55 83.028C171.542 83.0258 171.536 83.0221 171.53 83.0171C171.525 83.0121 171.52 83.006 171.517 82.9991C171.514 82.9923 171.513 82.9848 171.513 82.9773C171.513 82.9699 171.515 82.9625 171.518 82.9557L171.613 82.694C171.626 82.6534 171.654 82.6421 171.685 82.6534L171.943 82.7504C172.287 82.8799 172.652 82.9456 173.02 82.9445C173.624 82.9445 174.133 82.6534 174.133 82.1343C174.133 81.753 173.805 81.5363 173.438 81.3942L172.543 81.0692Z" fill="#009DE1"/>
<path d="M178.095 83.1837C177.8 83.2996 177.485 83.3563 177.168 83.3507C175.994 83.3507 175.286 82.4774 175.286 81.076C175.286 79.6747 175.994 78.7946 177.168 78.7946C177.477 78.7874 177.785 78.8418 178.073 78.9548L178.344 79.0496C178.351 79.052 178.358 79.0559 178.363 79.061C178.368 79.0661 178.373 79.0722 178.375 79.0791C178.378 79.0859 178.379 79.0932 178.379 79.1006C178.379 79.108 178.377 79.1152 178.374 79.1218L178.285 79.3858C178.284 79.394 178.28 79.4017 178.275 79.4083C178.269 79.4149 178.263 79.4202 178.255 79.4239C178.247 79.4275 178.239 79.4295 178.231 79.4295C178.222 79.4296 178.214 79.4278 178.206 79.4242L177.937 79.3204C177.688 79.2284 177.422 79.187 177.157 79.1985C176.252 79.1985 175.714 79.8935 175.714 81.076C175.714 82.2585 176.241 82.9535 177.157 82.9535C177.427 82.9581 177.696 82.9098 177.948 82.8113L178.213 82.7211C178.22 82.7178 178.227 82.7161 178.235 82.7159C178.242 82.7158 178.25 82.7173 178.257 82.7203C178.263 82.7233 178.27 82.7277 178.275 82.7333C178.28 82.7389 178.283 82.7455 178.285 82.7527L178.38 83.0167C178.384 83.0234 178.385 83.0308 178.386 83.0383C178.386 83.0458 178.384 83.0532 178.381 83.0601C178.378 83.0669 178.374 83.073 178.368 83.078C178.363 83.083 178.356 83.0867 178.349 83.0889L178.095 83.1837Z" fill="#009DE1"/>
<path d="M182.818 81.0759C182.818 82.4772 182.11 83.3505 180.956 83.3505C179.803 83.3505 179.088 82.4772 179.088 81.0759C179.088 79.6745 179.796 78.7944 180.956 78.7944C182.117 78.7944 182.818 79.6745 182.818 81.0759ZM179.527 81.0759C179.527 82.2516 180.054 82.9534 180.956 82.9534C181.859 82.9534 182.381 82.2516 182.381 81.0759C182.381 79.9002 181.859 79.1984 180.956 79.1984C180.054 79.1984 179.527 79.8979 179.527 81.0759Z" fill="#009DE1"/>
<path d="M186.376 82.9013C186.415 82.9013 186.433 82.9194 186.433 82.96V83.2285C186.433 83.2669 186.415 83.2872 186.376 83.2872H183.804C183.796 83.2883 183.788 83.2876 183.781 83.285C183.773 83.2825 183.766 83.2782 183.76 83.2725C183.755 83.2668 183.75 83.2599 183.748 83.2522C183.745 83.2446 183.744 83.2365 183.746 83.2285V78.9207C183.745 78.9129 183.746 78.905 183.749 78.8977C183.751 78.8903 183.756 78.8837 183.761 78.8783C183.767 78.8728 183.774 78.8688 183.781 78.8663C183.789 78.8639 183.797 78.8632 183.804 78.8642H184.114C184.122 78.8632 184.13 78.8639 184.137 78.8663C184.145 78.8688 184.152 78.8728 184.157 78.8783C184.163 78.8837 184.167 78.8903 184.17 78.8977C184.173 78.905 184.174 78.9129 184.173 78.9207V82.9013H186.376Z" fill="#009DE1"/>
<path d="M190.681 83.2286C190.682 83.2366 190.681 83.2447 190.679 83.2523C190.676 83.2599 190.672 83.2669 190.666 83.2726C190.661 83.2783 190.654 83.2825 190.646 83.2851C190.638 83.2876 190.63 83.2884 190.622 83.2873H190.306C190.267 83.2873 190.249 83.2669 190.249 83.2286V81.2112H187.793V83.2286C187.793 83.2669 187.775 83.2873 187.736 83.2873H187.426C187.388 83.2873 187.37 83.2669 187.37 83.2286V78.9207C187.369 78.9131 187.369 78.9052 187.372 78.8979C187.374 78.8905 187.378 78.8838 187.384 78.8783C187.389 78.8728 187.396 78.8687 187.403 78.8663C187.411 78.8638 187.419 78.8632 187.426 78.8643H187.736C187.744 78.8632 187.752 78.8638 187.759 78.8663C187.766 78.8687 187.773 78.8728 187.779 78.8783C187.784 78.8838 187.788 78.8905 187.791 78.8979C187.793 78.9052 187.794 78.9131 187.793 78.9207V80.8253H190.249V78.9207C190.248 78.9131 190.249 78.9052 190.251 78.8979C190.253 78.8905 190.258 78.8838 190.263 78.8783C190.269 78.8728 190.275 78.8687 190.283 78.8663C190.29 78.8638 190.298 78.8632 190.306 78.8643H190.622C190.661 78.8643 190.681 78.8824 190.681 78.9207V83.2286Z" fill="#009DE1"/>
<path d="M192.418 82.1611L191.981 83.242C191.976 83.2569 191.967 83.2697 191.953 83.2779C191.94 83.2862 191.924 83.2895 191.909 83.2872H191.574C191.536 83.2872 191.517 83.2601 191.529 83.2217L192.856 80.0218C193.002 79.6606 193.126 79.2914 193.23 78.9161C193.231 78.9084 193.233 78.9009 193.237 78.8941C193.24 78.8873 193.245 78.8813 193.252 78.8765C193.258 78.8716 193.265 78.8681 193.272 78.866C193.28 78.8639 193.288 78.8633 193.295 78.8642H193.675C193.683 78.8633 193.691 78.8639 193.698 78.866C193.706 78.8681 193.713 78.8716 193.719 78.8765C193.725 78.8813 193.73 78.8873 193.734 78.8941C193.738 78.9009 193.74 78.9084 193.741 78.9161C193.848 79.2912 193.974 79.6603 194.121 80.0218L195.44 83.2217C195.453 83.2601 195.44 83.2872 195.397 83.2872H195.066C195.051 83.2889 195.036 83.2854 195.023 83.2771C195.01 83.2689 195.001 83.2565 194.996 83.242L194.557 82.1611H192.418ZM194.397 81.7685L193.804 80.3491C193.692 80.0709 193.6 79.7851 193.528 79.4938C193.515 79.4351 193.456 79.4351 193.442 79.4938C193.376 79.7866 193.284 80.0728 193.166 80.3491L192.581 81.7685H194.397Z" fill="#009DE1"/>
<mask id="mask0_862_46" style="mask-type:alpha" maskUnits="userSpaceOnUse" x="24" y="29" width="63" height="62">
<path fill-rule="evenodd" clip-rule="evenodd" d="M86.0575 59.9538C86.0579 66.0765 84.2385 72.0617 80.8293 77.1527C77.4201 82.2437 72.5742 86.2118 66.9045 88.5552C61.2348 90.8985 54.9959 91.5119 48.9767 90.3177C42.9576 89.1235 37.4286 86.1754 33.0889 81.8462C28.7492 77.517 25.7938 72.0011 24.5964 65.9962C23.399 59.9912 24.0133 53.7669 26.3617 48.1102C28.7101 42.4536 32.6872 37.6188 37.7899 34.2172C42.8926 30.8156 48.8918 29 55.0288 29C59.1034 28.9997 63.1382 29.8001 66.9028 31.3556C70.6673 32.911 74.0879 35.191 76.9693 38.0654C79.8506 40.9397 82.1362 44.3522 83.6955 48.1078C85.2549 51.8634 86.0575 55.8887 86.0575 59.9538Z" fill="white"/>
</mask>
<g mask="url(#mask0_862_46)">
<path fill-rule="evenodd" clip-rule="evenodd" d="M84.3471 59.954C84.3471 65.7398 82.6273 71.3956 79.4053 76.2062C76.1833 81.0169 71.6037 84.7662 66.2457 86.9801C60.8877 89.194 54.992 89.7731 49.3042 88.644C43.6164 87.5149 38.3919 84.7284 34.2914 80.637C30.191 76.5455 27.3988 71.3328 26.2679 65.6581C25.1371 59.9834 25.7184 54.1016 27.9383 48.7565C30.1583 43.4114 33.9171 38.8431 38.7395 35.6294C43.5619 32.4156 49.2313 30.7008 55.0306 30.7017C58.8808 30.702 62.6932 31.4588 66.2502 32.9291C69.8072 34.3993 73.0392 36.5541 75.7614 39.2704C78.4837 41.9867 80.6431 45.2114 82.1162 48.7603C83.5893 52.3092 84.3474 56.1128 84.3471 59.954Z" fill="#009DE1"/>
<path fill-rule="evenodd" clip-rule="evenodd" d="M25.4414 64.6927H29.3839L35.7172 59.2294L35.9547 51.6924L39.6122 51.7398L39.7072 55.7701L44.5386 52.1189L60.7406 64.6317L63.5431 64.7739L64.4478 64.3497L65.3978 62.831L66.1103 62.3571L66.6803 62.7385L67.1078 63.5915L67.6303 64.537L68.7613 64.7288H70.521L72.516 69.9415L74.0835 55.8174L75.936 66.8139C75.936 66.8139 78.216 64.9657 78.3585 64.8709C78.501 64.7762 79.641 64.6317 79.641 64.6317L81.2108 64.8236L83.0203 63.6953L84.1512 62.0818L85.056 60.8023L86.766 63.0792L84.676 75.1182C84.676 75.1182 78.1165 85.4512 78.1165 85.7355C78.1165 86.0198 47.0448 94.085 46.6761 94.085C46.3074 94.085 23.5029 83.3548 23.5029 83.3548L25.5002 65.0605" fill="#1D70B6"/>
<path d="M89.4779 64.1533H89.1974C88.9115 64.1772 88.6236 64.1551 88.3447 64.0878C87.9624 63.9682 87.6774 63.535 87.4399 63.1852C87.3834 63.0994 87.3314 63.0204 87.2816 62.9595C86.9286 62.4759 86.6096 61.9685 86.3271 61.4408C86.2954 61.3791 86.2637 61.3137 86.2321 61.2445C86.1012 60.8838 85.8568 60.575 85.5354 60.3644C84.8207 59.9763 84.2439 60.7413 83.9951 61.073C83.7161 61.4582 83.4608 61.8598 83.2305 62.2758C83.0337 62.612 82.8324 62.9528 82.5995 63.289C82.4072 63.5967 82.1434 63.8537 81.8304 64.0382C81.4718 64.1811 81.0832 64.2331 80.6995 64.1894H80.4258H80.0955C79.6432 64.1894 79.1591 64.1894 78.6909 64.1736C78.2951 64.1736 77.8495 64.1736 77.5713 64.485C77.3691 64.7319 77.2058 65.0081 77.0872 65.3041C77.0284 65.4328 76.9696 65.5614 76.9063 65.6787L76.5806 66.2609L76.386 66.6062C76.1598 65.0694 76.0241 63.5011 75.8907 61.9779C75.8251 61.2264 75.7595 60.475 75.6826 59.7213C75.574 58.6471 75.4677 57.9634 75.3614 56.8892C75.2242 55.4932 75.0839 54.0963 74.9407 52.6987C74.9113 52.4031 74.8796 52.1075 74.8457 51.8096C74.8457 51.7464 74.8457 51.6787 74.8321 51.6065C74.838 51.3845 74.7939 51.164 74.7032 50.9611C74.6346 50.8376 74.5236 50.7429 74.3907 50.6944C74.2577 50.6459 74.1117 50.6468 73.9794 50.6971C73.6446 50.81 73.6129 51.1484 73.5994 51.3267C73.5315 52.0962 73.4772 52.8635 73.4207 53.633C73.389 54.0707 73.3551 54.5108 73.3234 54.9463C73.1289 57.4489 72.9321 59.5566 72.7308 62.0569C72.58 63.984 72.4232 65.9104 72.2603 67.836C72.2309 67.7322 72.2083 67.6217 72.1879 67.5133C72.1676 67.405 72.154 67.3396 72.1337 67.2583C72.0206 66.8251 71.909 66.3918 71.7989 65.9585C71.7627 65.8096 71.7288 65.6562 71.6971 65.5072C71.6416 65.2301 71.5722 64.956 71.489 64.6858C71.4076 64.4376 71.1791 64.1487 70.6137 64.16C70.2201 64.16 69.8197 64.16 69.4329 64.16H68.9489C68.8494 64.16 68.7476 64.16 68.639 64.16C68.3956 64.1929 68.1479 64.1729 67.9129 64.1014C67.6868 63.993 67.5895 63.7019 67.5035 63.4447C67.4741 63.3522 67.4447 63.2664 67.4153 63.1919L67.3656 63.0769C67.2339 62.6734 66.9909 62.3152 66.6644 62.0433C66.5574 61.96 66.434 61.9001 66.3023 61.8675C66.1706 61.8348 66.0335 61.8301 65.8999 61.8538C65.4045 61.9508 65.029 62.4405 64.8503 62.7248C64.744 62.8896 64.6513 63.0633 64.5608 63.2303C64.4437 63.4535 64.3138 63.6697 64.1718 63.878C63.9682 64.1645 63.6267 64.1645 63.1878 64.16H63.129C61.1974 64.16 64.6536 64.16 62.7536 64.16C62.0999 64.16 61.4575 64.1442 60.8558 64.1036L44.9592 51.153C44.9087 51.1129 44.8461 51.091 44.7816 51.091C44.7171 51.091 44.6545 51.1129 44.6041 51.153L40.2228 54.6981V51.3583C40.2222 51.3225 40.2145 51.2871 40.2002 51.2542C40.1859 51.2213 40.1653 51.1915 40.1394 51.1665C40.1136 51.1416 40.0831 51.122 40.0496 51.1088C40.0162 51.0956 39.9805 51.0892 39.9446 51.0898H35.7171C35.6449 51.0892 35.5754 51.1171 35.5237 51.1674C35.472 51.2176 35.4423 51.2863 35.4411 51.3583V58.6381L29.1078 64.1126L24.774 64.0968C24.7384 64.0962 24.7029 64.1027 24.6698 64.1157C24.6366 64.1288 24.6064 64.1482 24.5807 64.173C24.5551 64.1977 24.5346 64.2272 24.5204 64.2598C24.5062 64.2925 24.4986 64.3276 24.498 64.3631V64.9498C24.4983 64.9856 24.5057 65.0209 24.5198 65.0538C24.5338 65.0867 24.5543 65.1165 24.5799 65.1415C24.6056 65.1664 24.636 65.1861 24.6693 65.1993C24.7026 65.2125 24.7382 65.219 24.774 65.2184H24.7989L29.1395 65.2342L29.628 65.2567C29.6661 65.2589 29.7043 65.2532 29.7401 65.24C29.7759 65.2268 29.8086 65.2064 29.8361 65.18L36.5155 59.4731C36.5445 59.4482 36.5678 59.4173 36.5838 59.3827C36.5998 59.348 36.6081 59.3104 36.6083 59.2722V52.2045H39.0421V56.6027C39.0438 56.6747 39.0741 56.7431 39.1262 56.793C39.1783 56.8428 39.2481 56.8702 39.3203 56.8689C39.3905 56.8696 39.4583 56.8439 39.5103 56.7967L44.7782 52.6401L60.3718 65.2251C60.4221 65.2645 60.4842 65.2859 60.5482 65.2861H63.4276L62.3555 65.2703C62.5025 65.2703 62.6563 65.2703 62.8078 65.2838C63.4864 65.3109 64.269 65.3425 64.7553 64.8979C65.1888 64.4567 65.5478 63.9484 65.8184 63.3928C65.8863 63.2709 65.9519 63.1513 66.0197 63.034C66.2525 63.4518 66.4573 63.8845 66.6327 64.3293C66.715 64.563 66.8569 64.7713 67.0446 64.9336C67.2322 65.0958 67.459 65.2064 67.7026 65.2545C67.9272 65.288 68.1551 65.2941 68.3812 65.2725C68.4558 65.2725 68.5327 65.2725 68.6074 65.2725C68.8494 65.2725 69.0937 65.2725 69.338 65.2725C69.4872 65.2725 69.6388 65.2725 69.7903 65.2725H69.9532C70.1251 65.2725 70.3354 65.2545 70.4214 65.3425C70.5331 65.4969 70.5976 65.6803 70.6069 65.8705C70.6182 65.9495 70.6318 66.0262 70.6476 66.0962C70.9281 67.214 71.2123 68.331 71.5003 69.4473L71.5659 69.7045C71.67 70.1107 71.7785 70.5462 71.8713 70.9863V71.0179C71.9233 71.2751 72.0319 71.8099 72.5385 71.8325H72.586C72.6596 71.8361 72.7331 71.8249 72.8022 71.7997C72.8713 71.7745 72.9347 71.7358 72.9887 71.6858C73.2148 71.4714 73.2148 71.081 73.2148 70.8215C73.2148 70.7606 73.2148 70.7064 73.2148 70.6613C73.2646 70.0189 73.3159 69.3758 73.3687 68.7319L73.4885 67.2493C73.5496 66.5046 73.6084 65.76 73.6695 65.0153C73.7404 64.1217 73.8067 63.2273 73.8685 62.3322C73.9794 60.7999 74.0947 59.6085 74.2417 58.0446L74.2666 57.7806C74.4363 59.1865 74.5765 60.2087 74.719 61.5852L74.8457 62.8444C74.9512 63.9186 75.059 64.9927 75.1691 66.0669L75.332 67.7187C75.3347 67.7728 75.3347 67.827 75.332 67.8812C75.332 68.1858 75.332 68.6936 75.5898 68.9305C75.6383 68.9758 75.6958 69.0104 75.7585 69.0322C75.8212 69.054 75.8878 69.0624 75.954 69.0569C76.4878 69.0253 76.7547 68.4431 76.9311 68.0572C76.9696 67.9737 77.0035 67.8992 77.0352 67.8315C77.3157 67.3328 77.5916 66.8296 77.863 66.3264C77.8992 66.2564 77.9399 66.1616 77.9829 66.0556C78.1073 65.7532 78.2792 65.3335 78.5597 65.2748C78.9631 65.2193 79.3719 65.2139 79.7766 65.259C80.0028 65.2725 80.2154 65.2838 80.4009 65.2861H80.5796C81.1139 65.3198 81.65 65.2587 82.1629 65.1055C82.7284 64.8979 83.0383 64.5279 83.3595 64.1014C83.9883 63.2619 84.5537 62.3796 85.1034 61.5266L85.3296 61.9282C85.7599 62.7628 86.2561 63.5619 86.8134 64.318C87.1497 64.7766 87.6417 65.0974 88.1977 65.2206C88.7754 65.3076 89.3612 65.3296 89.9439 65.2861C90.17 65.2861 90.4211 65.268 90.636 65.268V65.1439L90.6677 64.4286V64.1645H89.4756" fill="white"/>
<path fill-rule="evenodd" clip-rule="evenodd" d="M25.4414 64.6927H29.3839L35.7172 59.2294L35.9547 51.6924L39.6122 51.7398L39.7072 55.7701L44.5386 52.1189L60.7406 64.6317L63.5431 64.7739L64.4478 64.3497L65.3978 62.831L66.1103 62.3571L66.6803 62.7385L67.1078 63.5915L67.6303 64.537L68.7613 64.7288H70.521L72.516 69.9415L74.0835 55.8174L75.936 66.8139C75.936 66.8139 78.216 64.9657 78.3585 64.8709C78.501 64.7762 79.641 64.6317 79.641 64.6317L81.2108 64.8236L83.0203 63.6953L84.1512 62.0818L85.056 60.8023L86.766 63.0792L84.676 75.1182C84.676 75.1182 78.1165 85.4512 78.1165 85.7355C78.1165 86.0198 47.0448 94.085 46.6761 94.085C46.3074 94.085 23.5029 83.3548 23.5029 83.3548L25.5002 65.0605" fill="#1D70B6"/>
<path d="M89.4779 64.1533H89.1974C88.9115 64.1772 88.6236 64.1551 88.3447 64.0878C87.9624 63.9682 87.6774 63.535 87.4399 63.1852C87.3834 63.0994 87.3314 63.0204 87.2816 62.9595C86.9286 62.4759 86.6096 61.9685 86.3271 61.4408C86.2954 61.3791 86.2637 61.3137 86.2321 61.2445C86.1012 60.8838 85.8568 60.575 85.5354 60.3644C84.8207 59.9763 84.2439 60.7413 83.9951 61.073C83.7161 61.4582 83.4608 61.8598 83.2305 62.2758C83.0337 62.612 82.8324 62.9528 82.5995 63.289C82.4072 63.5967 82.1434 63.8537 81.8304 64.0382C81.4718 64.1811 81.0832 64.2331 80.6995 64.1894H80.4258H80.0955C79.6432 64.1894 79.1591 64.1894 78.6909 64.1736C78.2951 64.1736 77.8495 64.1736 77.5713 64.485C77.3691 64.7319 77.2058 65.0081 77.0872 65.3041C77.0284 65.4328 76.9696 65.5614 76.9063 65.6787L76.5806 66.2609L76.386 66.6062C76.1598 65.0694 76.0241 63.5011 75.8907 61.9779C75.8251 61.2264 75.7595 60.475 75.6826 59.7213C75.574 58.6471 75.4677 57.9634 75.3614 56.8892C75.2242 55.4932 75.0839 54.0963 74.9407 52.6987C74.9113 52.4031 74.8796 52.1075 74.8457 51.8096C74.8457 51.7464 74.8457 51.6787 74.8321 51.6065C74.838 51.3845 74.7939 51.164 74.7032 50.9611C74.6346 50.8376 74.5236 50.7429 74.3907 50.6944C74.2577 50.6459 74.1117 50.6468 73.9794 50.6971C73.6446 50.81 73.6129 51.1484 73.5994 51.3267C73.5315 52.0962 73.4772 52.8635 73.4207 53.633C73.389 54.0707 73.3551 54.5108 73.3234 54.9463C73.1289 57.4489 72.9321 59.5566 72.7308 62.0569C72.58 63.984 72.4232 65.9104 72.2603 67.836C72.2309 67.7322 72.2083 67.6217 72.1879 67.5133C72.1676 67.405 72.154 67.3396 72.1337 67.2583C72.0206 66.8251 71.909 66.3918 71.7989 65.9585C71.7627 65.8096 71.7288 65.6562 71.6971 65.5072C71.6416 65.2301 71.5722 64.956 71.489 64.6858C71.4076 64.4376 71.1791 64.1487 70.6137 64.16C70.2201 64.16 69.8197 64.16 69.4329 64.16H68.9489C68.8494 64.16 68.7476 64.16 68.639 64.16C68.3956 64.1929 68.1479 64.1729 67.9129 64.1014C67.6868 63.993 67.5895 63.7019 67.5035 63.4447C67.4741 63.3522 67.4447 63.2664 67.4153 63.1919L67.3656 63.0769C67.2339 62.6734 66.9909 62.3152 66.6644 62.0433C66.5574 61.96 66.434 61.9001 66.3023 61.8675C66.1706 61.8348 66.0335 61.8301 65.8999 61.8538C65.4045 61.9508 65.029 62.4405 64.8503 62.7248C64.744 62.8896 64.6513 63.0633 64.5608 63.2303C64.4437 63.4535 64.3138 63.6697 64.1718 63.878C63.9682 64.1645 63.6267 64.1645 63.1878 64.16H63.129C61.1974 64.16 64.6536 64.16 62.7536 64.16C62.0999 64.16 61.4575 64.1442 60.8558 64.1036L44.9592 51.153C44.9087 51.1129 44.8461 51.091 44.7816 51.091C44.7171 51.091 44.6545 51.1129 44.6041 51.153L40.2228 54.6981V51.3583C40.2222 51.3225 40.2145 51.2871 40.2002 51.2542C40.1859 51.2213 40.1653 51.1915 40.1394 51.1665C40.1136 51.1416 40.0831 51.122 40.0496 51.1088C40.0162 51.0956 39.9805 51.0892 39.9446 51.0898H35.7171C35.6449 51.0892 35.5754 51.1171 35.5237 51.1674C35.472 51.2176 35.4423 51.2863 35.4411 51.3583V58.6381L29.1078 64.1126L24.774 64.0968C24.7384 64.0962 24.7029 64.1027 24.6698 64.1157C24.6366 64.1288 24.6064 64.1482 24.5807 64.173C24.5551 64.1977 24.5346 64.2272 24.5204 64.2598C24.5062 64.2925 24.4986 64.3276 24.498 64.3631V64.9498C24.4983 64.9856 24.5057 65.0209 24.5198 65.0538C24.5338 65.0867 24.5543 65.1165 24.5799 65.1415C24.6056 65.1664 24.636 65.1861 24.6693 65.1993C24.7026 65.2125 24.7382 65.219 24.774 65.2184H24.7989L29.1395 65.2342L29.628 65.2567C29.6661 65.2589 29.7043 65.2532 29.7401 65.24C29.7759 65.2268 29.8086 65.2064 29.8361 65.18L36.5155 59.4731C36.5445 59.4482 36.5678 59.4173 36.5838 59.3827C36.5998 59.348 36.6081 59.3104 36.6083 59.2722V52.2045H39.0421V56.6027C39.0438 56.6747 39.0741 56.7431 39.1262 56.793C39.1783 56.8428 39.2481 56.8702 39.3203 56.8689C39.3905 56.8696 39.4583 56.8439 39.5103 56.7967L44.7782 52.6401L60.3718 65.2251C60.4221 65.2645 60.4842 65.2859 60.5482 65.2861H63.4276L62.3555 65.2703C62.5025 65.2703 62.6563 65.2703 62.8078 65.2838C63.4864 65.3109 64.269 65.3425 64.7553 64.8979C65.1888 64.4567 65.5478 63.9484 65.8184 63.3928C65.8863 63.2709 65.9519 63.1513 66.0197 63.034C66.2525 63.4518 66.4573 63.8845 66.6327 64.3293C66.715 64.563 66.8569 64.7713 67.0446 64.9336C67.2322 65.0958 67.459 65.2064 67.7026 65.2545C67.9272 65.288 68.1551 65.2941 68.3812 65.2725C68.4558 65.2725 68.5327 65.2725 68.6074 65.2725C68.8494 65.2725 69.0937 65.2725 69.338 65.2725C69.4872 65.2725 69.6388 65.2725 69.7903 65.2725H69.9532C70.1251 65.2725 70.3354 65.2545 70.4214 65.3425C70.5331 65.4969 70.5976 65.6803 70.6069 65.8705C70.6182 65.9495 70.6318 66.0262 70.6476 66.0962C70.9281 67.214 71.2123 68.331 71.5003 69.4473L71.5659 69.7045C71.67 70.1107 71.7785 70.5462 71.8713 70.9863V71.0179C71.9233 71.2751 72.0319 71.8099 72.5385 71.8325H72.586C72.6596 71.8361 72.7331 71.8249 72.8022 71.7997C72.8713 71.7745 72.9347 71.7358 72.9887 71.6858C73.2148 71.4714 73.2148 71.081 73.2148 70.8215C73.2148 70.7606 73.2148 70.7064 73.2148 70.6613C73.2646 70.0189 73.3159 69.3758 73.3687 68.7319L73.4885 67.2493C73.5496 66.5046 73.6084 65.76 73.6695 65.0153C73.7404 64.1217 73.8067 63.2273 73.8685 62.3322C73.9794 60.7999 74.0947 59.6085 74.2417 58.0446L74.2666 57.7806C74.4363 59.1865 74.5765 60.2087 74.719 61.5852L74.8457 62.8444C74.9512 63.9186 75.059 64.9927 75.1691 66.0669L75.332 67.7187C75.3347 67.7728 75.3347 67.827 75.332 67.8812C75.332 68.1858 75.332 68.6936 75.5898 68.9305C75.6383 68.9758 75.6958 69.0104 75.7585 69.0322C75.8212 69.054 75.8878 69.0624 75.954 69.0569C76.4878 69.0253 76.7547 68.4431 76.9311 68.0572C76.9696 67.9737 77.0035 67.8992 77.0352 67.8315C77.3157 67.3328 77.5916 66.8296 77.863 66.3264C77.8992 66.2564 77.9399 66.1616 77.9829 66.0556C78.1073 65.7532 78.2792 65.3335 78.5597 65.2748C78.9631 65.2193 79.3719 65.2139 79.7766 65.259C80.0028 65.2725 80.2154 65.2838 80.4009 65.2861H80.5796C81.1139 65.3198 81.65 65.2587 82.1629 65.1055C82.7284 64.8979 83.0383 64.5279 83.3595 64.1014C83.9883 63.2619 84.5537 62.3796 85.1034 61.5266L85.3296 61.9282C85.7599 62.7628 86.2561 63.5619 86.8134 64.318C87.1497 64.7766 87.6417 65.0974 88.1977 65.2206C88.7754 65.3076 89.3612 65.3296 89.9439 65.2861C90.17 65.2861 90.4211 65.268 90.636 65.268V65.1439L90.6677 64.4286V64.1645H89.4756" fill="white"/>
<path fill-rule="evenodd" clip-rule="evenodd" d="M80.7844 77.1527C84.1936 72.0617 86.013 66.0765 86.0126 59.9538C86.0126 55.8887 85.21 51.8634 83.6506 48.1078C82.0912 44.3522 79.8056 40.9397 76.9243 38.0654C74.043 35.191 70.6224 32.911 66.8578 31.3556C63.0933 29.8001 59.0585 28.9997 54.9838 29C48.8468 29 42.8477 30.8156 37.745 34.2172C32.6423 37.6188 28.6652 42.4536 26.3168 48.1102C23.9684 53.7669 23.354 59.9912 24.5515 65.9962C25.7489 72.0011 28.7043 77.517 33.044 81.8462C37.3837 86.1754 42.9127 89.1235 48.9318 90.3177C54.9509 91.5119 61.1899 90.8985 66.8596 88.5552C72.5293 86.2118 77.3752 82.2437 80.7844 77.1527ZM79.3608 76.2061C82.5828 71.3954 84.3026 65.7396 84.3026 59.9538C84.3029 56.1127 83.5448 52.309 82.0717 48.7601C80.5986 45.2112 78.4392 41.9866 75.7169 39.2702C72.9947 36.5539 69.7628 34.3991 66.2058 32.9289C62.6488 31.4587 58.8363 30.7018 54.9861 30.7015C49.1868 30.7006 43.5174 32.4155 38.695 35.6292C33.8726 38.843 30.1138 43.4112 27.8938 48.7563C25.6739 54.1014 25.0926 59.9832 26.2234 65.6579C27.3543 71.3326 30.1465 76.5453 34.2469 80.6368C38.3474 84.7283 43.5719 87.5147 49.2597 88.6438C54.9475 89.7729 60.8432 89.1938 66.2012 86.9799C71.5592 84.766 76.1388 81.0167 79.3608 76.2061Z" fill="white"/>
</g>
</svg>
