<svg width="238" height="120" viewBox="0 0 238 120" fill="none" xmlns="http://www.w3.org/2000/svg">
<path d="M71.2192 51.4087V54.6652H58.1447V62.3689H69.8175V65.6254H58.1447V73.4289H71.7103V76.72H54.7441V51.4087H71.2192Z" fill="#59595B"/>
<path d="M99.7171 51.4088V77.5647H99.6112L80.9987 58.6912L81.068 76.7241H77.6328V50.6333H77.808L96.3858 69.7165L96.3166 51.3986L99.7171 51.4088Z" fill="#59595B"/>
<path d="M121.974 51.4087V54.6652H115.173V76.7241H111.774V54.6652H105.148V51.4087H121.974Z" fill="#59595B"/>
<path d="M131.299 70.7829C131.827 71.6774 132.583 72.4167 133.489 72.9261C134.424 73.4545 135.483 73.7263 136.558 73.7138C137.663 73.7293 138.754 73.4638 139.728 72.9424C140.653 72.4499 141.424 71.7109 141.955 70.8074C142.5 69.8831 142.782 68.8273 142.77 67.7544V51.4087H146.099V67.8663C146.131 69.5454 145.694 71.2002 144.838 72.6453C144.013 74.02 142.821 75.1373 141.395 75.8713C139.898 76.6195 138.248 77.0091 136.575 77.0091C134.902 77.0091 133.251 76.6195 131.755 75.8713C130.334 75.1406 129.149 74.0237 128.336 72.6493C127.491 71.2003 127.061 69.5471 127.093 67.8704V51.4087H130.492V67.7605C130.478 68.8229 130.757 69.8686 131.299 70.7829Z" fill="#59595B"/>
<path d="M167.017 76.7238L161.058 67.3756C160.778 67.4035 160.497 67.4151 160.216 67.4102H156.465V76.7238H153.064V51.4084H159.831C161.42 51.3807 162.998 51.6908 164.458 52.3182C165.76 52.8811 166.868 53.8122 167.647 54.9967C168.42 56.1772 168.805 57.5958 168.804 59.2526C168.82 60.7512 168.465 62.2305 167.771 63.5593C167.072 64.8754 165.956 65.9222 164.597 66.535L170.978 76.7238H167.017ZM164.089 62.6801C164.881 61.7656 165.311 60.5939 165.3 59.3849C165.295 58.6216 165.121 57.8688 164.79 57.1806C164.436 56.4385 163.877 55.8128 163.179 55.3773C162.441 54.899 161.514 54.6589 160.391 54.6589H156.465V64.1129H160.147C161.968 64.117 163.282 63.6408 164.089 62.6841V62.6801Z" fill="#59595B"/>
<path d="M192.676 51.4087V54.6652H179.602V62.3689H191.272V65.6254H179.602V73.4289H193.165V76.72H176.201V51.4087H192.676Z" fill="#59595B"/>
<path d="M51.3534 44.2686H49.5564L38.395 70.7237L27.2357 44.2686H25.4387H23.6416L24.1612 45.502L35.3449 72.008L38.395 79.2436L41.4472 72.008L52.6309 45.502L53.1505 44.2686H51.3534Z" fill="#59595B"/>
<path d="M45.1209 40.7476H43.3462L38.4827 53.4052L33.4318 40.7618H31.649H29.8662L38.5357 62.4604L46.8955 40.7476H45.1209Z" fill="#E4686D"/>
<path d="M209.475 54.8298C208.532 54.5394 207.552 54.3859 206.565 54.3739C205.187 54.3739 204.094 54.6833 203.287 55.302C202.895 55.5965 202.581 55.9814 202.37 56.4237C202.16 56.8661 202.06 57.3527 202.079 57.8421C202.079 58.8923 202.554 59.7499 203.505 60.4148C204.456 61.0796 205.805 61.7391 207.554 62.3931C208.705 62.7883 209.815 63.2984 210.864 63.9155C211.783 64.4845 212.552 65.2655 213.106 66.1931C213.702 67.1619 214 68.3932 214 69.8872C214.016 71.184 213.662 72.4587 212.981 73.563C212.283 74.6797 211.284 75.5776 210.098 76.1539C208.841 76.7795 207.371 77.0922 205.689 77.0922C204.15 77.0961 202.621 76.8416 201.166 76.3391C199.811 75.8886 198.525 75.2516 197.346 74.4463L198.853 71.7515C199.808 72.4528 200.858 73.0128 201.973 73.4144C203.056 73.8429 204.208 74.0738 205.373 74.0962C206.639 74.1227 207.883 73.7557 208.931 73.046C209.948 72.3458 210.456 71.3071 210.455 69.9299C210.475 69.3983 210.37 68.8695 210.148 68.3859C209.926 67.9023 209.594 67.4774 209.177 67.1456C208.323 66.4576 207.125 65.8097 205.583 65.2018C204.363 64.7577 203.175 64.2313 202.026 63.6265C201.066 63.1061 200.232 62.3831 199.581 61.5077C198.902 60.6108 198.562 59.4846 198.562 58.1291C198.562 56.1467 199.258 54.5422 200.648 53.3156C202.039 52.0889 203.845 51.441 206.064 51.3718C208.736 51.3568 211.363 52.0598 213.67 53.4071L212.374 56.0327C211.452 55.5332 210.48 55.1301 209.475 54.8298Z" fill="#59595B"/>
</svg>
