<svg width="321" height="150" viewBox="0 0 321 150" fill="none" xmlns="http://www.w3.org/2000/svg">
<path d="M50.6967 41.1929H33.1667L31.0535 46.8171H54.4476C54.7891 46.8171 55.1269 46.8875 55.4399 47.0237C55.753 47.16 56.0346 47.3592 56.2671 47.609C56.3065 47.3469 56.3265 47.0822 56.3269 46.8171C56.3249 45.3261 55.731 43.8967 54.6756 42.8424C53.6202 41.7881 52.1893 41.1949 50.6967 41.1929Z" fill="url(#paint0_linear_860_5)"/>
<path d="M51.947 49.9509H21.896L19.7827 55.5803H55.7031C56.0436 55.5789 56.3808 55.6472 56.6938 55.7812C57.0068 55.9152 57.2889 56.112 57.5226 56.3593C57.5629 56.1016 57.5829 55.8412 57.5824 55.5803C57.5824 54.0873 56.9887 52.6555 55.9319 51.5997C54.875 50.544 53.4416 49.9509 51.947 49.9509Z" fill="url(#paint1_linear_860_5)"/>
<path d="M53.8342 58.7095H26.2812L24.1653 64.3311H57.5825C57.923 64.3297 58.2602 64.398 58.5732 64.532C58.8862 64.666 59.1683 64.8628 59.402 65.1101C59.5175 64.3136 59.4597 63.5016 59.2326 62.7295C59.0055 61.9573 58.6144 61.2432 58.0859 60.6357C57.5575 60.0282 56.9041 59.5417 56.1704 59.2093C55.4367 58.8769 54.6399 58.7064 53.8342 58.7095Z" fill="url(#paint2_linear_860_5)"/>
<path d="M55.0793 67.4624H41.3027L39.1895 73.0918H58.8249C59.1656 73.0894 59.503 73.1574 59.8162 73.2914C60.1293 73.4255 60.4113 73.6227 60.6445 73.8708C60.6847 73.6131 60.7047 73.3526 60.7042 73.0918C60.7043 71.6006 60.112 70.1703 59.0574 69.1149C58.0028 68.0595 56.5721 67.4652 55.0793 67.4624Z" fill="url(#paint3_linear_860_5)"/>
<path d="M66.35 81.222H81.9981L84.1113 75.5978H62.5705C62.2302 75.5981 61.8934 75.5291 61.5806 75.3952C61.2678 75.2613 60.9855 75.0652 60.751 74.8188C60.7177 75.0772 60.6995 75.3373 60.6964 75.5978C60.6964 77.0895 61.2896 78.52 62.3455 79.5747C63.4013 80.6295 64.8334 81.222 66.3266 81.222H66.35Z" fill="url(#paint4_linear_860_5)"/>
<path d="M67.6108 89.9802H90.1471L92.263 84.3508H63.8417C63.5014 84.351 63.1646 84.2821 62.8518 84.1482C62.539 84.0142 62.2567 83.8181 62.0222 83.5718C61.9883 83.8301 61.971 84.0903 61.9702 84.3508C61.9702 85.0905 62.1162 85.8229 62.3997 86.5062C62.6832 87.1896 63.0988 87.8104 63.6226 88.3332C64.1465 88.856 64.7683 89.2706 65.4526 89.5532C66.137 89.8358 66.8703 89.9809 67.6108 89.9802Z" fill="url(#paint5_linear_860_5)"/>
<path d="M68.8532 98.7385H81.9981L84.1114 93.1091H65.0972C64.7558 93.108 64.4184 93.0372 64.1054 92.901C63.7925 92.7648 63.5108 92.5661 63.2776 92.3171C63.2412 92.5796 63.223 92.8442 63.223 93.1091C63.223 94.6012 63.816 96.0323 64.8717 97.0878C65.9275 98.1434 67.3595 98.7371 68.8532 98.7385Z" fill="url(#paint6_linear_860_5)"/>
<path d="M70.7299 107.491H73.8491L75.9624 101.862H66.9739C66.6333 101.864 66.296 101.796 65.9829 101.662C65.6699 101.528 65.3878 101.331 65.1543 101.083C65.1208 101.341 65.1025 101.601 65.0997 101.862C65.0994 102.601 65.2447 103.333 65.5275 104.015C65.8103 104.698 66.2249 105.319 66.7477 105.841C67.2705 106.364 67.8913 106.779 68.5745 107.062C69.2578 107.345 69.9902 107.491 70.7299 107.491Z" fill="url(#paint7_linear_860_5)"/>
<path d="M113.931 41.1929L100.786 75.5977H107.672L110.919 66.2058H123.837L127.081 75.5977H133.97L120.819 41.1929H113.931ZM112.644 61.2152L117.375 47.5389L122.106 61.2152H112.644Z" fill="#6D2077"/>
<path d="M189.689 49.3279H185.936C184.7 49.3265 183.476 49.5684 182.334 50.0398C181.193 50.5112 180.155 51.2028 179.281 52.075C178.407 52.9473 177.713 53.9831 177.24 55.1232C176.767 56.2634 176.523 57.4855 176.523 58.7198V66.2213C176.523 68.7122 177.514 71.1011 179.277 72.8624C181.04 74.6237 183.432 75.6132 185.925 75.6132H195.324L197.204 70.6043H185.936C185.525 70.6061 185.118 70.5267 184.738 70.3709C184.358 70.2151 184.013 69.9858 183.722 69.6963C183.431 69.4068 183.2 69.0627 183.042 68.6839C182.884 68.305 182.803 67.8987 182.803 67.4884V64.9853H196.697C197.336 64.9562 197.939 64.6838 198.384 64.2241C198.828 63.7644 199.079 63.1523 199.086 62.5134V58.7535C199.094 56.2646 198.113 53.8742 196.359 52.107C194.604 50.3398 192.22 49.3403 189.728 49.3279H189.689ZM193.45 60.5815H182.793V58.081C182.793 57.0859 183.189 56.1315 183.893 55.4279C184.597 54.7242 185.553 54.3289 186.549 54.3289H189.668C190.161 54.3282 190.65 54.4246 191.106 54.6125C191.562 54.8005 191.976 55.0763 192.326 55.4242C192.675 55.7721 192.952 56.1854 193.142 56.6403C193.331 57.0953 193.429 57.5831 193.429 58.0758L193.45 60.5815Z" fill="#6D2077"/>
<path d="M202.213 58.7093V75.5871H208.477V58.0809C208.477 57.4177 208.741 56.7817 209.21 56.3127C209.68 55.8438 210.316 55.5804 210.98 55.5804H216.634L218.516 49.9509H210.999C208.674 49.9461 206.442 50.8639 204.795 52.5024C203.147 54.141 202.218 56.3661 202.213 58.6885V58.7093Z" fill="#6D2077"/>
<path d="M227.257 49.9509H220.998V75.5923H227.257V49.9509Z" fill="#6D2077"/>
<path d="M225.381 39.9438H222.872C221.49 39.9438 220.369 41.0634 220.369 42.4444V44.3243C220.369 45.7053 221.49 46.8248 222.872 46.8248H225.381C226.763 46.8248 227.884 45.7053 227.884 44.3243V42.4444C227.884 41.0634 226.763 39.9438 225.381 39.9438Z" fill="#6D2077"/>
<path d="M240.408 54.952H247.92L249.799 49.9509H240.397C239.163 49.9509 237.94 50.1939 236.8 50.6659C235.659 51.1379 234.623 51.8298 233.75 52.7019C232.877 53.5741 232.185 54.6094 231.713 55.7489C231.24 56.8883 230.998 58.1096 230.998 59.3428V66.2212C230.998 68.7116 231.988 71.1001 233.751 72.8613C235.513 74.6225 237.904 75.6123 240.397 75.613H247.909L249.789 70.6042H240.389C239.979 70.6059 239.572 70.5266 239.192 70.3708C238.812 70.2149 238.466 69.9857 238.175 69.6962C237.884 69.4067 237.653 69.0626 237.496 68.6837C237.338 68.3048 237.257 67.8986 237.257 67.4883V58.099C237.256 57.2705 237.583 56.4753 238.168 55.8878C238.753 55.3003 239.547 54.9684 240.376 54.9649L240.408 54.952Z" fill="#6D2077"/>
<path d="M266.705 49.9509H257.303L255.429 54.952H266.071C266.899 54.9554 267.693 55.2866 268.277 55.873C268.862 56.4594 269.19 57.2533 269.19 58.0809V60.5087C267.859 59.7365 266.347 59.3307 264.808 59.3324H260.435C258.444 59.3324 256.534 60.1227 255.125 61.5296C253.717 62.9364 252.926 64.8444 252.926 66.834V68.0699C252.925 69.0551 253.119 70.0307 253.496 70.9411C253.872 71.8514 254.425 72.6788 255.122 73.3758C255.819 74.0729 256.646 74.626 257.557 75.0037C258.468 75.3813 259.444 75.576 260.43 75.5767H271.088C272.25 75.5767 273.365 75.1154 274.187 74.2944C275.008 73.4734 275.47 72.3599 275.47 71.1988V58.7092C275.471 57.5598 275.245 56.4214 274.805 55.3592C274.365 54.2969 273.721 53.3316 272.907 52.5183C272.094 51.705 271.129 51.0597 270.066 50.6192C269.003 50.1787 267.864 49.9516 266.713 49.9509H266.705ZM269.208 71.204H262.323C261.911 71.205 261.502 71.1249 261.122 70.9681C260.741 70.8113 260.394 70.581 260.103 70.2903C259.811 69.9997 259.58 69.6544 259.422 69.2743C259.264 68.8942 259.183 68.4867 259.183 68.0751V66.8184C259.183 65.992 259.511 65.1994 260.096 64.6151C260.681 64.0308 261.475 63.7025 262.302 63.7025H266.066C266.476 63.7008 266.883 63.7801 267.263 63.9359C267.643 64.0917 267.989 64.321 268.28 64.6105C268.571 64.9 268.802 65.2441 268.959 65.623C269.117 66.0019 269.198 66.4081 269.198 66.8184V71.2118L269.208 71.204Z" fill="#6D2077"/>
<path d="M292.686 59.9582H287.367C286.707 59.9815 286.063 59.7432 285.577 59.2952C285.091 58.8471 284.802 58.2256 284.773 57.5657C284.743 56.9058 284.976 56.261 285.42 55.7715C285.864 55.2821 286.484 54.9875 287.144 54.952H297.393L299.272 49.9509H286.127C284.166 49.9585 282.286 50.7315 280.888 52.1049C279.49 53.4783 278.684 55.3433 278.643 57.3018C278.603 59.2602 279.33 61.157 280.67 62.5872C282.01 64.0174 283.857 64.8677 285.816 64.9566H291.752C292.479 64.9878 293.165 65.298 293.668 65.8224C294.171 66.3469 294.452 67.0451 294.452 67.7713C294.452 68.4976 294.171 69.1958 293.668 69.7202C293.165 70.2447 292.479 70.5549 291.752 70.5861H280.492L278.613 75.5923H292.699C294.774 75.5923 296.765 74.7686 298.233 73.3023C299.701 71.8361 300.525 69.8475 300.525 67.7739C300.525 65.7004 299.701 63.7118 298.233 62.2455C296.765 60.7793 294.774 59.9556 292.699 59.9556L292.686 59.9582Z" fill="#6D2077"/>
<path d="M164.987 49.3279H160.927C159.772 49.3265 158.63 49.5712 157.577 50.0459C156.524 50.5205 155.585 51.2141 154.821 52.0803C154.058 51.2126 153.118 50.5181 152.064 50.0434C151.01 49.5687 149.867 49.3247 148.71 49.3279H144.637C143.568 49.3265 142.51 49.5356 141.522 49.9431C140.534 50.3507 139.637 50.9487 138.88 51.703C138.124 52.4573 137.524 53.3531 137.114 54.3392C136.705 55.3254 136.494 56.3824 136.493 57.45V75.5976H142.732V57.4578C142.732 56.7106 143.029 55.994 143.558 55.4657C144.087 54.9374 144.804 54.6405 145.552 54.6405H148.684C149.431 54.6426 150.147 54.9402 150.674 55.4683C151.202 55.9963 151.499 56.7117 151.499 57.4578V75.5976H158.068V57.4578C158.068 56.7115 158.364 55.9957 158.892 55.4675C159.42 54.9393 160.136 54.6419 160.883 54.6405H164.015C164.762 54.6426 165.478 54.9402 166.005 55.4683C166.533 55.9963 166.83 56.7117 166.83 57.4578V75.5976H173.108V57.4578C173.108 55.3048 172.253 53.2397 170.731 51.7155C169.208 50.1914 167.143 49.3327 164.987 49.3279Z" fill="#6D2077"/>
<path d="M123.011 90.3101H120.819C119.574 90.3101 118.379 90.8044 117.498 91.6843C116.617 92.5643 116.122 93.7577 116.122 95.0021V99.7019C116.123 100.946 116.618 102.139 117.499 103.018C118.38 103.897 119.574 104.391 120.819 104.391H126.143L127.081 101.886H120.819C120.573 101.886 120.329 101.838 120.101 101.744C119.874 101.65 119.667 101.512 119.492 101.338C119.318 101.164 119.18 100.958 119.086 100.731C118.991 100.503 118.943 100.26 118.943 100.014V98.4556H126.455C126.786 98.4556 127.104 98.324 127.339 98.0898C127.573 97.8555 127.705 97.5379 127.705 97.2066V95.0177C127.706 93.7755 127.215 92.5835 126.338 91.703C125.46 90.8224 124.27 90.3253 123.026 90.3205L123.011 90.3101ZM125.202 96.2407H118.943V94.3633C118.943 93.8659 119.14 93.3888 119.492 93.0368C119.844 92.6848 120.321 92.4867 120.819 92.486H123.322C123.569 92.486 123.814 92.5346 124.042 92.6289C124.27 92.7233 124.477 92.8615 124.651 93.0359C124.826 93.2102 124.964 93.4171 125.059 93.6449C125.153 93.8727 125.202 94.1168 125.202 94.3633V96.2407Z" fill="#63666A"/>
<path d="M236.025 90.3101H233.834C232.588 90.3101 231.393 90.8044 230.512 91.6843C229.632 92.5643 229.137 93.7577 229.137 95.0021V99.7019C229.137 100.946 229.633 102.139 230.513 103.018C231.394 103.897 232.588 104.391 233.834 104.391H239.168L240.101 101.891H233.834C233.335 101.891 232.857 101.693 232.504 101.341C232.151 100.989 231.953 100.512 231.952 100.014V98.4556H239.469C239.801 98.4556 240.119 98.324 240.353 98.0898C240.588 97.8555 240.719 97.5379 240.719 97.2066V95.0177C240.721 93.7755 240.229 92.5835 239.352 91.703C238.475 90.8224 237.284 90.3253 236.041 90.3205L236.025 90.3101ZM238.211 96.2407H231.952V94.3633C231.953 93.8652 232.151 93.3877 232.504 93.0357C232.857 92.6837 233.335 92.486 233.834 92.486H236.337C236.584 92.486 236.828 92.5346 237.056 92.6289C237.284 92.7233 237.491 92.8615 237.666 93.0359C237.84 93.2102 237.979 93.4171 238.073 93.6449C238.168 93.8727 238.216 94.1168 238.216 94.3633L238.211 96.2407Z" fill="#63666A"/>
<path d="M238.84 85.5999H236.025L233.522 88.7288H236.337L238.84 85.5999Z" fill="#63666A"/>
<path d="M129.896 94.9708V104.363H132.717V94.6696C132.717 94.2564 132.881 93.8601 133.173 93.5679C133.466 93.2757 133.863 93.1116 134.276 93.1116H137.102L138.043 90.6111H134.281C133.122 90.6111 132.01 91.0697 131.188 91.8867C130.366 92.7037 129.902 93.8126 129.896 94.9708Z" fill="#63666A"/>
<path d="M146.181 100.922L142.42 90.6033H139.293L144.611 104.363H144.928H147.431H147.743L153.067 90.6033H149.935L146.181 100.922Z" fill="#63666A"/>
<path d="M157.135 90.6033H154.32V104.363H157.135V90.6033Z" fill="#63666A"/>
<path d="M156.194 85.9114H155.256C154.564 85.9114 154.003 86.4717 154.003 87.1629V88.1003C154.003 88.7915 154.564 89.3518 155.256 89.3518H156.194C156.886 89.3518 157.447 88.7915 157.447 88.1003V87.1629C157.447 86.4717 156.886 85.9114 156.194 85.9114Z" fill="#63666A"/>
<path d="M260.753 90.6033H257.938V104.363H260.753V90.6033Z" fill="#63666A"/>
<path d="M259.817 85.9114H258.878C258.187 85.9114 257.626 86.4717 257.626 87.1629V88.1003C257.626 88.7915 258.187 89.3518 258.878 89.3518H259.817C260.509 89.3518 261.07 88.7915 261.07 88.1003V87.1629C261.07 86.4717 260.509 85.9114 259.817 85.9114Z" fill="#63666A"/>
<path d="M164.021 93.1092H168.406L169.344 90.6086H164.021C162.776 90.6086 161.581 91.1027 160.701 91.9821C159.821 92.8616 159.326 94.0544 159.326 95.2981V99.7123C159.327 100.956 159.822 102.148 160.702 103.027C161.582 103.907 162.776 104.401 164.021 104.402H168.406L169.344 101.896H164.021C163.774 101.897 163.531 101.849 163.303 101.755C163.075 101.662 162.868 101.525 162.694 101.351C162.519 101.178 162.381 100.972 162.286 100.745C162.191 100.518 162.142 100.275 162.141 100.029V94.9709C162.145 94.4757 162.345 94.0022 162.697 93.6535C163.049 93.3048 163.525 93.1091 164.021 93.1092Z" fill="#63666A"/>
<path d="M267.641 93.1092H272.023L272.959 90.6086H267.641C267.024 90.6083 266.414 90.7293 265.844 90.9649C265.274 91.2004 264.756 91.5457 264.32 91.9812C263.884 92.4167 263.538 92.9338 263.302 93.5029C263.065 94.072 262.944 94.682 262.944 95.2981V99.7123C262.945 100.956 263.44 102.149 264.321 103.028C265.201 103.908 266.396 104.402 267.641 104.402H272.023L272.964 101.896H267.641C267.395 101.896 267.151 101.848 266.923 101.754C266.695 101.66 266.488 101.522 266.314 101.349C266.14 101.175 266.001 100.968 265.907 100.741C265.813 100.514 265.764 100.27 265.764 100.024V94.9709C265.767 94.4757 265.966 94.0018 266.318 93.6529C266.669 93.304 267.145 93.1085 267.641 93.1092Z" fill="#63666A"/>
<path d="M217.713 96.1186L211.919 85.5999H208.789V104.363H211.609V90.0842L216.616 99.0502H218.807L223.813 90.0842V104.363H226.634V85.5999H223.501L217.713 96.1186Z" fill="#63666A"/>
<path d="M178.424 90.3101H175.915C174.593 90.3155 173.326 90.8429 172.391 91.7772C171.456 92.7116 170.929 93.9771 170.924 95.2981V99.7123C170.924 101.039 171.452 102.311 172.391 103.249C173.33 104.186 174.603 104.713 175.931 104.713H178.439C179.764 104.709 181.034 104.181 181.969 103.243C182.905 102.306 183.43 101.036 183.43 99.7123V95.3215C183.431 94.6641 183.302 94.0129 183.05 93.4053C182.799 92.7976 182.431 92.2454 181.966 91.78C181.501 91.3147 180.949 90.9453 180.341 90.6931C179.733 90.4409 179.082 90.3107 178.424 90.3101ZM178.46 102.174H175.915C175.334 102.173 174.777 101.941 174.366 101.53C173.956 101.12 173.725 100.563 173.724 99.9824V94.9709C173.725 94.3913 173.957 93.8359 174.368 93.4265C174.778 93.0171 175.335 92.7872 175.915 92.7872H178.424C178.711 92.7869 178.995 92.8431 179.261 92.9527C179.526 93.0623 179.768 93.2231 179.971 93.4259C180.174 93.6287 180.336 93.8695 180.446 94.1347C180.556 94.3998 180.612 94.684 180.612 94.9709L180.646 99.9772C180.647 100.558 180.418 101.116 180.008 101.527C179.598 101.939 179.041 102.172 178.46 102.174Z" fill="#63666A"/>
<path d="M282.057 90.3101H279.551C278.891 90.3084 278.238 90.4366 277.628 90.6875C277.017 90.9384 276.463 91.307 275.995 91.7722C275.528 92.2374 275.157 92.7901 274.904 93.3987C274.65 94.0073 274.519 94.6598 274.519 95.3189V99.7019C274.52 101.029 275.049 102.301 275.988 103.239C276.928 104.176 278.202 104.703 279.53 104.703H282.057C283.385 104.703 284.658 104.176 285.597 103.238C286.536 102.3 287.063 101.028 287.063 99.7019V95.3215C287.064 93.994 286.537 92.7205 285.598 91.7808C284.66 90.8411 283.386 90.3121 282.057 90.3101ZM282.091 102.174H279.551C278.97 102.173 278.412 101.942 278.002 101.531C277.591 101.12 277.36 100.563 277.36 99.9824V94.971C277.36 94.684 277.417 94.3998 277.527 94.1347C277.637 93.8696 277.798 93.6287 278.001 93.4259C278.204 93.2231 278.446 93.0623 278.711 92.9527C278.977 92.8431 279.261 92.7869 279.549 92.7872H282.057C282.636 92.7865 283.193 93.0155 283.603 93.4239C284.014 93.8323 284.246 94.3868 284.248 94.9658L284.282 99.972C284.281 100.552 284.049 101.108 283.638 101.517C283.228 101.927 282.671 102.158 282.091 102.158V102.174Z" fill="#63666A"/>
<path d="M252.614 91.4915C251.758 90.7216 250.647 90.2945 249.495 90.2919H247.621C247.004 90.2905 246.394 90.4105 245.823 90.6449C245.253 90.8793 244.735 91.2236 244.298 91.6581C243.861 92.0925 243.514 92.6088 243.277 93.1772C243.04 93.7456 242.917 94.3551 242.916 94.971V99.6916C242.917 100.936 243.412 102.128 244.293 103.008C245.173 103.887 246.368 104.381 247.613 104.381H253.248C253.829 104.38 254.386 104.149 254.796 103.738C255.207 103.328 255.438 102.772 255.44 102.192V85.5999H252.619L252.614 91.4915ZM252.614 98.4712V101.862H247.92C247.339 101.862 246.781 101.632 246.37 101.222C245.959 100.812 245.727 100.256 245.726 99.676V94.6698C245.727 94.0892 245.959 93.5328 246.37 93.1226C246.781 92.7123 247.338 92.4815 247.92 92.4808H250.423C251.004 92.4808 251.561 92.7114 251.972 93.1219C252.383 93.5325 252.614 94.0892 252.614 94.6698V98.4712Z" fill="#63666A"/>
<path d="M192.663 96.2406H189.694C189.281 96.2406 188.884 96.0765 188.591 95.7843C188.299 95.4921 188.135 95.0958 188.135 94.6827C188.135 94.2695 188.299 93.8732 188.591 93.581C188.884 93.2888 189.281 93.1247 189.694 93.1247H195.631L196.567 90.6216H189.689C188.635 90.6592 187.636 91.1041 186.903 91.8626C186.171 92.621 185.761 93.6339 185.761 94.6878C185.761 95.7418 186.171 96.7546 186.903 97.5131C187.636 98.2716 188.635 98.7165 189.689 98.7541H192.657C193.117 98.7541 193.557 98.9363 193.882 99.2606C194.206 99.5849 194.389 100.025 194.389 100.483C194.389 100.942 194.206 101.382 193.882 101.706C193.557 102.031 193.117 102.213 192.657 102.213H186.26L185.325 104.713H192.678C193.781 104.686 194.829 104.229 195.599 103.441C196.369 102.652 196.8 101.594 196.8 100.493C196.8 99.3909 196.369 98.3329 195.599 97.5443C194.829 96.7558 193.781 96.2991 192.678 96.2718L192.663 96.2406Z" fill="#63666A"/>
<path d="M295.659 96.2408H292.691C292.277 96.2408 291.88 96.0766 291.588 95.7844C291.295 95.4923 291.131 95.096 291.131 94.6828C291.131 94.2696 291.295 93.8733 291.588 93.5812C291.88 93.289 292.277 93.1249 292.691 93.1249H298.628L299.563 90.6191H292.686C291.624 90.6459 290.615 91.086 289.874 91.8454C289.133 92.6048 288.718 93.6235 288.718 94.6841C288.718 95.7448 289.133 96.7634 289.874 97.5228C290.615 98.2822 291.624 98.7223 292.686 98.7491H295.654C296.113 98.7491 296.553 98.9313 296.878 99.2556C297.203 99.5799 297.385 100.02 297.385 100.478C297.385 100.937 297.203 101.377 296.878 101.701C296.553 102.026 296.113 102.208 295.654 102.208H289.221L288.287 104.708H295.638C296.202 104.722 296.763 104.623 297.288 104.418C297.813 104.212 298.291 103.903 298.695 103.51C299.098 103.116 299.419 102.646 299.638 102.127C299.857 101.608 299.97 101.051 299.97 100.487C299.97 99.9242 299.857 99.3667 299.638 98.8476C299.419 98.3286 299.098 97.8586 298.695 97.4653C298.291 97.0719 297.813 96.7633 297.288 96.5574C296.763 96.3516 296.202 96.2528 295.638 96.2667L295.659 96.2408Z" fill="#63666A"/>
<path d="M165.273 105.632H163.714L163.126 107.19H164.655C164.811 107.205 164.956 107.277 165.062 107.392C165.168 107.508 165.227 107.659 165.227 107.816C165.227 107.973 165.168 108.124 165.062 108.24C164.956 108.355 164.811 108.428 164.655 108.442H162.463L161.873 110H165.279C165.777 110 166.255 109.802 166.607 109.45C166.96 109.098 167.158 108.62 167.158 108.122V107.494C167.154 106.998 166.953 106.524 166.6 106.175C166.247 105.826 165.77 105.631 165.273 105.632Z" fill="#63666A"/>
<path d="M108.613 93.1092H106.11C105.465 93.0799 104.856 92.8033 104.41 92.3371C103.964 91.8709 103.716 91.2509 103.716 90.6061C103.716 89.9613 103.964 89.3413 104.41 88.8751C104.856 88.4089 105.465 88.1323 106.11 88.103H112.686L113.624 85.5999H105.793C104.484 85.6296 103.238 86.17 102.323 87.1054C101.408 88.0408 100.895 89.2968 100.895 90.6048C100.895 91.9128 101.408 93.1688 102.323 94.1042C103.238 95.0395 104.484 95.5799 105.793 95.6097C105.793 95.6097 108.634 95.5656 108.613 95.6097C109.443 95.6097 110.239 95.9391 110.826 96.5254C111.413 97.1117 111.742 97.9069 111.742 98.736C111.742 99.5652 111.413 100.36 110.826 100.947C110.239 101.533 109.443 101.862 108.613 101.862H101.725L100.786 104.368H108.613C110.107 104.368 111.541 103.775 112.598 102.719C113.655 101.663 114.248 100.232 114.248 98.7386C114.248 97.2456 113.655 95.8137 112.598 94.758C111.541 93.7023 110.107 93.1092 108.613 93.1092Z" fill="#63666A"/>
<defs>
<linearGradient id="paint0_linear_860_5" x1="31.0535" y1="44.4023" x2="56.3321" y2="44.4023" gradientUnits="userSpaceOnUse">
<stop stop-color="#B1D135"/>
<stop offset="0.25" stop-color="#AED035"/>
<stop offset="0.41" stop-color="#A6CF36"/>
<stop offset="0.53" stop-color="#98CC38"/>
<stop offset="0.64" stop-color="#83C83B"/>
<stop offset="0.75" stop-color="#6AC23F"/>
<stop offset="0.84" stop-color="#4ABB43"/>
<stop offset="0.93" stop-color="#24B448"/>
<stop offset="1" stop-color="#00AC4D"/>
</linearGradient>
<linearGradient id="paint1_linear_860_5" x1="113358" y1="83143.3" x2="118855" y2="83143.3" gradientUnits="userSpaceOnUse">
<stop stop-color="#B1D135"/>
<stop offset="0.25" stop-color="#AED035"/>
<stop offset="0.41" stop-color="#A6CF36"/>
<stop offset="0.53" stop-color="#98CC38"/>
<stop offset="0.64" stop-color="#83C83B"/>
<stop offset="0.75" stop-color="#6AC23F"/>
<stop offset="0.84" stop-color="#4ABB43"/>
<stop offset="0.93" stop-color="#24B448"/>
<stop offset="1" stop-color="#00AC4D"/>
</linearGradient>
<linearGradient id="paint2_linear_860_5" x1="106447" y1="82835.9" x2="111240" y2="82835.9" gradientUnits="userSpaceOnUse">
<stop stop-color="#B1D135"/>
<stop offset="0.25" stop-color="#AED035"/>
<stop offset="0.41" stop-color="#A6CF36"/>
<stop offset="0.53" stop-color="#98CC38"/>
<stop offset="0.64" stop-color="#83C83B"/>
<stop offset="0.75" stop-color="#6AC23F"/>
<stop offset="0.84" stop-color="#4ABB43"/>
<stop offset="0.93" stop-color="#24B448"/>
<stop offset="1" stop-color="#00AC4D"/>
</linearGradient>
<linearGradient id="paint3_linear_860_5" x1="66155" y1="82728.6" x2="67936.5" y2="82728.6" gradientUnits="userSpaceOnUse">
<stop stop-color="#B1D135"/>
<stop offset="0.25" stop-color="#AED035"/>
<stop offset="0.41" stop-color="#A6CF36"/>
<stop offset="0.53" stop-color="#98CC38"/>
<stop offset="0.64" stop-color="#83C83B"/>
<stop offset="0.75" stop-color="#6AC23F"/>
<stop offset="0.84" stop-color="#4ABB43"/>
<stop offset="0.93" stop-color="#24B448"/>
<stop offset="1" stop-color="#00AC4D"/>
</linearGradient>
<linearGradient id="paint4_linear_860_5" x1="60.6964" y1="78.0152" x2="84.1139" y2="78.0152" gradientUnits="userSpaceOnUse">
<stop stop-color="#5C2D8F"/>
<stop offset="0.13" stop-color="#75298E"/>
<stop offset="0.28" stop-color="#88278D"/>
<stop offset="0.45" stop-color="#96258C"/>
<stop offset="0.66" stop-color="#9E238C"/>
<stop offset="1" stop-color="#A1238C"/>
</linearGradient>
<linearGradient id="paint5_linear_860_5" x1="95808.1" y1="82347.6" x2="99338.1" y2="82347.6" gradientUnits="userSpaceOnUse">
<stop stop-color="#5C2D8F"/>
<stop offset="0.13" stop-color="#75298E"/>
<stop offset="0.28" stop-color="#88278D"/>
<stop offset="0.45" stop-color="#96258C"/>
<stop offset="0.66" stop-color="#9E238C"/>
<stop offset="1" stop-color="#A1238C"/>
</linearGradient>
<linearGradient id="paint6_linear_860_5" x1="66185.3" y1="82305.9" x2="67864.5" y2="82305.9" gradientUnits="userSpaceOnUse">
<stop stop-color="#5C2D8F"/>
<stop offset="0.13" stop-color="#75298E"/>
<stop offset="0.28" stop-color="#88278D"/>
<stop offset="0.45" stop-color="#96258C"/>
<stop offset="0.66" stop-color="#9E238C"/>
<stop offset="1" stop-color="#A1238C"/>
</linearGradient>
<linearGradient id="paint7_linear_860_5" x1="34529.5" y1="81932.4" x2="34984" y2="81932.4" gradientUnits="userSpaceOnUse">
<stop stop-color="#5C2D8F"/>
<stop offset="0.13" stop-color="#75298E"/>
<stop offset="0.28" stop-color="#88278D"/>
<stop offset="0.45" stop-color="#96258C"/>
<stop offset="0.66" stop-color="#9E238C"/>
<stop offset="1" stop-color="#A1238C"/>
</linearGradient>
</defs>
</svg>
