<svg width="321" height="150" viewBox="0 0 321 150" fill="none" xmlns="http://www.w3.org/2000/svg">
<path d="M75.5477 105.349C70.8327 105.26 66.3409 103.323 63.038 99.9544C59.735 96.586 57.8847 92.0552 57.8847 87.336C57.8847 82.6168 59.735 78.086 63.038 74.7175C66.3409 71.3491 70.8327 69.4121 75.5477 69.3228C85.8008 69.3228 93.3215 77.4185 93.3215 87.2941C93.3215 97.1697 85.803 105.313 75.5477 105.313V105.349ZM226.968 116.061H239.267C239.549 116.078 239.828 115.983 240.041 115.795C240.253 115.608 240.384 115.344 240.403 115.061C240.407 115.016 240.407 114.97 240.403 114.924V59.746C240.413 59.6046 240.394 59.4627 240.349 59.3285C240.303 59.1943 240.232 59.0703 240.138 58.9638C240.045 58.8574 239.932 58.7704 239.804 58.708C239.677 58.6456 239.539 58.609 239.398 58.6002C239.354 58.597 239.31 58.597 239.267 58.6002H226.968C226.827 58.5906 226.685 58.609 226.551 58.6545C226.417 58.6999 226.293 58.7714 226.187 58.8649C226.08 58.9584 225.994 59.0721 225.931 59.1993C225.869 59.3265 225.832 59.4648 225.824 59.6063C225.824 59.6514 225.824 59.6987 225.824 59.746V114.928C225.815 115.069 225.835 115.211 225.881 115.345C225.928 115.479 226 115.602 226.094 115.708C226.188 115.813 226.303 115.899 226.43 115.961C226.558 116.022 226.696 116.058 226.837 116.065H226.968V116.061ZM74.1793 118C83.5259 118 90.4709 113.784 95.6028 108.423C99.8153 112.983 105.055 116.061 113.031 116.061H114.534C114.817 116.078 115.095 115.983 115.308 115.795C115.521 115.608 115.651 115.344 115.671 115.061C115.675 115.016 115.675 114.97 115.671 114.924V106.151C115.688 105.855 115.61 105.562 115.447 105.315C115.284 105.068 115.045 104.88 114.766 104.78C108.378 102.267 106.326 98.3971 106.326 88.9386V59.731C106.336 59.5896 106.318 59.4477 106.272 59.3134C106.227 59.1792 106.155 59.0553 106.062 58.9488C105.968 58.8423 105.855 58.7554 105.728 58.693C105.601 58.6306 105.462 58.5939 105.321 58.5852H92.9907C92.8494 58.5768 92.7078 58.5964 92.5742 58.6429C92.4405 58.6894 92.3173 58.7618 92.2117 58.8561C92.1061 58.9504 92.0202 59.0646 91.9588 59.1923C91.8975 59.3199 91.862 59.4584 91.8543 59.5998C91.8543 59.6428 91.8543 59.6858 91.8543 59.731V63.7143C87.0828 59.1163 80.6978 56.5773 74.0741 56.644C58.2315 56.644 44 69.9892 44 87.5499C44 106.36 58.1284 117.989 74.1944 117.989L74.1793 118ZM126.493 116.055H138.796C138.937 116.064 139.079 116.046 139.213 116C139.347 115.955 139.471 115.883 139.577 115.79C139.684 115.696 139.771 115.583 139.833 115.455C139.895 115.328 139.932 115.19 139.941 115.049C139.941 115.003 139.941 114.96 139.941 114.917V85.4002C140.033 80.6796 139.184 75.988 137.444 71.5993C142.682 69.5485 147.584 68.4092 150.66 68.4092C158.281 68.4092 161.933 73.0826 161.933 83.0033V114.928C161.925 115.069 161.944 115.211 161.991 115.345C162.037 115.479 162.11 115.602 162.204 115.708C162.298 115.813 162.412 115.899 162.54 115.961C162.668 116.022 162.806 116.058 162.947 116.065H175.344C175.485 116.074 175.627 116.054 175.761 116.008C175.894 115.961 176.018 115.889 176.123 115.794C176.229 115.7 176.315 115.586 176.376 115.458C176.437 115.331 176.473 115.192 176.481 115.051C176.485 115.01 176.485 114.969 176.481 114.928V82.7712C176.513 78.6878 175.819 74.6312 174.431 70.791C178.543 69.359 182.847 68.5511 187.198 68.3941C194.83 68.3941 198.473 73.0675 198.473 82.9883V114.913C198.465 115.055 198.485 115.196 198.531 115.33C198.578 115.464 198.65 115.588 198.745 115.693C198.839 115.799 198.954 115.885 199.081 115.946C199.209 116.007 199.348 116.043 199.489 116.05H211.921C212.062 116.059 212.204 116.04 212.338 115.993C212.472 115.947 212.595 115.874 212.701 115.78C212.807 115.686 212.893 115.571 212.954 115.444C213.016 115.316 213.052 115.177 213.059 115.036C213.061 114.995 213.061 114.954 213.059 114.913V82.7712C213.059 67.0463 205.882 56.4355 190.274 56.6591C182.75 56.8298 175.356 58.6651 168.625 62.0333C164.636 58.4971 159.278 56.6591 152.67 56.6591C145.494 56.6591 138.768 59.2881 130.678 62.8222C127.212 60.4255 123.144 59.0471 118.936 58.8431H117.11C116.969 58.8344 116.827 58.8538 116.693 58.9002C116.559 58.9465 116.436 59.019 116.33 59.1133C116.224 59.2076 116.138 59.3219 116.076 59.4497C116.015 59.5775 115.979 59.7162 115.972 59.8578C115.969 59.8986 115.969 59.9395 115.972 59.9803V69.3335C115.976 69.6248 116.064 69.9086 116.226 70.1505C116.388 70.3924 116.617 70.5821 116.885 70.6964C123.269 73.2051 125.318 77.0831 125.318 86.5503V114.928C125.31 115.069 125.329 115.211 125.376 115.345C125.422 115.479 125.495 115.602 125.589 115.708C125.683 115.813 125.797 115.899 125.925 115.961C126.052 116.022 126.191 116.058 126.332 116.065H126.457L126.493 116.055ZM273.214 116.409H274.859C275.001 116.418 275.143 116.399 275.276 116.352C275.41 116.306 275.534 116.233 275.64 116.139C275.745 116.045 275.832 115.93 275.893 115.803C275.955 115.675 275.99 115.536 275.998 115.395C276 115.354 276 115.313 275.998 115.272V106.151C276.015 105.854 275.935 105.56 275.77 105.313C275.605 105.065 275.365 104.878 275.085 104.78C268.709 102.267 266.651 98.3971 266.651 88.9386V38.4213C266.668 38.1382 266.573 37.8598 266.386 37.6468C266.199 37.4338 265.935 37.3034 265.652 37.2841C265.607 37.2798 265.561 37.2798 265.515 37.2841H253.159C253.017 37.2774 252.876 37.2989 252.743 37.3471C252.61 37.3953 252.487 37.4694 252.383 37.5651C252.279 37.6608 252.194 37.7762 252.134 37.9047C252.075 38.0332 252.041 38.1722 252.035 38.3138C252.035 38.3503 252.035 38.3847 252.035 38.4213V89.8479C252.035 105.702 260.355 116.418 273.235 116.418L273.214 116.409ZM233.127 52.0179C230.495 52.3815 227.827 51.6872 225.705 50.0869C223.583 48.4866 222.181 46.1106 221.805 43.4785C221.429 40.8465 222.111 38.1726 223.7 36.0418C225.289 33.9109 227.656 32.4966 230.285 32.108C232.913 31.7194 235.588 32.3883 237.725 33.9684C239.862 35.5484 241.286 37.911 241.687 40.5393C242.088 43.1677 241.432 45.8479 239.864 47.9937C238.295 50.1396 235.941 51.5764 233.316 51.99H233.127" fill="#461BFF"/>
</svg>
