<svg width="321" height="150" viewBox="0 0 321 150" fill="none" xmlns="http://www.w3.org/2000/svg">
<path d="M229.113 90.0286L218.015 63.1351H212.799V96.8492H217.336V72.4802L227.379 96.701L227.44 96.8492H230.687L240.681 72.4925V96.8492H245.217V63.1351H240.162L229.113 90.0286Z" fill="#878A8C"/>
<path d="M248.112 96.8492H269.759V92.5284H252.816V81.6895H268.191V77.4244H252.816V67.4003H269.759V63.1351H248.112V96.8492Z" fill="#878A8C"/>
<path d="M283.548 92.5283H277.456V67.4001H283.548C290.783 67.4001 295.276 72.227 295.276 79.992C295.276 87.757 290.764 92.5283 283.548 92.5283ZM283.604 63.1288H272.685V96.849H283.586C293.529 96.849 299.955 90.2321 299.955 79.992C299.955 69.7518 293.529 63.1288 283.586 63.1288" fill="#878A8C"/>
<path d="M38.5379 70.3506C43.2989 70.3506 46.0869 72.3649 46.9016 76.3935H54.6173C54.4303 74.1033 53.668 71.8973 52.4013 69.9802C51.012 67.8778 49.0968 66.1755 46.846 65.0423C44.1861 63.7197 41.2418 63.0711 38.2724 63.1535C35.2284 63.0964 32.2203 63.8165 29.5322 65.2459C26.9848 66.6482 24.8824 68.7377 23.4646 71.2765C21.8885 74.1733 21.0571 77.4164 21.045 80.7142C21.045 84.3765 21.8104 87.4792 23.3412 90.0223C24.7974 92.4947 26.9423 94.4894 29.5137 95.7627C32.1923 97.074 35.1421 97.7359 38.1242 97.6947C41.1249 97.7798 44.0981 97.1023 46.7657 95.7257C49.0138 94.5218 50.9239 92.773 52.321 90.6396C53.6267 88.6608 54.4045 86.3807 54.5802 84.0165H46.8646C46.7295 84.9743 46.4023 85.8951 45.9027 86.7234C45.4031 87.5518 44.7415 88.2707 43.9574 88.8372C42.3556 89.9423 40.4464 90.5146 38.5008 90.4729C35.4393 90.4729 33.1287 89.5306 31.5691 87.6459C30.0096 85.7612 29.2297 83.2305 29.2297 80.0537C29.2297 77.1733 30.0362 74.8359 31.6493 73.0418C33.2624 71.2477 35.5463 70.3588 38.5008 70.3753" fill="#878A8C"/>
<path d="M83.7019 85.0781C83.2884 86.6462 82.3817 88.0398 81.1157 89.0532C79.8318 90.0963 77.98 90.6148 75.5604 90.6148C73.1408 90.6148 71.2396 90.0963 69.9372 89.0532C68.6667 88.0368 67.7488 86.6459 67.3139 85.0781C66.854 83.4913 66.6193 81.8478 66.6165 80.1957C66.6174 78.5252 66.8522 76.8631 67.3139 75.2577C67.754 73.6802 68.6701 72.2769 69.9372 71.2394C71.2211 70.1695 73.0955 69.6346 75.5604 69.6346C77.9615 69.6346 79.8133 70.1592 81.1157 71.1962C82.3895 72.2208 83.2969 73.6307 83.7019 75.2145C84.135 76.8479 84.355 78.5305 84.3562 80.2204C84.3529 81.8695 84.1329 83.511 83.7019 85.1028M75.579 63.1534C69.8879 63.1534 65.6083 64.7809 62.7402 68.0359C59.872 71.2908 58.4626 75.4346 58.512 80.4673C58.4552 83.5393 59.1013 86.5837 60.4008 89.368C61.6251 91.9311 63.5988 94.0621 66.0609 95.4787C68.5793 96.9519 71.752 97.6905 75.579 97.6947C79.4059 97.6988 82.5764 96.9457 85.0907 95.4355C87.5358 94.0015 89.4765 91.8452 90.6459 89.263C91.8786 86.5032 92.4957 83.5081 92.4544 80.4858C92.4544 75.2885 91.0142 71.1036 88.1337 67.9309C85.2532 64.7583 81.056 63.172 75.5419 63.172" fill="#878A8C"/>
<path d="M115.546 63.1289H114.021C111.962 63.0813 109.918 63.488 108.034 64.3201C106.3 65.1487 104.802 66.3987 103.676 67.9558L102.485 63.3202H96.3741V97.1701H104.744V79.1156C104.744 76.0252 105.464 73.6859 106.904 72.0975C108.345 70.5091 110.507 69.7149 113.392 69.7149H117.027V63.1289H115.546Z" fill="#878A8C"/>
<path d="M136.717 90.2875C135.934 90.3169 135.151 90.2125 134.403 89.9789C134.108 89.8461 133.848 89.6464 133.643 89.3958C133.438 89.1451 133.295 88.8502 133.224 88.5346C132.935 87.3412 132.815 86.1133 132.866 84.8866V69.69H140.575V63.1286H132.866V54.518H126.15C126.23 56.4775 126.037 58.4386 125.576 60.3448C125.463 60.8488 125.233 61.3191 124.905 61.718C124.577 62.1168 124.16 62.433 123.687 62.641C122.49 63.0143 121.237 63.1793 119.984 63.1286V69.69H125.07V88.4543C125.07 91.413 125.741 93.5466 127.082 94.8552C128.424 96.1637 130.434 96.8201 133.113 96.8242H140.742V90.2875H136.717Z" fill="#878A8C"/>
<path d="M154.982 71.1284C156.099 70.2272 157.759 69.7766 159.92 69.7766C161.315 69.7198 162.701 70.0305 163.938 70.6778C164.896 71.2029 165.701 71.9661 166.277 72.8937C166.761 73.6821 167.121 74.5397 167.345 75.4368C167.401 75.6899 167.456 75.9183 167.5 76.1281H151.982C152.138 75.4853 152.344 74.8557 152.599 74.2455C153.103 73.0152 153.923 71.9399 154.976 71.1284M173.882 70.4741C172.521 68.1403 170.552 66.2202 168.185 64.9189C165.705 63.5808 162.923 62.9028 160.105 62.9499C157.013 62.8722 153.96 63.652 151.285 65.2028C148.815 66.6903 146.823 68.8535 145.544 71.437C144.164 74.2545 143.5 77.369 143.612 80.5044C143.659 83.351 144.289 86.1577 145.464 88.7509C146.638 91.3445 148.513 93.5591 150.877 95.1455C153.317 96.8203 156.478 97.6557 160.358 97.6516C165.053 97.6516 168.744 96.4335 171.432 93.9975C174.045 91.6939 175.686 88.4839 176.024 85.0165H167.901C167.784 85.8307 167.505 86.6132 167.081 87.3181C166.657 88.023 166.096 88.6361 165.432 89.1212C163.913 90.1969 162.082 90.7435 160.222 90.6767C157.543 90.6767 155.439 89.8537 153.908 88.2077C152.377 86.5617 151.61 84.0927 151.605 80.8007H176.135V78.9119C176.155 75.9626 175.391 73.061 173.919 70.505" fill="#878A8C"/>
<path d="M191.146 81.4548C189.553 81.4696 187.982 81.8364 186.547 82.5289C185.112 83.2214 183.848 84.2226 182.844 85.4607L173.388 96.849H182.857L188.449 90.1148C188.767 89.7012 189.175 89.3663 189.643 89.1357C190.11 88.9052 190.625 88.7853 191.146 88.7853C191.668 88.7853 192.182 88.9052 192.65 89.1357C193.118 89.3663 193.526 89.7012 193.844 90.1148L199.436 96.849H208.905L199.448 85.4607C198.445 84.2232 197.18 83.2226 195.745 82.5301C194.31 81.8376 192.74 81.4705 191.146 81.4548Z" fill="#1A45B5"/>
<path d="M191.276 78.3317C192.925 78.3154 194.55 77.9352 196.036 77.2181C197.521 76.5011 198.829 75.465 199.868 74.1838L209.04 63.1227H199.603L194.288 69.5298C193.936 69.9858 193.484 70.3551 192.966 70.6092C192.449 70.8632 191.88 70.9953 191.304 70.9953C190.727 70.9953 190.159 70.8632 189.641 70.6092C189.124 70.3551 188.672 69.9858 188.319 69.5298L183.011 63.1227H173.542L182.715 74.1838C183.752 75.466 185.061 76.5028 186.546 77.2199C188.032 77.937 189.657 78.3167 191.307 78.3317" fill="#1A45B5"/>
</svg>
