<svg width="321" height="150" viewBox="0 0 321 150" fill="none" xmlns="http://www.w3.org/2000/svg">
<path d="M294 31.3477H26.3081V118.283H294V31.3477Z" fill="#4BB5B4"/>
<path d="M201.051 97.8827C201.524 98.167 202.064 98.3201 202.615 98.3259C203.508 98.3259 204.028 97.8554 204.028 97.172C204.028 96.5431 203.666 96.1816 202.754 95.8301C201.654 95.4413 200.972 94.8694 200.972 93.9186C200.972 92.8687 201.842 92.0863 203.156 92.0863C203.671 92.071 204.182 92.1842 204.643 92.4157L204.395 93.1287C204.001 92.9158 203.559 92.8051 203.111 92.8068C202.189 92.8068 201.84 93.359 201.84 93.8171C201.84 94.4509 202.249 94.7604 203.183 95.1219C204.323 95.5602 204.906 96.1123 204.906 97.1027C204.906 98.1426 204.132 99.0439 202.541 99.0439C201.935 99.0535 201.338 98.9059 200.806 98.6156L201.051 97.8827Z" fill="white"/>
<path d="M209.67 95.7808H207.045V98.2147H209.972V98.9451H206.172V92.198H209.821V92.9284H207.045V95.0603H209.67V95.7808Z" fill="white"/>
<path d="M216.848 95.9811C216.798 95.0402 216.739 93.9087 216.746 93.0668H216.717C216.486 93.8591 216.206 94.701 215.866 95.632L214.684 98.9052H214.025L212.932 95.6864C212.609 94.7356 212.339 93.8641 212.148 93.0619H212.129C212.109 93.9037 212.059 95.0427 212 96.0331L211.819 98.9275H210.966L211.437 92.1804H212.55L213.702 95.4438C213.983 96.2733 214.216 97.0161 214.384 97.7168H214.414C214.585 97.0359 214.825 96.2931 215.125 95.4438L216.327 92.1804H217.44L217.862 98.9275H217.011L216.848 95.9811Z" fill="white"/>
<path d="M219.262 92.277C219.815 92.186 220.375 92.1421 220.935 92.1457C221.798 92.1457 222.422 92.3463 222.831 92.7078C223.026 92.8861 223.18 93.1047 223.282 93.3484C223.384 93.5922 223.431 93.8551 223.421 94.1191C223.434 94.3818 223.395 94.6445 223.306 94.8919C223.217 95.1393 223.079 95.3665 222.901 95.5601C222.44 96.0553 221.689 96.3029 220.836 96.3029C220.601 96.3103 220.365 96.2904 220.134 96.2435V98.9473H219.262V92.277ZM220.137 95.5304C220.374 95.583 220.616 95.6063 220.858 95.5997C221.912 95.5997 222.554 95.0897 222.554 94.1587C222.554 93.2673 221.922 92.839 220.96 92.839C220.684 92.8315 220.408 92.8548 220.137 92.9083V95.5304Z" fill="white"/>
<path d="M224.646 92.2869C225.198 92.1887 225.758 92.1415 226.319 92.1458C227.251 92.1458 227.853 92.3166 228.272 92.6979C228.448 92.8601 228.588 93.0584 228.681 93.2792C228.775 93.5001 228.819 93.7384 228.812 93.978C228.819 94.3661 228.699 94.7459 228.469 95.059C228.239 95.3721 227.913 95.6012 227.541 95.7112V95.7409C228.061 95.9217 228.373 96.402 228.532 97.1027C228.753 98.0436 228.911 98.6948 229.052 98.9548H228.143C227.941 98.4332 227.79 97.8934 227.692 97.3429C227.491 96.4119 227.129 96.0603 226.338 96.0306H225.516V98.9548H224.646V92.2869ZM225.516 95.3646H226.408C227.342 95.3646 227.932 94.8545 227.932 94.082C227.932 93.2129 227.3 92.844 226.378 92.8217C226.088 92.8137 225.799 92.8403 225.516 92.901V95.3646Z" fill="white"/>
<path d="M233.584 95.7808H230.959V98.2147H233.886V98.9451H230.086V92.198H233.735V92.9284H230.959V95.0603H233.584V95.7808Z" fill="white"/>
<path d="M238.335 96.8232L237.634 98.9451H236.744L239.039 92.198H240.092L242.397 98.9451H241.453L240.729 96.8232H238.335ZM239.158 90.6604L240.08 91.8216H239.369L238.095 90.6604H239.158ZM240.551 96.1373L239.889 94.1961C239.738 93.7529 239.641 93.3543 239.537 92.9581H239.517C239.418 93.3592 239.307 93.7678 239.178 94.1788L238.516 96.1324L240.551 96.1373Z" fill="white"/>
<path d="M245.602 92.198H249.239V92.9284H246.472V95.1717H249.03V95.8922H246.472V98.9451H245.602V92.198Z" fill="white"/>
<path d="M250.532 92.2869C251.085 92.1888 251.645 92.1416 252.205 92.1458C253.14 92.1458 253.74 92.3166 254.161 92.6979C254.335 92.8614 254.473 93.0601 254.564 93.2808C254.656 93.5016 254.699 93.7392 254.692 93.978C254.699 94.3661 254.578 94.7459 254.349 95.059C254.119 95.3721 253.793 95.6012 253.42 95.7112V95.7409C253.94 95.9217 254.25 96.402 254.411 97.1027C254.632 98.0436 254.791 98.6948 254.932 98.9548H254.03C253.829 98.4328 253.678 97.8931 253.579 97.3429C253.38 96.4119 253.018 96.0603 252.225 96.0306H251.405V98.9548H250.532V92.2869ZM251.405 95.3646H252.297C253.229 95.3646 253.819 94.8545 253.819 94.082C253.819 93.2129 253.189 92.844 252.267 92.8217C251.978 92.8137 251.688 92.8403 251.405 92.9009V95.3646Z" fill="white"/>
<path d="M259.473 95.7808H256.848V98.2147H259.773V98.9451H255.973V92.198H259.621V92.9284H256.848V95.0603H259.473V95.7808Z" fill="white"/>
<path d="M260.955 98.9451V92.198H261.907L264.073 95.6124C264.525 96.3164 264.93 97.0492 265.285 97.8061H265.305C265.226 96.9049 265.206 96.0729 265.206 95.033V92.2104H266.026V98.9575H265.146L263 95.5332C262.534 94.8089 262.113 94.0574 261.738 93.2825H261.708C261.758 94.1342 261.778 94.9464 261.778 96.0655V98.95L260.955 98.9451Z" fill="white"/>
<path d="M268.884 92.9383H266.829V92.198H271.829V92.9383H269.766V98.9451H268.884V92.9383Z" fill="white"/>
<path d="M276.129 95.7808H273.504V98.2147H276.431V98.9451H272.632V92.198H276.28V92.9284H273.504V95.0603H276.129V95.7808Z" fill="white"/>
<path d="M184.48 100.173C184.355 100.173 184.234 100.127 184.142 100.042C184.05 99.9578 183.994 99.8418 183.984 99.7175L181.976 68.9012L180.028 93.9286C180.018 94.05 179.963 94.1633 179.874 94.2469C179.785 94.3305 179.669 94.3785 179.547 94.3817C179.425 94.3826 179.307 94.3386 179.216 94.2583C179.125 94.1779 179.066 94.0667 179.051 93.9459L177.914 83.7621H41.1329V82.7841H178.352C178.474 82.7831 178.591 82.8267 178.683 82.9066C178.774 82.9865 178.833 83.0971 178.848 83.2174L179.463 88.7092L181.55 61.9981C181.561 61.8746 181.618 61.7598 181.71 61.6764C181.802 61.5929 181.921 61.5469 182.046 61.5474C182.171 61.5471 182.292 61.5941 182.384 61.6791C182.475 61.7641 182.532 61.8807 182.541 62.0055L184.413 90.7271L186.16 51.4033C186.167 51.2767 186.222 51.1576 186.315 51.0706C186.407 50.9835 186.529 50.9351 186.656 50.9353C186.783 50.9351 186.905 50.9835 186.997 51.0706C187.089 51.1576 187.145 51.2767 187.151 51.4033L188.773 85.1264L189.898 66.9303C189.907 66.805 189.963 66.6878 190.055 66.6023C190.147 66.5168 190.268 66.4694 190.394 66.4697C190.52 66.4695 190.642 66.5176 190.734 66.6041C190.826 66.6906 190.882 66.8091 190.889 66.9352L192.096 90.6726L192.872 83.2323C192.886 83.111 192.945 82.9992 193.036 82.9184C193.128 82.8375 193.246 82.7932 193.368 82.794H279.815V83.772H193.807L192.399 96.984C192.385 97.1052 192.326 97.217 192.235 97.2979C192.143 97.3787 192.025 97.423 191.903 97.4222C191.78 97.4181 191.662 97.3681 191.574 97.282C191.485 97.1959 191.432 97.0799 191.425 96.9567L190.337 75.5319L189.154 93.9211C189.145 94.0464 189.089 94.1636 188.997 94.2491C188.905 94.3346 188.784 94.382 188.658 94.3817C188.532 94.3819 188.409 94.3335 188.317 94.2464C188.225 94.1593 188.17 94.0403 188.163 93.9137L186.628 62.0327L184.955 99.7051C184.948 99.8316 184.893 99.9507 184.801 100.038C184.709 100.125 184.587 100.173 184.46 100.173H184.48Z" fill="white"/>
<path d="M270.763 78.7756L271.336 75.2127H272.483C273.085 75.227 273.687 75.1905 274.283 75.1037C274.633 75.0443 274.969 74.9201 275.274 74.7373C275.763 74.4338 276.155 73.9986 276.407 73.4819C276.683 72.9303 276.825 72.3211 276.821 71.7042C276.838 71.1279 276.705 70.5571 276.434 70.0477C276.162 69.5759 275.754 69.1964 275.264 68.9583C274.941 68.7999 274.596 68.6922 274.241 68.6389C273.658 68.5652 273.07 68.5337 272.483 68.5448H269.672L268.039 78.7756H270.763ZM272.049 70.7212H272.545C272.981 70.6899 273.417 70.7808 273.804 70.9837C273.939 71.0733 274.047 71.1971 274.118 71.3425C274.189 71.4878 274.22 71.6494 274.208 71.8106C274.225 71.9967 274.19 72.1838 274.107 72.3512C274.024 72.5185 273.896 72.6597 273.737 72.759C273.428 72.9447 272.825 73.0387 271.94 73.0387H271.692L272.049 70.7212ZM258.127 72.905C258.016 73.6214 257.934 74.2223 257.879 74.7076C257.831 75.0921 257.803 75.4789 257.795 75.8663C257.78 76.3152 257.873 76.761 258.066 77.1667C258.258 77.5725 258.545 77.9263 258.903 78.1987C259.646 78.7831 260.62 79.0752 261.837 79.0752C262.689 79.0952 263.534 78.9154 264.304 78.5503C264.985 78.2168 265.55 77.6862 265.925 77.0276C266.23 76.5051 266.477 75.6163 266.668 74.356L267.585 68.5498H264.842L264.254 72.2638V72.3628C263.81 75.1689 263.06 76.572 262.006 76.572C261.818 76.5832 261.63 76.5566 261.452 76.4936C261.274 76.4307 261.111 76.3327 260.972 76.2055C260.844 76.0696 260.744 75.9087 260.68 75.7328C260.616 75.5569 260.589 75.3698 260.601 75.183C260.6 74.9886 260.611 74.7943 260.633 74.6011C260.658 74.3783 260.705 74.0737 260.769 73.6825L261.587 68.5473H258.826L258.127 72.905ZM255.153 75.3018L255.648 72.2192H248.889L248.393 75.3018H255.153ZM240.581 78.7682L241.292 74.2619L244.18 78.7756H247.402L243.932 73.5884L248.978 68.5349H245.419L241.525 72.8134L242.219 68.5349H239.485L237.869 78.7756L240.581 78.7682ZM236.248 68.4779C235.732 68.3562 235.204 68.2955 234.674 68.2972C233.791 68.2831 232.914 68.4517 232.099 68.7924C231.353 69.1084 230.695 69.6003 230.18 70.226C229.746 70.757 229.41 71.3616 229.189 72.0112C228.96 72.6747 228.845 73.372 228.849 74.0737C228.849 75.5593 229.288 76.7651 230.166 77.6713C231.043 78.5776 232.213 79.0232 233.673 79.0232C234.129 79.026 234.586 78.9971 235.039 78.9366C235.43 78.8877 235.816 78.8049 236.194 78.689L236.622 76.0347C236.23 76.204 235.823 76.3398 235.408 76.4408C235.04 76.528 234.663 76.5728 234.285 76.5745C233.445 76.5745 232.798 76.3492 232.329 75.896C231.861 75.4429 231.635 74.7967 231.635 73.9672C231.605 73.1343 231.901 72.3223 232.461 71.7042C232.727 71.4152 233.052 71.1865 233.414 71.0336C233.776 70.8807 234.167 70.8071 234.56 70.8178C235.052 70.8147 235.539 70.9037 235.998 71.0802C236.467 71.2595 236.901 71.5211 237.279 71.8527L237.735 69.0227C237.262 68.7846 236.763 68.6018 236.248 68.4779ZM224.078 74.7917H227.03L227.372 72.5633H224.437L224.685 70.8945H227.853L228.225 68.5299H222.333L220.712 78.7756H226.624L226.978 76.5027H223.81L224.078 74.7917ZM212.181 78.7657L212.837 74.5838H216.419L215.755 78.7756H218.518L220.137 68.5349H217.376L216.756 72.4792H213.177L213.812 68.5349H211.058L209.442 78.7756L212.181 78.7657ZM207.813 68.4779C207.298 68.3562 206.769 68.2955 206.239 68.2972C205.356 68.2833 204.479 68.4519 203.664 68.7924C202.918 69.1091 202.26 69.6009 201.746 70.226C201.31 70.7563 200.974 71.3611 200.754 72.0112C200.525 72.6745 200.409 73.3719 200.412 74.0737C200.412 75.5593 200.853 76.7651 201.731 77.6713C202.608 78.5776 203.778 79.0232 205.245 79.0232C205.702 79.026 206.158 78.9971 206.611 78.9366C207.003 78.8874 207.391 78.8046 207.769 78.689L208.192 76.0347C207.801 76.204 207.395 76.3398 206.98 76.4408C206.612 76.528 206.236 76.5728 205.858 76.5745C205.013 76.5745 204.361 76.3483 203.899 75.896C203.438 75.438 203.208 74.7967 203.208 73.9672C203.177 73.1343 203.474 72.3223 204.033 71.7042C204.299 71.415 204.624 71.1861 204.985 71.0332C205.347 70.8803 205.738 70.8068 206.13 70.8178C206.623 70.8149 207.112 70.9039 207.573 71.0802C208.042 71.2602 208.475 71.5217 208.852 71.8527L209.315 69.0276C208.842 68.7899 208.343 68.6072 207.828 68.4829" fill="white"/>
<path d="M163.2 63.0628C163.981 63.4155 164.676 63.9324 165.238 64.5781C165.691 65.0952 166.044 65.6922 166.279 66.3386C166.523 66.9945 166.648 67.6888 166.648 68.3887C166.659 69.7838 166.158 71.1345 165.238 72.1844C164.677 72.8282 163.985 73.3448 163.208 73.6997C162.425 74.0522 161.577 74.2345 160.718 74.2345C159.86 74.2345 159.011 74.0522 158.228 73.6997C157.451 73.3458 156.763 72.823 156.213 72.1696C155.765 71.64 155.413 71.0368 155.172 70.3868C154.68 69.095 154.68 67.6675 155.172 66.3757C155.413 65.7255 155.765 65.1222 156.213 64.593C156.768 63.9416 157.459 63.419 158.238 63.0619C159.016 62.7048 159.863 62.5218 160.719 62.5255C161.575 62.5246 162.42 62.7078 163.198 63.0628H163.2ZM155.817 58.2C154.346 58.797 153.032 59.7228 151.975 60.9062C151.086 61.9312 150.393 63.1103 149.93 64.385C148.904 66.9437 148.899 69.7978 149.915 72.3602C150.381 73.6421 151.079 74.8272 151.975 75.8563C153.022 77.0358 154.327 77.9585 155.789 78.5527C158.946 79.832 162.478 79.832 165.634 78.5527C167.1 77.9583 168.409 77.0329 169.456 75.8489C170.366 74.8258 171.078 73.6428 171.556 72.3602C172.567 69.8029 172.567 66.9571 171.556 64.3999C171.085 63.1173 170.381 61.9328 169.479 60.9062C168.43 59.7222 167.122 58.7961 165.657 58.2C162.504 56.9298 158.982 56.9298 155.829 58.2H155.817ZM142.132 78.7755H147.573V57.8731H142.132V78.7755ZM127.895 62.0303H128.909C130.052 62.0303 130.874 62.2689 131.375 62.7459C131.631 62.9872 131.831 63.2812 131.962 63.6075C132.105 63.9254 132.181 64.2693 132.185 64.6178C132.179 64.9689 132.102 65.3152 131.957 65.6354C131.824 65.9621 131.626 66.2586 131.375 66.5069C130.879 66.9823 130.057 67.22 128.909 67.22H127.895V62.0303ZM134.959 69.6391C135.411 69.4026 135.825 69.0987 136.186 68.7378C136.725 68.1803 137.138 67.5131 137.395 66.7818C137.962 65.2628 137.987 63.595 137.465 62.06C137.228 61.3501 136.868 60.6872 136.401 60.1015C135.811 59.3541 135.038 58.7716 134.156 58.4104C133.117 58.0262 132.014 57.8438 130.906 57.8731H122.457V78.7755H127.895V70.7459L133.075 78.7755H139.847L133.273 70.2036C133.856 70.0852 134.422 69.8956 134.959 69.6391ZM94.5573 62.429H95.7966C96.7649 62.3935 97.7298 62.564 98.6272 62.9291C99.4127 63.2923 100.094 63.8465 100.61 64.541C101.398 65.6416 101.822 66.9611 101.822 68.3144C101.822 69.6678 101.398 70.9872 100.61 72.0878C100.102 72.79 99.4181 73.3466 98.6272 73.7022C97.7338 74.0704 96.7725 74.2459 95.8065 74.2172H94.5672L94.5573 62.429ZM97.145 78.7706C99.4277 78.7634 101.639 77.9771 103.413 76.5422C104.67 75.5545 105.687 74.2959 106.388 72.8604C107.098 71.4501 107.468 69.8932 107.468 68.3144C107.468 66.7356 107.098 65.1788 106.388 63.7685C105.686 62.3334 104.669 61.0749 103.413 60.0867C102.529 59.3718 101.529 58.8132 100.456 58.4352C99.3932 58.0584 98.2731 57.8666 97.145 57.8682H89.1291V78.7755L97.145 78.7706ZM85.6689 57.8781H73.7715V78.7755H85.6689V74.2197H79.2121V70.5057H85.3269V65.9548H79.2121V62.4191H85.6788L85.6689 57.8781ZM49.5181 78.7755L51.2953 66.7446L56.1237 78.7755H58.2825L63.3414 66.7446L64.8881 78.7755H70.3262L67.1684 57.883H61.7526L57.2638 69.025L53.0204 57.883H47.6641L44.1097 78.7755H49.5181Z" fill="white"/>
<path d="M114.547 70.9982C115.065 70.9977 115.571 70.8439 116.002 70.5563C116.432 70.2686 116.767 69.86 116.965 69.382C117.164 68.904 117.215 68.3781 117.114 67.8708C117.013 67.3634 116.764 66.8973 116.398 66.5313C116.032 66.1654 115.566 65.916 115.058 65.8146C114.55 65.7133 114.024 65.7646 113.545 65.962C113.066 66.1593 112.657 66.494 112.369 66.9237C112.08 67.3534 111.926 67.8588 111.925 68.3761C111.924 68.7204 111.992 69.0615 112.123 69.3797C112.255 69.698 112.448 69.9872 112.691 70.2308C112.935 70.4744 113.224 70.6675 113.543 70.7992C113.861 70.9309 114.203 70.9985 114.547 70.9982Z" fill="white"/>
</svg>
