<svg width="321" height="150" viewBox="0 0 321 150" fill="none" xmlns="http://www.w3.org/2000/svg">
<path d="M70.8986 60.5299C70.6952 60.2393 70.424 60.0026 70.1084 59.8402C69.7928 59.6779 69.4424 59.5948 69.0875 59.5981C68.2162 59.5981 67.3426 60.0711 66.6229 60.9509C62.9367 65.4325 60.2306 66.3738 58.616 66.3738C57.8276 66.3951 57.0559 66.1445 56.4307 65.6643L56.1182 65.3569C55.6155 64.7002 55.3637 63.8859 55.408 63.0604C55.4482 61.4617 56.4213 58.7916 60.8296 55.1708C61.7505 54.4211 62.2501 53.5153 62.2027 52.6118C62.1913 52.2694 62.0996 51.9345 61.9352 51.6338C61.7707 51.3332 61.538 51.0752 61.2557 50.8807C60.8256 50.5909 60.3186 50.436 59.7997 50.436C58.8172 50.436 57.7968 50.9634 56.774 51.9993C52.5812 56.1593 51.3761 60.3076 53.1754 63.9568C52.1224 63.4261 50.9598 63.1483 49.7804 63.1456C47.0341 63.1456 44.0676 64.6592 41.1958 67.5256C38.8945 69.8244 39.6758 71.4515 40.1162 72.0404C40.3319 72.3152 40.6087 72.5361 40.9247 72.6855C41.2407 72.8349 41.5873 72.9088 41.9368 72.9012C42.827 72.9012 43.6935 72.4282 44.3706 71.6123C48.0592 67.1188 50.7629 66.1846 52.3823 66.1846C53.1791 66.1663 53.9578 66.4236 54.5864 66.913L54.88 67.2134C55.3827 67.8646 55.6347 68.6745 55.5903 69.4956C55.5548 71.0991 54.5841 73.7692 50.1639 77.3995C49.063 78.3005 48.831 79.2087 48.8263 79.8118C48.8403 80.4473 49.1006 81.0526 49.5523 81.5003C50.004 81.948 50.612 82.2032 51.2482 82.2123C52.1692 82.2123 53.1541 81.6778 54.2574 80.5757C58.4337 76.3967 59.6411 72.2414 57.8299 68.5969C58.8855 69.1281 60.0501 69.4074 61.2321 69.4128C64.0139 69.4128 66.9141 67.9347 69.8143 65.0258C71.526 63.3088 71.8717 61.8803 70.8986 60.5299Z" fill="#C7161D"/>
<path d="M55.4695 43.1235C50.8881 43.124 46.4098 44.4816 42.6008 47.0245C38.7918 49.5675 35.8232 53.1816 34.0704 57.41C32.3176 61.6383 31.8594 66.2908 32.7536 70.7793C33.6478 75.2678 35.8544 79.3906 39.0942 82.6263C42.3341 85.8621 46.4617 88.0655 50.9551 88.9578C55.4486 89.8502 60.106 89.3915 64.3384 87.6397C68.5709 85.8879 72.1883 82.9217 74.7331 79.1163C77.278 75.3108 78.6361 70.8369 78.6356 66.2604C78.6287 60.1254 76.1857 54.2437 71.8425 49.9061C67.4994 45.5685 61.611 43.1292 55.4695 43.1235ZM55.4695 85.5754C51.6454 85.5749 47.9073 84.4417 44.7279 82.3191C41.5485 80.1965 39.0706 77.1797 37.6075 73.6503C36.1444 70.1209 35.7618 66.2374 36.5081 62.4908C37.2545 58.7442 39.0962 55.3028 41.8004 52.6018C44.5046 49.9008 47.9499 48.0614 51.7005 47.3163C55.4512 46.5713 59.3388 46.9539 62.8718 48.4159C66.4047 49.8779 69.4244 52.3535 71.5489 55.5298C73.6734 58.7061 74.8074 62.4404 74.8074 66.2604C74.8023 71.3819 72.7633 76.2922 69.1377 79.9135C65.5122 83.5347 60.5964 85.571 55.4695 85.5754Z" fill="#231F20"/>
<path d="M113.14 62.0506C112.022 61.6525 110.882 61.3178 109.726 61.0479C108.646 60.7995 107.538 60.5488 106.411 60.2721C104.619 59.8606 103.412 59.3971 102.801 58.8815C102.488 58.6332 102.239 58.3141 102.074 57.9505C101.91 57.5869 101.834 57.1894 101.854 56.7908C101.849 56.2013 102.064 55.6309 102.455 55.1897C102.823 54.7264 103.296 54.3574 103.835 54.1137C104.433 53.8287 105.065 53.622 105.715 53.4987C106.387 53.3879 107.068 53.3333 107.749 53.3356C109.693 53.3368 111.618 53.7193 113.414 54.4613C115.101 55.1288 116.67 56.0596 118.064 57.2189H118.829V49.3671C117.091 48.6088 115.275 48.0411 113.414 47.6737C111.404 47.2492 109.354 47.0399 107.299 47.0494C103.23 47.0494 99.8367 48.038 97.1188 50.0151C94.3867 52.0064 93.0301 54.6245 93.0301 57.8433C93.0301 60.224 93.6078 62.2028 94.7631 63.7794C95.9161 65.3593 97.822 66.6174 100.471 67.5634C101.692 67.98 102.937 68.3212 104.2 68.5851C105.531 68.8595 106.764 69.1598 107.931 69.4484C108.808 69.6831 109.631 70.0846 110.356 70.6309C110.676 70.8754 110.934 71.1923 111.109 71.5557C111.283 71.9191 111.369 72.3186 111.359 72.7215C111.397 73.3951 111.177 74.0577 110.744 74.5757C110.32 75.0381 109.803 75.4056 109.226 75.6541C108.611 75.929 107.954 76.1016 107.283 76.165C106.635 76.2572 105.983 76.3117 105.329 76.3282C103.271 76.2958 101.234 75.9061 99.3088 75.1764C97.2422 74.3946 95.3257 73.2634 93.6433 71.8323H92.8407V79.9726C94.6357 80.7428 96.489 81.3699 98.3831 81.8481C100.652 82.3932 102.981 82.6506 105.315 82.6143C109.866 82.6143 113.49 81.5737 116.165 79.4949C118.841 77.4161 120.19 74.6868 120.19 71.267C120.19 68.902 119.598 66.9722 118.448 65.5201C117.297 64.068 115.514 62.9091 113.14 62.0506Z" fill="#231F20"/>
<path d="M136.938 55.301C132.558 55.301 129.147 56.5663 126.703 59.0969C124.279 61.599 123.065 64.9676 123.062 69.2025C123.062 73.5092 124.367 76.8391 126.992 79.1687C129.618 81.4982 133.361 82.676 138.269 82.676C139.408 82.6838 140.547 82.6166 141.678 82.4749C142.601 82.3491 143.515 82.1699 144.417 81.9381C145.18 81.7691 145.93 81.543 146.659 81.2617C147.204 81.0252 147.8 80.7887 148.475 80.5214V73.8616H147.611C147.172 74.1919 146.712 74.4921 146.233 74.7603C145.642 75.1268 145.026 75.4531 144.391 75.737C143.581 76.0921 142.74 76.3739 141.879 76.579C140.961 76.7791 140.025 76.8798 139.085 76.8793C138.066 76.8865 137.049 76.7858 136.05 76.579C135.19 76.3785 134.373 76.0261 133.638 75.5384C132.912 75.0497 132.32 74.3859 131.919 73.6085C131.458 72.6661 131.198 71.6387 131.154 70.5908H148.911V67.6866C148.911 63.7039 147.908 60.6483 145.904 58.5198C143.899 56.3913 140.911 55.3184 136.938 55.301ZM131.128 65.7331C131.223 64.0918 131.706 62.791 132.601 61.8521C133.496 60.9132 134.713 60.4118 136.287 60.4118C137.861 60.4118 139.01 60.873 139.76 61.7741C140.511 62.6751 140.916 63.9948 140.944 65.7331H131.128Z" fill="#231F20"/>
<path d="M164.986 55.301C160.606 55.301 157.195 56.5663 154.753 59.0969C152.326 61.599 151.112 64.9676 151.112 69.2025C151.112 73.5092 152.414 76.8391 155.033 79.1687C157.651 81.4982 161.409 82.676 166.309 82.676C167.451 82.6844 168.591 82.6172 169.723 82.4749C170.647 82.3475 171.562 82.1683 172.465 81.9381C173.226 81.7675 173.974 81.5414 174.702 81.2617C175.244 81.0252 175.862 80.7887 176.528 80.5215V73.8616H175.673C175.234 74.1893 174.776 74.4894 174.3 74.7603C173.699 75.122 173.078 75.4482 172.439 75.737C171.63 76.0928 170.791 76.3746 169.932 76.579C169.016 76.78 168.081 76.8808 167.143 76.8793C166.126 76.8857 165.111 76.785 164.115 76.579C163.244 76.3816 162.417 76.0291 161.671 75.5384C160.953 75.0376 160.36 74.377 159.941 73.6085C159.476 72.6684 159.219 71.6391 159.188 70.5908H176.963V67.6866C176.963 63.7039 175.969 60.6483 173.949 58.5198C171.93 56.3913 168.956 55.301 164.986 55.301ZM159.167 65.7331C159.254 64.0918 159.761 62.791 160.646 61.8521C161.532 60.9132 162.777 60.4118 164.354 60.4118C165.931 60.4118 167.065 60.873 167.808 61.7741C168.551 62.6751 168.956 63.9948 168.992 65.7331H159.167Z" fill="#231F20"/>
<path d="M196.507 57.2543C195.613 56.6769 194.648 56.2182 193.635 55.8897C192.482 55.5225 191.278 55.3443 190.068 55.3623C188.607 55.366 187.164 55.6737 185.83 56.2658C184.496 56.8323 183.307 57.6925 182.352 58.7821C181.307 59.9903 180.512 61.3928 180.013 62.9091C179.42 64.6672 179.128 66.5125 179.149 68.3675C179.149 72.8397 180.072 76.1555 181.895 78.336C183.718 80.5165 186.334 81.6044 189.708 81.6044C190.973 81.6116 192.227 81.3706 193.399 80.8949C194.556 80.4321 195.627 79.779 196.569 78.9627V79.4641C196.585 80.3871 196.492 81.3086 196.292 82.2099C196.121 82.9008 195.786 83.5402 195.314 84.0735C194.84 84.5985 194.166 85.0006 193.233 85.2868C192.115 85.5901 190.958 85.7303 189.8 85.703C189.149 85.705 188.498 85.6504 187.856 85.5398C187.222 85.4499 186.578 85.3033 185.905 85.1496C185.359 84.9864 184.809 84.8374 184.248 84.6482C183.687 84.459 183.23 84.3124 182.811 84.161H181.878V90.6269C183.031 90.9178 184.367 91.1662 185.903 91.405C187.531 91.6337 189.172 91.7459 190.816 91.7409C192.702 91.7586 194.583 91.5498 196.42 91.1189C197.992 90.7378 199.466 90.0285 200.745 89.0377C201.948 88.1129 202.904 86.798 203.586 85.1307C204.268 83.4633 204.623 81.4105 204.623 79.0195V56.1168H196.805L196.507 57.2543ZM196.562 73.8969C195.943 74.3472 195.263 74.7056 194.542 74.9611C193.856 75.2169 193.129 75.3444 192.397 75.3372C191.572 75.3676 190.75 75.2141 189.992 74.8878C189.374 74.5866 188.848 74.1251 188.469 73.5516C188.056 72.9278 187.78 72.2232 187.66 71.4846C187.484 70.5356 187.405 69.5713 187.423 68.6064C187.423 66.3407 187.918 64.5748 188.907 63.3087C189.88 62.0553 191.358 61.4049 193.302 61.4049C193.896 61.4113 194.488 61.4738 195.07 61.5917C195.581 61.7009 196.081 61.8593 196.562 62.0647V73.8969Z" fill="#231F20"/>
<path d="M220.611 55.301C216.225 55.301 212.817 56.5663 210.388 59.0969C207.949 61.599 206.729 64.9676 206.728 69.2025C206.728 73.5092 208.044 76.8391 210.651 79.1687C213.257 81.4982 217.043 82.676 221.946 82.676C223.087 82.6846 224.228 82.6175 225.36 82.475C226.283 82.3491 227.199 82.1699 228.102 81.9381C228.865 81.7702 229.615 81.544 230.344 81.2617C230.902 81.0252 231.499 80.7887 232.162 80.5215V73.8616H231.319C230.876 74.187 230.415 74.487 229.939 74.7603C229.345 75.1259 228.728 75.4521 228.092 75.7371C227.279 76.0917 226.436 76.3735 225.573 76.579C224.655 76.7788 223.719 76.8795 222.779 76.8794C221.765 76.8855 220.752 76.7849 219.758 76.579C218.883 76.3839 218.05 76.0313 217.301 75.5384C216.585 75.0405 215.999 74.3788 215.592 73.6085C215.127 72.6675 214.865 71.6393 214.825 70.5908H232.581V67.6866C232.581 63.7039 231.582 60.6483 229.584 58.5198C227.576 56.3771 224.593 55.301 220.611 55.301ZM214.789 65.7331C214.891 64.0918 215.369 62.791 216.278 61.8521C217.187 60.9132 218.409 60.4118 219.976 60.4118C221.544 60.4118 222.675 60.873 223.438 61.7741C224.2 62.6751 224.572 63.9948 224.638 65.7331H214.789Z" fill="#231F20"/>
<path d="M252.066 55.3623C250.626 55.3407 249.203 55.6651 247.915 56.3084C246.533 57.0284 245.238 57.9053 244.056 58.9217V56.1073H235.974V81.9994H244.056V63.6186C244.732 63.1319 245.467 62.7345 246.244 62.4361C246.884 62.1931 247.564 62.0696 248.249 62.0719C248.97 62.0403 249.688 62.173 250.349 62.4597C250.882 62.7207 251.306 63.1601 251.547 63.7014C251.834 64.4371 251.994 65.2159 252.021 66.0049C252.115 67.0289 252.153 68.0837 252.153 69.1338V81.9829H260.245V65.118C260.245 61.9631 259.535 59.5342 258.148 57.8669C256.76 56.1996 254.727 55.3623 252.066 55.3623Z" fill="#231F20"/>
<path d="M288 67.6866C288 63.7039 287.008 60.6483 284.991 58.5198C282.974 56.3913 280 55.301 276.03 55.301C271.64 55.301 268.243 56.5663 265.805 59.0969C263.366 61.6274 262.17 64.9692 262.17 69.2025C262.17 73.5092 263.468 76.8391 266.074 79.1687C268.681 81.4982 272.467 82.676 277.37 82.676C278.509 82.684 279.647 82.6169 280.777 82.4749C281.696 82.3493 282.608 82.1701 283.506 81.9381C284.274 81.7681 285.028 81.542 285.763 81.2617C286.295 81.0252 286.909 80.7887 287.572 80.5214V73.8616H286.696C286.268 74.2008 285.81 74.5015 285.329 74.7603C284.743 75.1307 284.13 75.4572 283.495 75.737C282.682 76.0896 281.841 76.3713 280.98 76.579C280.064 76.778 279.129 76.8787 278.191 76.8793C277.172 76.8862 276.155 76.7856 275.156 76.579C274.284 76.3803 273.454 76.0279 272.706 75.5384C271.987 75.0451 271.4 74.3822 270.999 73.6085C270.534 72.6679 270.274 71.6393 270.237 70.5908H287.993L288 67.6866ZM270.21 65.7331C270.303 64.0918 270.802 62.791 271.688 61.8521C272.573 60.9132 273.819 60.4118 275.398 60.4118C276.977 60.4118 278.097 60.873 278.861 61.7741C279.626 62.6751 280 63.9948 280.045 65.7331H270.21Z" fill="#231F20"/>
<path d="M95.5375 94.6003C96.6983 94.4059 97.8739 94.3141 99.0509 94.326C100.836 94.326 101.937 94.5412 102.839 95.1679C103.267 95.4199 103.621 95.7816 103.862 96.2157C104.103 96.6498 104.224 97.1405 104.212 97.637C104.212 98.8526 103.447 99.9712 102.015 100.501V100.541C103.409 100.894 104.683 101.991 104.683 103.817C104.692 104.338 104.582 104.854 104.361 105.326C104.14 105.798 103.815 106.213 103.409 106.541C102.462 107.364 100.916 107.776 98.5016 107.776C97.5108 107.779 96.5208 107.72 95.5375 107.598V94.6003ZM97.931 99.8033H99.1693C100.827 99.8033 101.774 99.0181 101.774 97.9113C101.774 96.6768 100.827 96.1092 99.3018 96.1092C98.8412 96.0933 98.3801 96.1258 97.9263 96.2061L97.931 99.8033ZM97.931 105.881C98.3548 105.927 98.781 105.947 99.2071 105.941C100.758 105.941 102.133 105.352 102.133 103.725C102.133 102.197 100.798 101.568 99.129 101.568H97.931V105.881Z" fill="#231F20"/>
<path d="M132.748 94.6004C133.956 94.411 135.178 94.3193 136.401 94.326C138.295 94.326 139.599 94.6382 140.482 95.3832C140.858 95.7116 141.155 96.1197 141.352 96.5776C141.549 97.0355 141.641 97.5316 141.621 98.0296C141.615 98.7617 141.381 99.4738 140.952 100.067C140.523 100.66 139.919 101.105 139.225 101.341V101.4C140.172 101.752 140.738 102.674 141.072 103.949C141.484 105.605 141.837 107.123 142.111 107.634H139.618C139.422 107.241 139.109 106.163 138.735 104.517C138.364 102.79 137.734 102.242 136.368 102.204H135.151V107.643H132.748V94.6004ZM135.144 100.442H136.576C138.205 100.442 139.225 99.5787 139.225 98.2661C139.225 96.814 138.205 96.1376 136.635 96.1376C136.135 96.1229 135.635 96.1626 135.144 96.2559V100.442Z" fill="#231F20"/>
<path d="M172.609 103.883L171.471 107.627H168.978L173.218 94.4111H176.296L180.593 107.627H178.007L176.809 103.883H172.609ZM176.397 102.06L175.358 98.8029C175.102 97.9988 174.884 97.0978 174.69 96.3315H174.65C174.454 97.0978 174.257 98.0178 174.023 98.8029L173.002 102.06H176.397Z" fill="#231F20"/>
<path d="M207.545 106.293L214.316 96.4687V96.4119H208.16V94.4111H217.448V95.8301L210.774 105.555V105.633H217.545V107.634H207.545V106.293Z" fill="#231F20"/>
<path d="M247.856 94.4111V107.627H245.441V94.4111H247.856Z" fill="#231F20"/>
<path d="M276.529 94.4111H278.944V105.607H284.389V107.627H276.536L276.529 94.4111Z" fill="#231F20"/>
</svg>
