<svg width="779" height="314" viewBox="0 0 779 314" fill="none" xmlns="http://www.w3.org/2000/svg">
<rect width="779" height="314" fill="white"/>
<path d="M459.974 45.1267C453.375 43.5689 446.739 42.0983 439.883 41.1011C439.625 41.0597 439.34 41.0414 439.088 41C429.477 48.0841 420.512 56.0038 412.296 64.6668C421.376 63.3374 430.523 62.509 439.694 62.1852C470.815 61.0093 501.869 65.8656 531.145 76.4864C510.993 62.608 486.669 51.6707 459.979 45.1267" fill="#004C99"/>
<path d="M445.462 116.803C482.308 99.4088 520.892 92.0652 557.293 93.6644C525.952 79.8228 489.983 72.5251 451.964 73.9038C433.725 74.5589 415.615 77.2361 397.967 81.8862C389.471 93.2476 382.421 105.622 376.979 118.724C385.402 126.998 394.426 134.636 403.978 141.577C416.964 131.981 430.858 123.679 445.462 116.789" fill="#F7941D"/>
<path d="M397.967 81.8999C383.973 85.5816 370.351 90.5522 357.274 96.7479C370.693 113.779 386.405 128.87 403.964 141.591C394.416 134.646 385.392 127.008 376.966 118.737C382.408 105.636 389.458 93.2622 397.953 81.8999" fill="#FDC180"/>
<path d="M403.997 141.591C394.436 134.656 385.405 127.019 376.98 118.742C369.189 137.473 365.141 157.549 365.064 177.836C376.624 164.316 389.686 152.156 403.997 141.591Z" fill="#FDC180"/>
<path d="M587.251 253.85C586.792 253.85 586.36 253.877 585.872 253.877C567.178 253.877 553.621 241.929 553.621 225.417V225.054C553.621 209.283 567.206 196.93 584.54 196.93C585.459 196.93 586.378 196.957 587.233 197.008V178.061C586.433 178.029 585.597 178.029 584.765 178.029C550.8 178.029 525.166 198.387 525.166 225.417V225.762C525.166 252.14 551.154 272.797 584.333 272.797C585.344 272.797 586.272 272.774 587.233 272.751L587.251 253.85Z" fill="#004C99"/>
<path d="M243.848 214.149C223.807 209.875 220.986 207.816 220.986 201.484V201.194C220.986 196.525 226.128 192.812 235.893 192.812C240.879 192.812 247.382 194.163 251.95 195.854V175.634C247.704 174.89 241.183 174.049 236.233 174.049C212.534 174.049 195.655 185.629 195.655 203.134V203.396C195.655 222.536 210.71 227.903 234.078 232.857C253.453 236.993 255.286 239.75 255.286 245.127V245.398C255.286 251.042 248.981 254.484 238.545 254.484C225.296 254.484 216.514 249.939 206.087 242.779L191 257.806C204.92 268.137 220.485 273.238 238.044 273.238C263.067 273.238 280.626 262.494 280.626 243.367V243.096C280.626 226.286 267.363 219.264 243.862 214.167" fill="#004C99"/>
<path d="M302.271 222.678C304.27 212.509 311.112 205.859 321.627 205.859C332.279 205.859 338.961 212.642 340.468 222.678H302.271ZM321.627 187.872C295.607 187.872 277.437 206.465 277.437 229.011V229.3C277.455 253.482 297.289 270.168 324.141 270.168C324.913 270.168 327.413 270.062 328.18 270.053V252.007C327.541 252.034 325.138 252.149 324.462 252.149C313.121 252.149 305.129 246.855 302.611 236.681H364.278C364.425 234.604 364.599 233.28 364.599 231.061V230.776C364.599 208.368 351.479 187.872 321.645 187.872" fill="#004C99"/>
<path d="M445.007 226.842C445.007 205.464 431.937 188.777 404.286 188.777C376.635 188.777 363.524 205.464 363.524 226.842V268.689H389.125V225.298C389.585 217.389 392.696 208.037 404.291 208.037C415.885 208.037 419.189 217.389 419.635 225.298V268.689H445.007V226.842Z" fill="#004C99"/>
<path d="M486.665 188.322C485.548 188.322 481.67 188.322 480.613 188.373V207.495C485.548 207.541 492.308 208.373 495.318 209.958C499.744 212.293 502.041 216.217 502.147 221.534C496.113 220.822 489.28 220.344 483.338 220.192C459.138 219.567 447.171 227.545 444.772 240.38C444.722 240.619 444.68 240.863 444.644 241.106C444.644 241.189 444.612 241.272 444.602 241.35C444.406 242.632 444.307 243.927 444.308 245.224V245.513C444.308 261.166 458.15 269.713 474.969 269.713C487.322 269.713 495.833 265.715 501.982 259.677V268.79H526.494V222.375C526.494 200.978 514.325 188.318 486.665 188.318V188.322ZM502.239 240.564C500.033 252.117 488.108 253.845 485.401 253.987C466.1 255.008 465.434 241.814 471.913 237.798C480.645 232.398 502.313 235.435 502.313 235.435C502.427 237.144 502.402 238.859 502.239 240.564Z" fill="#004C99"/>
</svg>
